<?xml version="1.0" encoding="UTF-8"?>
<svg version="1.1" xmlns="http://www.w3.org/2000/svg" width="243" height="304">
<path d="M0 0 C4.13945236 2.78616986 5.26205897 5.48135332 7 10 C10.0481622 13.77830338 12.29819436 14.5700499 17.0625 15.125 C22.71450151 15.80966767 22.71450151 15.80966767 26 18 C29.0042707 18.36927046 29.0042707 18.36927046 32.41796875 18.4140625 C33.67158203 18.45273437 34.92519531 18.49140625 36.21679688 18.53125 C37.52712891 18.5621875 38.83746094 18.593125 40.1875 18.625 C41.5228116 18.66319338 42.85809892 18.70224591 44.19335938 18.7421875 C47.46209888 18.83659153 50.73083064 18.92217017 54 19 C54 21.64 54 24.28 54 27 C55.7634375 27.433125 55.7634375 27.433125 57.5625 27.875 C61.4018927 28.83313721 65.2013318 29.89205511 69 31 C69.495 33.97 69.495 33.97 70 37 C70.28875 36.030625 70.5775 35.06125 70.875 34.0625 C72 31 72 31 74 30 C74.65772428 26.97065509 74.65772428 26.97065509 75 24 C78.46941546 24.45822468 81.67395049 24.89131683 85 26 C86.45891822 25.99453589 87.91797964 25.94959149 89.375 25.875 C93.47017457 25.82190211 95.65336717 26.5139299 99 29 C102.98987219 31.82330022 107.12285866 31.00867673 111.75 30.625 C112.54277344 30.56828125 113.33554688 30.5115625 114.15234375 30.453125 C116.10231735 30.31216305 118.05128671 30.1574288 120 30 C120 31.65 120 33.3 120 35 C120.78375 35.0825 121.5675 35.165 122.375 35.25 C125 36 125 36 126.3125 38.0625 C126.539375 38.701875 126.76625 39.34125 127 40 C129.6905528 38.77992056 129.6905528 38.77992056 132 37 C137.03609535 36.23178207 137.03609535 36.23178207 140 37 C141.88639219 38.83835906 143.19966438 40.76865643 144.63671875 42.97265625 C146.38974071 45.57958575 148.46755108 47.16397453 151 49 C155.08211122 52.06158341 158.07387981 55.24070743 161.25 59.25 C164.33265715 63.13456458 167.46953789 66.41835803 171.25 69.625 C177.98744166 75.47318306 182.52697698 83.08721219 183.25 92.125 C182.99976229 95.00273364 182.65530513 96.64772429 181 99 C180.01 99.33 179.02 99.66 178 100 C177.67 103.63 177.34 107.26 177 111 C176.01 111.33 175.02 111.66 174 112 C175.22822338 117.8706679 175.22822338 117.8706679 178.7578125 122.48828125 C180.87567532 123.70869103 180.87567532 123.70869103 184 125 C183.25 129.75 183.25 129.75 181 132 C181.21413291 136.20230628 181.21413291 136.20230628 183.5625 139.5 C185 141 185 141 185.25 144.125 C185 147 185 147 184 148 C183.49968794 151.41571853 183.49968794 151.41571853 184 155 C186.18611952 156.84453835 188.28023367 157.75342658 190.97265625 158.67578125 C193.3048023 159.59556221 195.05423708 160.40199045 197 162 C198.0859375 164.6328125 198.0859375 164.6328125 198.9375 167.625 C199.7102402 170.54615941 199.7102402 170.54615941 201 173 C203.35440875 174.14432157 205.17837039 174.4204272 207.78125 174.55859375 C210.94331264 175.18766607 212.07513693 176.4535219 214 179 C215.48817921 186.09194369 214.19592011 192.09451655 210.28515625 198.0859375 C209.86105469 198.71757812 209.43695313 199.34921875 209 200 C208.54625 201.010625 208.0925 202.02125 207.625 203.0625 C206 205 206 205 202.625 205.5 C197.56609097 204.80221944 195.15776425 203.18823173 191.625 199.5625 C187.36053363 195.39956855 184.21683164 193 178.125 193 C176.73901776 193.28423464 175.36328316 193.62158868 174 194 C173.195625 194.20496094 172.39125 194.40992188 171.5625 194.62109375 C168.97348461 195.48824794 167.11775904 196.26728806 165 198 C163.97435692 200.63432807 163.57905448 202.9478933 163.31640625 205.7578125 C163 208 163 208 161 210 C158.875 210.625 158.875 210.625 157 211 C157.00902344 211.9178125 157.01804688 212.835625 157.02734375 213.78125 C156.75526223 225.04305894 156.75526223 225.04305894 152.5625 229.375 C151.61890625 230.26832031 151.61890625 230.26832031 150.65625 231.1796875 C147.95948482 234.14358508 147.6250533 237.11077945 147 241 C146.21625 240.95875 145.4325 240.9175 144.625 240.875 C141.83883881 240.71271266 141.83883881 240.71271266 140 243 C139.69889182 245.88904363 139.69889182 245.88904363 141 249 C144.78691069 252.81641908 149.56201516 255.34103866 154.1875 258 C161.26170433 262.19692856 164.48638312 267.5179572 167.88671875 274.828125 C168.9274079 277.131878 168.9274079 277.131878 171 279 C171.3359375 281.49609375 171.3359375 281.49609375 171.375 284.4375 C171.40335938 285.40558594 171.43171875 286.37367188 171.4609375 287.37109375 C171 290 171 290 169.2265625 291.78515625 C163.62676834 294.84048254 157.22765625 294.63095991 151 294 C148.90625 293.10546875 148.90625 293.10546875 147.1875 292 C143.3149417 289.5701595 141.50560415 289.45622019 137 290 C133.93034462 290.81439837 130.98015437 291.9069921 128 293 C125.46206722 293.90911025 122.92178679 294.80420867 120.375 295.6875 C119.14523438 296.12449219 117.91546875 296.56148438 116.6484375 297.01171875 C112.84775533 298.04123972 109.91460959 298.40221795 106 298 C103.92578125 296.71484375 103.92578125 296.71484375 102.3125 294.9375 C101.44625 293.98617187 101.44625 293.98617187 100.5625 293.015625 C99.10160672 291.13107267 97.93997475 289.28389837 96.8125 287.1875 C95.28823771 284.04459223 95.28823771 284.04459223 93.1875 282.5625 C90.83387081 281.81202362 90.83387081 281.81202362 87.6875 282.4375 C84 282 84 282 82.09765625 280.0390625 C80.88333583 278.41141103 79.70821905 276.7536261 78.578125 275.06640625 C77.09122196 272.71817171 77.09122196 272.71817171 74 272 C71.46409375 273.26795312 69.444827 274.555173 67.4375 276.5625 C64.86925269 279.13074731 62.62634232 279.89338854 59.0625 280.5 C55.42289724 279.90577914 54.54748237 278.70365227 52.4296875 275.796875 C49.73763511 272.41342117 46.28618326 269.78711337 43 267 C42 266 42 266 41.5625 263.25 C42 260 42 260 44.5625 257.5 C45.70537737 256.6626173 46.85147928 255.8296256 48 255 C49.30095005 253.90678649 50.59276254 252.80260264 51.875 251.6875 C52.47054687 251.17574219 53.06609375 250.66398438 53.6796875 250.13671875 C54.33324219 249.57404297 54.33324219 249.57404297 55 249 C53.31397493 246.42659331 52.05007057 245.02980391 49.375 243.4375 C47 242 47 242 46 239 C45.93197033 237.27204648 45.91504355 235.54164635 45.9375 233.8125 C45.94652344 232.91144531 45.95554687 232.01039063 45.96484375 231.08203125 C45.97644531 230.39496094 45.98804687 229.70789063 46 229 C46.66 228.67 47.32 228.34 48 228 C48.39362058 225.81106927 48.39362058 225.81106927 48.5 223.25 C48.80034621 219.40010764 49.55015737 216.5762785 51 213 C50.95875 211.845 50.9175 210.69 50.875 209.5 C51 206 51 206 52.5 203.25 C55.80650639 200.27414425 58.77097345 199.33919174 63 198 C63.41870553 195.66928121 63.41870553 195.66928121 63 193 C62.25492187 192.47019531 61.50984375 191.94039062 60.7421875 191.39453125 C56.99088542 188.1188216 55.66528735 184.48459409 53.8125 179.9375 C53.13380604 178.32064905 52.45290264 176.70472332 51.76953125 175.08984375 C51.47667236 174.37691162 51.18381348 173.66397949 50.88208008 172.92944336 C49.94628197 170.74767999 49.94628197 170.74767999 48 168 C47.92094936 165.66800612 47.91201231 163.33167378 48 161 C48.66 160.67 49.32 160.34 50 160 C49.71125 159.34 49.4225 158.68 49.125 158 C48.21012074 155.56032196 47.54102545 153.27300865 46.9375 150.75 C46.39837692 147.22687834 46.39837692 147.22687834 45 146 C41.47739748 145.76188416 37.96170798 145.60438872 34.43359375 145.48242188 C29.1078622 145.23867078 25.04762279 144.69660174 20.8125 141.1875 C19 139 19 139 18.1875 136.6875 C16.68926511 133.29675788 14.56782362 131.40870222 11.91015625 128.87109375 C10.07360816 127.07210288 8.41275769 125.20924943 6.75 123.25 C2.97958007 118.81975658 -1.26073833 114.92488323 -5.546875 111.00390625 C-11.31944276 103.93526834 -11.37167518 96.42190887 -11.0625 87.625 C-10.44128324 74.22743264 -10.44128324 74.22743264 -15 62 C-15.17307524 59.60815698 -15.26680736 57.21016141 -15.3125 54.8125 C-15.58719161 48.16844615 -17.00945807 44.23178608 -21 39 C-21.80758546 37.64625898 -22.57941029 36.27048863 -23.3125 34.875 C-23.63863281 34.27429687 -23.96476562 33.67359375 -24.30078125 33.0546875 C-26.1369264 27.65908778 -24.58868463 23.19872714 -22.625 18.0625 C-21.26679183 14.47635388 -20.00834355 11.03369511 -19.0859375 7.30859375 C-16.03202365 -1.99595673 -8.5341015 -1.17154529 0 0 Z " fill="#191818" transform="translate(25,5)"/>
<path d="M0 0 C5.61650357 0.11233007 8.53257445 1.67643427 12.49609375 5.3828125 C14.94907983 8.02056896 16.55146698 10.73382867 17.75 14.1171875 C18.1625 14.73851562 18.575 15.35984375 19 16 C21.41817258 16.55646392 21.41817258 16.55646392 24.1875 16.5 C28.08243683 16.54357971 29.76140597 16.84415884 33.0859375 19.015625 C38.14446327 22.1255736 43.69187619 21.42731302 49.4375 21.25 C51.1071582 21.22292969 51.1071582 21.22292969 52.81054688 21.1953125 C55.54126646 21.14843319 58.27017386 21.08282819 61 21 C61.495 23.97 61.495 23.97 62 27 C66.97361654 28.75734451 71.7415998 30.32584613 77 31 C77.66 33.31 78.32 35.62 79 38 C80.98 38.33 82.96 38.66 85 39 C85 37.35 85 35.7 85 34 C86.65 33.67 88.3 33.34 90 33 C90 31.35 90 29.7 90 28 C92.22972273 28.11465421 94.45878753 28.24214766 96.6875 28.375 C97.92886719 28.44460937 99.17023438 28.51421875 100.44921875 28.5859375 C103.72168845 28.96754563 106.0854911 29.49988513 109 31 C110.3125 33.125 110.3125 33.125 111 35 C107.25 38 107.25 38 105 38 C103.93646646 39.96344654 103.03653904 41.88865322 102.33984375 44.01171875 C101.98599609 45.08873047 101.98599609 45.08873047 101.625 46.1875 C101.41101563 46.88230469 101.19703125 47.57710937 100.9765625 48.29296875 C100 50 100 50 98.22583008 50.60449219 C95.89157554 51.01926595 93.77920963 51.07818575 91.41015625 51.03515625 C90.54326172 51.04095703 89.67636719 51.04675781 88.78320312 51.05273438 C86.97319905 51.05923116 85.16288768 51.03850169 83.35351562 50.99023438 C78.39401211 51.03102567 78.39401211 51.03102567 74.32763672 53.56201172 C68.59197741 62.16234575 68.65971287 71.49964138 68.78515625 81.48632812 C68.66018525 88.16266349 68.66018525 88.16266349 66.61523438 90.75634766 C64.953125 92.14453125 64.953125 92.14453125 62 94 C61.96127313 96.33538907 61.96127313 96.33538907 63 99 C64.68683825 100.41558788 66.42399382 101.55435118 68.30859375 102.69140625 C70.43385199 104.33565916 71.02543691 105.48524402 72 108 C72.22705078 111.11621094 72.22705078 111.11621094 72.1953125 114.734375 C72.18886719 116.02988281 72.18242188 117.32539062 72.17578125 118.66015625 C72.15907193 120.02344019 72.14214206 121.38672144 72.125 122.75 C72.1149634 124.12889985 72.10583873 125.50780665 72.09765625 126.88671875 C72.07408093 130.25798882 72.0411727 133.62890636 72 137 C46.03526603 141.64147061 46.03526603 141.64147061 36.75 136.0390625 C34.51790488 133.15593964 32.81320829 130.16205837 31 127 C28.92925634 124.47047712 26.694785 122.11301115 24.4375 119.75 C23.87909424 119.15050537 23.32068848 118.55101074 22.74536133 117.93334961 C19.20064754 114.15228655 15.49322992 110.70862502 11.515625 107.3828125 C9.45881759 105.50624079 8.21218374 103.49171102 7 101 C6.649375 100.41420166 6.29875 99.82840332 5.9375 99.22485352 C4.73669488 96.37513031 4.80612479 94.17750985 4.875 91.08984375 C4.89046875 89.93419922 4.9059375 88.77855469 4.921875 87.58789062 C4.9733734 85.18162804 5.02544329 82.7753776 5.078125 80.36914062 C5.17375748 73.16881198 5.18036113 65.93896565 3 59 C2.34 58.67 1.68 58.34 1 58 C0.67975603 55.67526598 0.44488183 53.33858195 0.25 51 C-0.48315121 43.97841092 -2.51965342 39.40563555 -7 34 C-9.13586678 30.79619983 -9.23132175 29.98060033 -9.125 26.3125 C-9.10695313 25.50425781 -9.08890625 24.69601563 -9.0703125 23.86328125 C-9.04710937 23.24839844 -9.02390625 22.63351563 -9 22 C-8.34 22 -7.68 22 -7 22 C-6.8865625 20.99710938 -6.773125 19.99421875 -6.65625 18.9609375 C-6.08786768 14.98826528 -4.88284785 11.39567234 -3.5 7.625 C-3.0565625 6.40039062 -2.613125 5.17578125 -2.15625 3.9140625 C-1 1 -1 1 0 0 Z " fill="#F9F7F7" transform="translate(14,8)"/>
<path d="M0 0 C8.16713581 0.37654521 16.34808746 0.88057921 24 4 C24.66153076 4.76582397 24.66153076 4.76582397 25.33642578 5.54711914 C27.5961618 7.52065731 28.89895101 7.28890645 31.859375 7.16015625 C47.33933806 6.88933906 47.33933806 6.88933906 52.04296875 10.03515625 C55.00547981 14.08493942 55.98275926 16.91383367 56.0625 21.9375 C55 25 55 25 53 28 C52.34 28 51.68 28 51 28 C48.645502 36.25031412 49.84330739 43.30005422 53.00390625 51.09765625 C54.0682583 54.19888596 54.46451589 56.99302517 54.8125 60.25 C55.65787405 67.04318434 57.36759236 73.4410271 59.3125 80 C59.73849487 81.48741699 59.73849487 81.48741699 60.1730957 83.00488281 C61.92502815 88.73387248 63.54067472 92.91551656 68 97 C71.25694923 98.55381129 71.25694923 98.55381129 74.8125 99.5 C80.90432958 101.48605102 85.23777374 103.76816387 90 108 C90.94875 108.804375 91.8975 109.60875 92.875 110.4375 C93.34421875 110.84355469 93.8134375 111.24960937 94.296875 111.66796875 C96.07640802 113.10543256 96.07640802 113.10543256 98.453125 114.55078125 C103.95803716 118.05171223 106.92668965 120.60779581 109.12890625 126.79296875 C110.05499605 129.13933978 111.21191541 130.82278946 112.75 132.8125 C115 136 115 136 115 140 C109.05398207 141.48650448 103.69447455 142.19630797 98.3125 139.0625 C92.94084883 136.01605254 87.04367205 136.18425829 81 136 C81 136.66 81 137.32 81 138 C79.74703125 138.40992188 78.4940625 138.81984375 77.203125 139.2421875 C75.55203054 139.78629817 73.90099178 140.33057786 72.25 140.875 C71.425 141.14441406 70.6 141.41382813 69.75 141.69140625 C68.95078125 141.95566406 68.1515625 142.21992188 67.328125 142.4921875 C66.5949707 142.73308105 65.86181641 142.97397461 65.10644531 143.22216797 C62.96343718 143.96179878 62.96343718 143.96179878 60.91699219 145.09423828 C59 146 59 146 56 146 C54.53515625 144.4609375 54.53515625 144.4609375 53.0625 142.375 C52.54171875 141.64796875 52.0209375 140.9209375 51.484375 140.171875 C50.23177457 138.33912279 49.01372677 136.4915216 47.8125 134.625 C46.10092635 131.80041149 46.10092635 131.80041149 43 130 C40.6210964 129.72903355 40.6210964 129.72903355 38.0625 129.6875 C33.30393338 129.28750454 33.30393338 129.28750454 30.6875 126.8125 C30.130625 125.884375 29.57375 124.95625 29 124 C28.09999559 122.88221027 27.18287481 121.7780074 26.25 120.6875 C25.13625 119.3571875 25.13625 119.3571875 24 118 C18.95323539 118.72096637 15.41962905 120.35139852 12.0625 124.25 C10 126 10 126 7.0625 126.0625 C3.32283245 124.76506432 1.62882788 122.91302549 -1 120 C-1.99 119.34 -2.98 118.68 -4 118 C-2.6240801 113.53607806 -0.66847116 111.51883457 3 108.6875 C3.886875 107.99011719 4.77375 107.29273438 5.6875 106.57421875 C8 105 8 105 10 105 C9.67 102.03 9.34 99.06 9 96 C7.700625 95.525625 6.40125 95.05125 5.0625 94.5625 C1.125 93.125 1.125 93.125 0 92 C-0.23529412 86.47058824 -0.23529412 86.47058824 1 84 C1.10409368 82.33450106 1.18368175 80.66743039 1.25 79 C1.72961122 72.84634424 3.90374182 68.26706649 7 63 C6.01 63 5.02 63 4 63 C4 61.35 4 59.7 4 58 C8.20327441 56.10440566 11.39942914 54.92011417 16 54 C16.66 49.71 17.32 45.42 18 41 C16.35 40.34 14.7 39.68 13 39 C11.3125 37.125 11.3125 37.125 10 35 C9.62875 34.401875 9.2575 33.80375 8.875 33.1875 C8 31 8 31 7.6875 27.4375 C7.460625 26.303125 7.23375 25.16875 7 24 C4.50240018 22.30117552 4.50240018 22.30117552 2 21 C2 19.68 2 18.36 2 17 C2.66 17 3.32 17 4 17 C3.71682074 15.39431334 3.42312209 13.79047953 3.125 12.1875 C2.88136719 10.84751953 2.88136719 10.84751953 2.6328125 9.48046875 C2.08811551 6.77272154 2.08811551 6.77272154 0 4 C0 2.68 0 1.36 0 0 Z " fill="#F8F6F6" transform="translate(77,153)"/>
<path d="M0 0 C-0.33 1.98 -0.66 3.96 -1 6 C-1.66 6 -2.32 6 -3 6 C-1.03332451 15.20799198 -1.03332451 15.20799198 4 23 C4.20308237 26.39598844 4.34695706 29.78473489 4.4296875 33.18554688 C4.51435595 35.1311574 4.74855871 37.06884844 5 39 C6.485 39.99 6.485 39.99 8 41 C7.82210937 41.87011719 7.82210937 41.87011719 7.640625 42.7578125 C6.9816919 46.75094708 6.72408206 49.31020516 8.25 53.125 C10.9188741 55.91518656 13.19597206 57.3822056 16.5 59.3125 C21.98826022 62.5951977 24.42459245 65.81179913 26 72 C26 72.66 26 73.32 26 74 C29.3 74.66 32.6 75.32 36 76 C36.86140345 91.04584699 36.86140345 91.04584699 33.5 94.9375 C32.675 95.618125 31.85 96.29875 31 97 C25.28181157 94.87610144 21.2914627 92.2914627 17 88 C12.72564408 84.42146946 9.6031403 83.35026444 4.15234375 83.61328125 C0.79676934 84.21618845 -1.3014365 85.96230919 -4 88 C-5.7669172 88.75918002 -7.53806636 89.50855818 -9.3125 90.25 C-12.89745425 91.88302017 -12.89745425 91.88302017 -14.86328125 95.09765625 C-15.20975544 97.55169206 -15.20975544 97.55169206 -15 101 C-15.99 101.33 -16.98 101.66 -18 102 C-20.48213885 105.44189921 -20.19757188 108.87565466 -20.25 113 C-20.453125 116.7890625 -20.453125 116.7890625 -21 120 C-24 122.375 -24 122.375 -27 124 C-27.85240721 126.75144099 -27.90291021 129.08730619 -28 132 C-29.670625 132.4021875 -29.670625 132.4021875 -31.375 132.8125 C-35.21840951 133.65809019 -35.21840951 133.65809019 -37 137 C-41.15286169 137.4084782 -43.8709653 137.43621795 -47.75 135.9375 C-53.69686393 130.81658939 -55.11973189 123.66812864 -56.6875 116.3125 C-56.90462646 115.33587402 -57.12175293 114.35924805 -57.34545898 113.35302734 C-58.63544411 107.35372319 -59.40544815 101.54087766 -59.6875 95.40625 C-60.12000638 92.07595086 -61.50453229 89.62934187 -63.1171875 86.7265625 C-64.60119708 83.82420747 -64.72907894 82.18143539 -64 79 C-62.87325972 77.71389447 -61.70049866 76.46754428 -60.5 75.25 C-57.55523303 72.13201144 -56.44867742 70.19376953 -56.3125 65.875 C-56.65661941 61.28205928 -58.05941726 58.59404557 -61 55 C-65 49.33333333 -65 49.33333333 -65 46 C-64.34 46 -63.68 46 -63 46 C-62.67 41.71 -62.34 37.42 -62 33 C-61.34 33 -60.68 33 -60 33 C-59.34 31.68 -58.68 30.36 -58 29 C-57.34 29 -56.68 29 -56 29 C-56 28.34 -56 27.68 -56 27 C-54.3828125 25.80859375 -54.3828125 25.80859375 -52.125 24.4375 C-44.12516069 19.24773082 -37.2807762 14.11326722 -34 5 C-26.32314263 -2.40906002 -10.03819563 -0.23465912 0 0 Z " fill="#F9F7F8" transform="translate(197,108)"/>
<path d="M0 0 C4.2475253 0.30891093 7.3586453 0.33046701 11 -2 C11.37125 -1.2575 11.7425 -0.515 12.125 0.25 C13.9264665 2.89215087 15.40289245 4.06771918 18.0703125 5.7265625 C25.53496289 10.65262733 31.72842519 16.39737068 37.08984375 23.53125 C39.01124244 26.0145301 41.08159801 28.23176367 43.25 30.5 C48.43101844 36.25215433 51.12222581 42.25152668 51 50 C50.2251123 50.0093457 49.45022461 50.01869141 48.65185547 50.02832031 C28.14188306 49.26064055 28.14188306 49.26064055 9 55 C7.12521082 57.46638932 6.02068639 59.7186558 4.921875 62.609375 C3.63598461 65.94397211 1.68885518 67.68633391 -1 70 C-1.62132812 70.5878125 -2.24265625 71.175625 -2.8828125 71.78125 C-6.81194295 75.42652692 -9.78698395 77.47423921 -15 79 C-15.495 80.485 -15.495 80.485 -16 82 C-20.6031612 83.53438707 -25.19831027 83.67535358 -30 83 C-31.9375 80.6875 -31.9375 80.6875 -33 78 C-37.07711874 73.88041128 -43.09369608 73.25952353 -48.53320312 71.98242188 C-54.54967221 70.45482208 -54.54967221 70.45482208 -56.95703125 68.0234375 C-57.30121094 67.35570313 -57.64539063 66.68796875 -58 66 C-58.53625 65.030625 -59.0725 64.06125 -59.625 63.0625 C-64.30018897 52.64957912 -62.38364511 38.75003172 -61.25 27.625 C-61.1883667 26.91827148 -61.1267334 26.21154297 -61.06323242 25.48339844 C-60.67716205 22.18796907 -60.16240287 20.20827749 -58.10546875 17.5703125 C-53.51612362 14.1474614 -47.89816954 15.01305006 -42.4375 15.125 C-35.697731 15.23823656 -35.697731 15.23823656 -30 12 C-28.98520223 9.71041495 -28.26196235 7.48419917 -27.640625 5.05859375 C-27 3 -27 3 -25 1 C-17.14965318 -2.30540919 -7.4277829 -4.95185527 0 0 Z " fill="#F8F7F7" transform="translate(151,50)"/>
<path d="M0 0 C1.65 0 3.3 0 5 0 C4.01 0.66 3.02 1.32 2 2 C1.41651248 4.6556728 1.41651248 4.6556728 1.3125 7.625 C1.21388672 9.12933594 1.21388672 9.12933594 1.11328125 10.6640625 C1.07589844 11.43492188 1.03851563 12.20578125 1 13 C0.01 13.33 -0.98 13.66 -2 14 C-0.77177662 19.8706679 -0.77177662 19.8706679 2.7578125 24.48828125 C4.87567532 25.70869103 4.87567532 25.70869103 8 27 C7.25 31.75 7.25 31.75 5 34 C5.21413291 38.20230628 5.21413291 38.20230628 7.5625 41.5 C9 43 9 43 9.25 46.125 C9 49 9 49 8 50 C7.49968794 53.41571853 7.49968794 53.41571853 8 57 C10.18611952 58.84453835 12.28023367 59.75342658 14.97265625 60.67578125 C17.3048023 61.59556221 19.05423708 62.40199045 21 64 C22.0859375 66.6328125 22.0859375 66.6328125 22.9375 69.625 C23.7102402 72.54615941 23.7102402 72.54615941 25 75 C27.35440875 76.14432157 29.17837039 76.4204272 31.78125 76.55859375 C34.94331264 77.18766607 36.07513693 78.4535219 38 81 C39.48817921 88.09194369 38.19592011 94.09451655 34.28515625 100.0859375 C33.86105469 100.71757812 33.43695313 101.34921875 33 102 C32.54625 103.010625 32.0925 104.02125 31.625 105.0625 C30 107 30 107 26.625 107.5 C21.56609097 106.80221944 19.15776425 105.18823173 15.625 101.5625 C11.36053363 97.39956855 8.21683164 95 2.125 95 C0.73901776 95.28423464 -0.63671684 95.62158868 -2 96 C-2.804375 96.20496094 -3.60875 96.40992188 -4.4375 96.62109375 C-7.02651539 97.48824794 -8.88224096 98.26728806 -11 100 C-12.02564308 102.63432807 -12.42094552 104.9478933 -12.68359375 107.7578125 C-13 110 -13 110 -15 112 C-17.125 112.625 -17.125 112.625 -19 113 C-18.99097656 113.9178125 -18.98195312 114.835625 -18.97265625 115.78125 C-19.24473777 127.04305894 -19.24473777 127.04305894 -23.4375 131.375 C-24.38109375 132.26832031 -24.38109375 132.26832031 -25.34375 133.1796875 C-28.04051518 136.14358508 -28.3749467 139.11077945 -29 143 C-29.78375 142.95875 -30.5675 142.9175 -31.375 142.875 C-34.16116119 142.71271266 -34.16116119 142.71271266 -36 145 C-36.30110818 147.88904363 -36.30110818 147.88904363 -35 151 C-31.21308931 154.81641908 -26.43798484 157.34103866 -21.8125 160 C-14.73829567 164.19692856 -11.51361688 169.5179572 -8.11328125 176.828125 C-7.0725921 179.131878 -7.0725921 179.131878 -5 181 C-4.6640625 183.49609375 -4.6640625 183.49609375 -4.625 186.4375 C-4.59664062 187.40558594 -4.56828125 188.37367188 -4.5390625 189.37109375 C-5 192 -5 192 -6.7734375 193.78515625 C-12.37323166 196.84048254 -18.77234375 196.63095991 -25 196 C-27.09375 195.10546875 -27.09375 195.10546875 -28.8125 194 C-32.6850583 191.5701595 -34.49439585 191.45622019 -39 192 C-42.06965538 192.81439837 -45.01984563 193.9069921 -48 195 C-50.53793278 195.90911025 -53.07821321 196.80420867 -55.625 197.6875 C-56.85476562 198.12449219 -58.08453125 198.56148437 -59.3515625 199.01171875 C-63.15224467 200.04123972 -66.08539041 200.40221795 -70 200 C-72.07421875 198.71484375 -72.07421875 198.71484375 -73.6875 196.9375 C-74.55375 195.98617187 -74.55375 195.98617187 -75.4375 195.015625 C-76.89839328 193.13107267 -78.06002525 191.28389837 -79.1875 189.1875 C-80.71176229 186.04459223 -80.71176229 186.04459223 -82.8125 184.5625 C-85.16612919 183.81202362 -85.16612919 183.81202362 -88.3125 184.4375 C-92 184 -92 184 -93.90234375 182.0390625 C-95.11666417 180.41141103 -96.29178095 178.7536261 -97.421875 177.06640625 C-98.90877804 174.71817171 -98.90877804 174.71817171 -102 174 C-104.53590625 175.26795312 -106.555173 176.555173 -108.5625 178.5625 C-111.13074731 181.13074731 -113.37365768 181.89338854 -116.9375 182.5 C-120.57710276 181.90577914 -121.45251763 180.70365227 -123.5703125 177.796875 C-126.26236489 174.41342117 -129.71381674 171.78711337 -133 169 C-134 168 -134 168 -134.4375 165.25 C-134 162 -134 162 -131.4375 159.5 C-130.29462263 158.6626173 -129.14852072 157.8296256 -128 157 C-126.69904995 155.90678649 -125.40723746 154.80260264 -124.125 153.6875 C-123.52945313 153.17574219 -122.93390625 152.66398438 -122.3203125 152.13671875 C-121.88460937 151.76160156 -121.44890625 151.38648438 -121 151 C-122.68602507 148.42659331 -123.94992943 147.02980391 -126.625 145.4375 C-129 144 -129 144 -130 141 C-130.06802967 139.27204648 -130.08495645 137.54164635 -130.0625 135.8125 C-130.05347656 134.91144531 -130.04445312 134.01039063 -130.03515625 133.08203125 C-130.02355469 132.39496094 -130.01195312 131.70789063 -130 131 C-129.34 130.67 -128.68 130.34 -128 130 C-127.60637942 127.81106927 -127.60637942 127.81106927 -127.5 125.25 C-127.19965379 121.40010764 -126.44984263 118.5762785 -125 115 C-125.04125 113.845 -125.0825 112.69 -125.125 111.5 C-125 108 -125 108 -123.5 105.25 C-120.19349361 102.27414425 -117.22902655 101.33919174 -113 100 C-112.58129447 97.66928121 -112.58129447 97.66928121 -113 95 C-113.74507812 94.47019531 -114.49015625 93.94039063 -115.2578125 93.39453125 C-119.00911458 90.1188216 -120.33471265 86.48459409 -122.1875 81.9375 C-122.86619396 80.32064905 -123.54709736 78.70472332 -124.23046875 77.08984375 C-124.52332764 76.37691162 -124.81618652 75.66397949 -125.11791992 74.92944336 C-126.05371803 72.74767999 -126.05371803 72.74767999 -128 70 C-128.07905064 67.66800612 -128.08798769 65.33167378 -128 63 C-127.34 62.67 -126.68 62.34 -126 62 C-126.28875 61.34 -126.5775 60.68 -126.875 60 C-127.78987926 57.56032196 -128.45897455 55.27300865 -129.0625 52.75 C-129.60162308 49.22687834 -129.60162308 49.22687834 -131 48 C-134.52260252 47.76188416 -138.03829202 47.60438872 -141.56640625 47.48242188 C-146.8921378 47.23867078 -150.95237721 46.69660174 -155.1875 43.1875 C-157 41 -157 41 -157.8125 38.6875 C-159.32836657 35.2568546 -161.55561276 33.34254296 -164.24609375 30.78125 C-166.60065569 28.38997997 -168.25682174 25.85881235 -170 23 C-166.05254951 24.57531667 -163.76272691 27.13074496 -160.9375 30.25 C-160.08027344 31.18328125 -159.22304687 32.1165625 -158.33984375 33.078125 C-156 36 -156 36 -154.56640625 39.171875 C-152.51500386 42.87565387 -150.99275828 43.64605429 -147 45 C-143.1293967 45.43273826 -139.25932799 45.38887845 -135.36914062 45.3515625 C-133.14896317 45.39585532 -131.15850843 45.47487977 -129 46 C-126.77689392 48.62929245 -126.08339236 50.74982291 -125 54 C-124.34 54 -123.68 54 -123 54 C-119.5112388 58.29385993 -119.73145978 61.71870895 -120 67 C-120.66 67 -121.32 67 -122 67 C-121.28254644 69.46229997 -121.28254644 69.46229997 -120 72 C-119.319375 72.28875 -118.63875 72.5775 -117.9375 72.875 C-116.9784375 73.431875 -116.9784375 73.431875 -116 74 C-115.855625 75.03125 -115.71125 76.0625 -115.5625 77.125 C-114.87084249 81.88975177 -113.1227198 85.33858999 -110 89 C-108.68 89.66 -107.36 90.32 -106 91 C-106.33 95.29 -106.66 99.58 -107 104 C-109.3821875 104.99 -109.3821875 104.99 -111.8125 106 C-113.15248047 106.556875 -113.15248047 106.556875 -114.51953125 107.125 C-117 108 -117 108 -120 108 C-120 109.65 -120 111.3 -120 113 C-119.01 113 -118.02 113 -117 113 C-117.40885256 115.86196789 -117.81619775 117.73961348 -119.5 120.125 C-121.48013711 123.9202628 -121.54856213 127.34255748 -121.7890625 131.57421875 C-122 134 -122 134 -123 136 C-123.039992 137.99960012 -123.04346799 140.00047242 -123 142 C-120.03 143.32 -117.06 144.64 -114 146 C-113.48076923 151.88461538 -113.48076923 151.88461538 -114 155 C-116.625 157.25 -116.625 157.25 -120 159 C-124.2462454 161.97110241 -124.2462454 161.97110241 -126.875 166.3125 C-126.91625 166.869375 -126.9575 167.42625 -127 168 C-126.071875 168.598125 -125.14375 169.19625 -124.1875 169.8125 C-121 172 -121 172 -119.375 173.6875 C-117.67845363 175.30693062 -116.28050956 175.6068087 -114 176 C-113.79375 175.401875 -113.5875 174.80375 -113.375 174.1875 C-111.48896435 171.18698873 -109.17291047 170.45425063 -106 169 C-105.34 168.34 -104.68 167.68 -104 167 C-101.6875 167 -101.6875 167 -99 168 C-96.58191907 170.590801 -94.52065304 173.16091858 -92.65234375 176.171875 C-91.14518133 178.2086227 -91.14518133 178.2086227 -88.73046875 178.43359375 C-87.89128906 178.43488281 -87.05210938 178.43617188 -86.1875 178.4375 C-80.97164891 178.78623423 -78.61336339 180.05050978 -75 184 C-72.28055092 187.81783381 -70.08227747 191.80873523 -68 196 C-66.78183594 195.50628906 -65.56367188 195.01257813 -64.30859375 194.50390625 C-62.68505636 193.85636821 -61.06134937 193.20925528 -59.4375 192.5625 C-58.63763672 192.23701172 -57.83777344 191.91152344 -57.01367188 191.57617188 C-52.29859338 189.70938569 -48.05282937 188.48154481 -43 188 C-43 187.34 -43 186.68 -43 186 C-35.81616024 185.60576489 -30.38886955 185.31370915 -24.1875 189.109375 C-19.45831733 191.03482794 -14.01441565 190.27518135 -9 190 C-10.09145224 187.12165693 -11.12930928 184.81034639 -12.875 182.25 C-14.6696592 179.50522711 -15.47491431 177.63813065 -16.5 174.625 C-18.81516006 169.16195432 -22.94584595 166.99958842 -27.87109375 163.99609375 C-32.35552415 161.1352399 -36.15252677 157.6531564 -40 154 C-39.34 153.67 -38.68 153.34 -38 153 C-38 149.37 -38 145.74 -38 142 C-38.99 141.67 -39.98 141.34 -41 141 C-39.875 139 -39.875 139 -38 137 C-34.8125 136.75 -34.8125 136.75 -32 137 C-32.1546875 135.14375 -32.1546875 135.14375 -32.3125 133.25 C-32.33151722 129.67476315 -32.23993057 129.2525585 -29.625 126.5 C-27 125 -27 125 -25 125 C-25.03480469 124.04738281 -25.06960937 123.09476562 -25.10546875 122.11328125 C-25.13253906 120.85902344 -25.15960938 119.60476562 -25.1875 118.3125 C-25.22230469 117.07113281 -25.25710937 115.82976562 -25.29296875 114.55078125 C-24.98245941 110.78740803 -24.38339252 108.90562771 -22 106 C-21.01 106 -20.02 106 -19 106 C-19.165 104.783125 -19.33 103.56625 -19.5 102.3125 C-19.5078125 100.1015625 -19.5078125 100.1015625 -19 98 C-16.65333273 95.70003257 -13.95269396 94.39388436 -11 93 C-9.906875 92.443125 -8.81375 91.88625 -7.6875 91.3125 C-6.800625 90.879375 -5.91375 90.44625 -5 90 C-4.01 89.34 -3.02 88.68 -2 88 C2.3204764 87.0016077 5.79638892 87.35043211 9.70703125 89.4609375 C12.85907255 91.64844493 15.87107055 93.84560598 18.55859375 96.59375 C20.15198156 98.1482747 21.73838508 99.12100316 23.6875 100.1875 C24.780625 100.785625 25.87375 101.38375 27 102 C27.28875 101.38125 27.5775 100.7625 27.875 100.125 C29 98 29 98 31 96 C31.20542085 93.72810567 31.20542085 93.72810567 31.0625 91.1875 C30.9852098 87.62699815 31.07515047 84.46818572 32 81 C30.741875 80.896875 29.48375 80.79375 28.1875 80.6875 C25.67263702 80.48136369 24.35458302 80.27134757 22.3359375 78.7265625 C20.81882941 76.76585555 20.21215898 75.03581177 19.4375 72.6875 C17.3103773 67.57742009 14.14850204 65.76208676 9.33984375 63.2890625 C5.64742918 61.25484412 3.4863605 58.97343896 2 55 C2.0234375 52.640625 2.0234375 52.640625 2.375 50.25 C2.48585937 49.45078125 2.59671875 48.6515625 2.7109375 47.828125 C2.80632812 47.22484375 2.90171875 46.6215625 3 46 C2.01 45.34 1.02 44.68 0 44 C-0.35423924 40.67387994 -0.43639539 37.45623957 -0.43945312 34.1171875 C-0.57855182 28.9561463 -1.75623629 26.19270414 -5 22 C-6.90545235 18.1890953 -7.19750769 15.24641524 -7 11 C-6.34 11 -5.68 11 -5 11 C-4.67 9.02 -4.34 7.04 -4 5 C-3.01 5 -2.02 5 -1 5 C-0.67 3.35 -0.34 1.7 0 0 Z " fill="#433F40" transform="translate(201,103)"/>
<path d="M0 0 C4.13945236 2.78616986 5.26205897 5.48135332 7 10 C10.0481622 13.77830338 12.29819436 14.5700499 17.0625 15.125 C22.71450151 15.80966767 22.71450151 15.80966767 26 18 C29.0042707 18.36927046 29.0042707 18.36927046 32.41796875 18.4140625 C33.67158203 18.45273437 34.92519531 18.49140625 36.21679688 18.53125 C37.52712891 18.5621875 38.83746094 18.593125 40.1875 18.625 C41.5228116 18.66319338 42.85809892 18.70224591 44.19335938 18.7421875 C47.46209888 18.83659153 50.73083064 18.92217017 54 19 C54 21.64 54 24.28 54 27 C55.7634375 27.433125 55.7634375 27.433125 57.5625 27.875 C61.4018927 28.83313721 65.2013318 29.89205511 69 31 C69.495 33.97 69.495 33.97 70 37 C70.28875 36.030625 70.5775 35.06125 70.875 34.0625 C72 31 72 31 74 30 C74.65772428 26.97065509 74.65772428 26.97065509 75 24 C78.46941546 24.45822468 81.67395049 24.89131683 85 26 C86.45891822 25.99453589 87.91797964 25.94959149 89.375 25.875 C93.47017457 25.82190211 95.65336717 26.5139299 99 29 C102.86580143 31.68277304 106.78718921 31.01924124 111.25 30.625 C111.99507812 30.56828125 112.74015625 30.5115625 113.5078125 30.453125 C115.33935108 30.31223742 117.16981352 30.15748116 119 30 C118.67 30.66 118.34 31.32 118 32 C115.25048307 32.22212255 112.50134388 32.42815588 109.75 32.625 C108.97269531 32.68945312 108.19539062 32.75390625 107.39453125 32.8203125 C100.27568856 33.30707097 100.27568856 33.30707097 97 31 C97 30.34 97 29.68 97 29 C95.41870971 28.77668801 93.83478911 28.57195356 92.25 28.375 C91.36828125 28.25898437 90.4865625 28.14296875 89.578125 28.0234375 C86.63901487 27.80105428 86.63901487 27.80105428 83 30 C85.97 30.33 88.94 30.66 92 31 C92 31.33 92 31.66 92 32 C90.20841511 32.02696365 88.41671527 32.04637917 86.625 32.0625 C85.12839844 32.07990234 85.12839844 32.07990234 83.6015625 32.09765625 C81 32 81 32 79 31 C79 32.65 79 34.3 79 36 C77.68 36.33 76.36 36.66 75 37 C74.67 38.65 74.34 40.3 74 42 C71.125 42.125 71.125 42.125 68 42 C66 40 66 40 65.875 36.875 C65.91625 35.92625 65.9575 34.9775 66 34 C65.195625 34.0825 64.39125 34.165 63.5625 34.25 C59.001353 33.92991951 54.64554703 32.87038861 51 30 C50.23828125 26.8515625 50.23828125 26.8515625 50 24 C49.30962646 24.05124023 48.61925293 24.10248047 47.90795898 24.15527344 C44.75226841 24.37646547 41.59542227 24.56348693 38.4375 24.75 C36.80844727 24.87181641 36.80844727 24.87181641 35.14648438 24.99609375 C28.23999595 25.37395634 24.71311019 24.84745667 19 21 C16.1361463 20.33577324 16.1361463 20.33577324 13.375 20.125 C9.55913485 19.5431854 7.4008068 19.05088189 4.875 16.0625 C3 13 3 13 2 10 C0.32153312 8.32703144 0.32153312 8.32703144 -1.75 6.8125 C-2.76320313 6.01779297 -2.76320313 6.01779297 -3.796875 5.20703125 C-6.39119722 3.78567386 -8.08558073 3.77071876 -11 4 C-11.7945261 6.18646304 -12.5854858 8.37422221 -13.375 10.5625 C-13.81585938 11.78066406 -14.25671875 12.99882812 -14.7109375 14.25390625 C-15.9372554 17.81766039 -16.99981127 21.36847363 -18 25 C-18.66 25 -19.32 25 -20 25 C-19.86649918 33.27705101 -16.97055388 37.55533578 -12 44 C-10.24095254 47.51809492 -10.6299413 51.78106285 -10.48242188 55.67773438 C-10.39096924 57.4567469 -10.20268004 59.23020624 -10 61 C-9.34 61.33 -8.68 61.66 -8 62 C-8.99 62 -9.98 62 -11 62 C-10.85997559 62.62946533 -10.71995117 63.25893066 -10.57568359 63.9074707 C-8.74051656 72.89914013 -8.64808696 81.73032053 -8.609375 90.88085938 C-8.43896278 99.60501844 -7.342499 105.10410712 -1.640625 111.75 C-0.85171875 112.4925 -0.0628125 113.235 0.75 114 C1.94882812 115.1446875 1.94882812 115.1446875 3.171875 116.3125 C3.77515625 116.869375 4.3784375 117.42625 5 118 C4.67 118.66 4.34 119.32 4 120 C2.04213642 118.20605058 0.11094615 116.39276883 -1.8125 114.5625 C-2.35970703 114.06556641 -2.90691406 113.56863281 -3.47070312 113.05664062 C-8.48202372 108.22754987 -10.69751888 103.2660268 -11.19116211 96.30395508 C-11.22346127 93.40429196 -11.16435168 90.52296848 -11.0625 87.625 C-10.44128324 74.22743264 -10.44128324 74.22743264 -15 62 C-15.17307524 59.60815698 -15.26680736 57.21016141 -15.3125 54.8125 C-15.58719161 48.16844615 -17.00945807 44.23178608 -21 39 C-21.80758546 37.64625898 -22.57941029 36.27048863 -23.3125 34.875 C-23.63863281 34.27429687 -23.96476562 33.67359375 -24.30078125 33.0546875 C-26.1369264 27.65908778 -24.58868463 23.19872714 -22.625 18.0625 C-21.26679183 14.47635388 -20.00834355 11.03369511 -19.0859375 7.30859375 C-16.03202365 -1.99595673 -8.5341015 -1.17154529 0 0 Z " fill="#656163" transform="translate(25,5)"/>
<path d="M0 0 C1.65 0 3.3 0 5 0 C4.01 0.66 3.02 1.32 2 2 C1.41651248 4.6556728 1.41651248 4.6556728 1.3125 7.625 C1.24675781 8.62789062 1.18101562 9.63078125 1.11328125 10.6640625 C1.07589844 11.43492188 1.03851563 12.20578125 1 13 C0.01 13.33 -0.98 13.66 -2 14 C-0.77177662 19.8706679 -0.77177662 19.8706679 2.7578125 24.48828125 C4.87567532 25.70869103 4.87567532 25.70869103 8 27 C7.25 31.75 7.25 31.75 5 34 C5.21413291 38.20230628 5.21413291 38.20230628 7.5625 41.5 C9 43 9 43 9.25 46.125 C9 49 9 49 8 50 C7.49968794 53.41571853 7.49968794 53.41571853 8 57 C10.18611952 58.84453835 12.28023367 59.75342658 14.97265625 60.67578125 C17.3048023 61.59556221 19.05423708 62.40199045 21 64 C22.0859375 66.6328125 22.0859375 66.6328125 22.9375 69.625 C23.7102402 72.54615941 23.7102402 72.54615941 25 75 C27.35440875 76.14432157 29.17837039 76.4204272 31.78125 76.55859375 C34.94331264 77.18766607 36.07513693 78.4535219 38 81 C39.48817921 88.09194369 38.19592011 94.09451655 34.28515625 100.0859375 C33.86105469 100.71757812 33.43695313 101.34921875 33 102 C32.54625 103.010625 32.0925 104.02125 31.625 105.0625 C30 107 30 107 26.625 107.5 C21.56609097 106.80221944 19.15776425 105.18823173 15.625 101.5625 C11.36053363 97.39956855 8.21683164 95 2.125 95 C0.73901776 95.28423464 -0.63671684 95.62158868 -2 96 C-2.804375 96.20496094 -3.60875 96.40992188 -4.4375 96.62109375 C-7.02651539 97.48824794 -8.88224096 98.26728806 -11 100 C-12.02564308 102.63432807 -12.42094552 104.9478933 -12.68359375 107.7578125 C-13 110 -13 110 -15 112 C-17.625 112.625 -17.625 112.625 -20 113 C-20 112.34 -20 111.68 -20 111 C-18.824375 110.505 -18.824375 110.505 -17.625 110 C-13.95674444 107.20513862 -13.94971651 104.4940536 -13.26171875 100.08203125 C-13.17535156 99.39496094 -13.08898437 98.70789063 -13 98 C-9.535 97.01 -9.535 97.01 -6 96 C-6 95.34 -6 94.68 -6 94 C-7.65 94 -9.3 94 -11 94 C-9.515 93.01 -9.515 93.01 -8 92 C-6.700625 90.948125 -6.700625 90.948125 -5.375 89.875 C-1.01091899 87.45051055 2.12112711 86.81535355 7 88 C11.2675584 90.32551008 15.15484419 93.11322413 18.55859375 96.59375 C20.15198156 98.1482747 21.73838508 99.12100316 23.6875 100.1875 C24.780625 100.785625 25.87375 101.38375 27 102 C27.28875 101.38125 27.5775 100.7625 27.875 100.125 C29 98 29 98 31 96 C31.20542085 93.72810567 31.20542085 93.72810567 31.0625 91.1875 C30.9852098 87.62699815 31.07515047 84.46818572 32 81 C30.741875 80.896875 29.48375 80.79375 28.1875 80.6875 C25.67263702 80.48136369 24.35458302 80.27134757 22.3359375 78.7265625 C20.81882941 76.76585555 20.21215898 75.03581177 19.4375 72.6875 C17.3103773 67.57742009 14.14850204 65.76208676 9.33984375 63.2890625 C5.64742918 61.25484412 3.4863605 58.97343896 2 55 C2.0234375 52.640625 2.0234375 52.640625 2.375 50.25 C2.48585937 49.45078125 2.59671875 48.6515625 2.7109375 47.828125 C2.80632812 47.22484375 2.90171875 46.6215625 3 46 C2.01 45.34 1.02 44.68 0 44 C-0.35423924 40.67387994 -0.43639539 37.45623957 -0.43945312 34.1171875 C-0.57855182 28.9561463 -1.75623629 26.19270414 -5 22 C-6.90545235 18.1890953 -7.19750769 15.24641524 -7 11 C-6.34 11 -5.68 11 -5 11 C-4.67 9.02 -4.34 7.04 -4 5 C-3.01 5 -2.02 5 -1 5 C-0.67 3.35 -0.34 1.7 0 0 Z " fill="#5C4D51" transform="translate(201,103)"/>
<path d="M0 0 C3.94745049 1.57531667 6.23727309 4.13074496 9.0625 7.25 C9.91972656 8.18328125 10.77695312 9.1165625 11.66015625 10.078125 C14 13 14 13 15.43359375 16.171875 C17.48499614 19.87565387 19.00724172 20.64605429 23 22 C26.8706033 22.43273826 30.74067201 22.38887845 34.63085938 22.3515625 C36.85103683 22.39585532 38.84149157 22.47487977 41 23 C43.22310608 25.62929245 43.91660764 27.74982291 45 31 C45.66 31 46.32 31 47 31 C50.4887612 35.29385993 50.26854022 38.71870895 50 44 C49.34 44 48.68 44 48 44 C48.71745356 46.46229997 48.71745356 46.46229997 50 49 C51.0209375 49.433125 51.0209375 49.433125 52.0625 49.875 C52.701875 50.24625 53.34125 50.6175 54 51 C54.144375 52.03125 54.28875 53.0625 54.4375 54.125 C55.12915751 58.88975177 56.8772802 62.33858999 60 66 C61.32 66.66 62.64 67.32 64 68 C63.67 72.29 63.34 76.58 63 81 C60.6178125 81.99 60.6178125 81.99 58.1875 83 C56.84751953 83.556875 56.84751953 83.556875 55.48046875 84.125 C53 85 53 85 50 85 C50 86.65 50 88.3 50 90 C50.99 90 51.98 90 53 90 C52.59114744 92.86196789 52.18380225 94.73961348 50.5 97.125 C48.53008078 100.90067851 48.49898193 104.26494521 48.30859375 108.4765625 C48 111 48 111 46 114 C45.60986284 115.9896995 45.26797351 117.99019869 45 120 C44.34 120 43.68 120 43 120 C41.50178941 116.62902617 41 114.79557881 41 111 C41.66 110.67 42.32 110.34 43 110 C43.35872093 107.25283336 43.44405709 104.5290723 43.55859375 101.76171875 C44.05387866 98.6629008 45.0050905 97.36184882 47 95 C47.70514846 92.85266073 47.70514846 92.85266073 48 91 C47.01 91 46.02 91 45 91 C44.66967569 87.44901372 44.7431323 85.4602213 46.5 82.3125 C49.80031821 79.25970565 52.72856068 78.35262245 57 77 C57.41870553 74.66928121 57.41870553 74.66928121 57 72 C56.25492188 71.47019531 55.50984375 70.94039063 54.7421875 70.39453125 C50.99088542 67.1188216 49.66528735 63.48459409 47.8125 58.9375 C47.13380604 57.32064905 46.45290264 55.70472332 45.76953125 54.08984375 C45.47667236 53.37691162 45.18381348 52.66397949 44.88208008 51.92944336 C43.94628197 49.74767999 43.94628197 49.74767999 42 47 C41.92094936 44.66800612 41.91201231 42.33167378 42 40 C42.66 39.67 43.32 39.34 44 39 C43.71125 38.34 43.4225 37.68 43.125 37 C42.21012074 34.56032196 41.54102545 32.27300865 40.9375 29.75 C40.39837692 26.22687834 40.39837692 26.22687834 39 25 C35.47739748 24.76188416 31.96170798 24.60438872 28.43359375 24.48242188 C23.1078622 24.23867078 19.04762279 23.69660174 14.8125 20.1875 C13 18 13 18 12.1875 15.6875 C10.67163343 12.2568546 8.44438724 10.34254296 5.75390625 7.78125 C3.39934431 5.38997997 1.74317826 2.85881235 0 0 Z " fill="#302D2E" transform="translate(31,126)"/>
<path d="M0 0 C9.83252589 0.88490172 15.95868998 2.61949 23.625 9.10546875 C26.06266832 11.18927215 26.06266832 11.18927215 29.5625 12.75 C32 14 32 14 32.875 16.1875 C32.91625 16.785625 32.9575 17.38375 33 18 C32.01 18.33 31.02 18.66 30 19 C30 20.32 30 21.64 30 23 C19.53752884 23.48350316 10.84636515 23.02585373 1 19 C0 18 0 18 -0.11352539 16.23413086 C-0.10828857 15.48526611 -0.10305176 14.73640137 -0.09765625 13.96484375 C-0.09443359 13.15595703 -0.09121094 12.34707031 -0.08789062 11.51367188 C-0.07951172 10.66353516 -0.07113281 9.81339844 -0.0625 8.9375 C-0.05798828 8.08349609 -0.05347656 7.22949219 -0.04882812 6.34960938 C-0.03700373 4.23304337 -0.01906769 2.11651315 0 0 Z " fill="#ECE8E9" transform="translate(94,129)"/>
<path d="M0 0 C0.33 0.99 0.66 1.98 1 3 C1.78375 3.0825 2.5675 3.165 3.375 3.25 C6 4 6 4 7.3125 6.0625 C7.539375 6.701875 7.76625 7.34125 8 8 C10.6905528 6.77992056 10.6905528 6.77992056 13 5 C18.03609535 4.23178207 18.03609535 4.23178207 21 5 C22.88639219 6.83835906 24.19966438 8.76865643 25.63671875 10.97265625 C27.38974071 13.57958575 29.46755108 15.16397453 32 17 C36.08211122 20.06158341 39.07387981 23.24070743 42.25 27.25 C45.33265715 31.13456458 48.46953789 34.41835803 52.25 37.625 C58.42375901 42.98389952 61.88151888 49.10384309 64 57 C64 57.66 64 58.32 64 59 C62.68 58.67 61.36 58.34 60 58 C59.67 59.65 59.34 61.3 59 63 C58.67 63 58.34 63 58 63 C57.85304687 62.31035156 57.70609375 61.62070313 57.5546875 60.91015625 C55.23078094 51.1737891 50.99166815 44.62230213 43.765625 37.8046875 C41.87252461 35.86970436 40.38280203 33.82799653 38.8125 31.625 C35.16298684 26.77280636 30.67898121 23.50290203 25.76953125 20.04296875 C22.62181293 17.72102702 19.76881362 15.53762724 18 12 C17.484375 12.33 16.96875 12.66 16.4375 13 C13.0487905 14.39023979 10.6451172 14.37068988 7 14 C4.46590696 12.86606731 2.33797689 11.52684205 0 10 C0 9.34 0 8.68 0 8 C0.66 8 1.32 8 2 8 C2 7.01 2 6.02 2 5 C1.34 5 0.68 5 0 5 C0 3.35 0 1.7 0 0 Z " fill="#484545" transform="translate(144,37)"/>
<path d="M0 0 C5.24833037 0.52483304 10.0580465 2.2538431 15 4 C15 3.34 15 2.68 15 2 C22.26 2 29.52 2 37 2 C37 4.64 37 7.28 37 10 C38.175625 10.28875 39.35125 10.5775 40.5625 10.875 C44.4018927 11.83313721 48.2013318 12.89205511 52 14 C52.495 16.97 52.495 16.97 53 20 C53.28875 19.030625 53.5775 18.06125 53.875 17.0625 C55 14 55 14 57 13 C57.65772428 9.97065509 57.65772428 9.97065509 58 7 C61.46941546 7.45822468 64.67395049 7.89131683 68 9 C69.45891822 8.99453589 70.91797964 8.94959149 72.375 8.875 C76.47017457 8.82190211 78.65336717 9.5139299 82 12 C85.86580143 14.68277304 89.78718921 14.01924124 94.25 13.625 C94.99507813 13.56828125 95.74015625 13.5115625 96.5078125 13.453125 C98.33935108 13.31223742 100.16981352 13.15748116 102 13 C101.67 13.66 101.34 14.32 101 15 C98.25048307 15.22212255 95.50134388 15.42815588 92.75 15.625 C91.97269531 15.68945312 91.19539063 15.75390625 90.39453125 15.8203125 C83.27568856 16.30707097 83.27568856 16.30707097 80 14 C80 13.34 80 12.68 80 12 C78.41870971 11.77668801 76.83478911 11.57195356 75.25 11.375 C74.36828125 11.25898437 73.4865625 11.14296875 72.578125 11.0234375 C69.63901487 10.80105428 69.63901487 10.80105428 66 13 C68.97 13.33 71.94 13.66 75 14 C75 14.33 75 14.66 75 15 C73.20841511 15.02696365 71.41671527 15.04637917 69.625 15.0625 C68.62726563 15.07410156 67.62953125 15.08570313 66.6015625 15.09765625 C64 15 64 15 62 14 C62 15.65 62 17.3 62 19 C60.68 19.33 59.36 19.66 58 20 C57.505 22.475 57.505 22.475 57 25 C54.125 25.125 54.125 25.125 51 25 C49 23 49 23 48.875 19.875 C48.91625 18.92625 48.9575 17.9775 49 17 C47.7934375 17.12375 47.7934375 17.12375 46.5625 17.25 C42.001353 16.92991951 37.64554703 15.87038861 34 13 C33.23828125 9.8515625 33.23828125 9.8515625 33 7 C32.30962646 7.05124023 31.61925293 7.10248047 30.90795898 7.15527344 C27.75226841 7.37646547 24.59542227 7.56348693 21.4375 7.75 C20.35146484 7.83121094 19.26542969 7.91242187 18.14648438 7.99609375 C11.41703605 8.36427025 7.47166221 8.0507571 2 4 C2 3.34 2 2.68 2 2 C1.01 1.67 0.02 1.34 -1 1 C-0.67 0.67 -0.34 0.34 0 0 Z " fill="#4A4747" transform="translate(42,22)"/>
<path d="M0 0 C1.65 0 3.3 0 5 0 C4.01 0.66 3.02 1.32 2 2 C1.41651248 4.6556728 1.41651248 4.6556728 1.3125 7.625 C1.24675781 8.62789062 1.18101562 9.63078125 1.11328125 10.6640625 C1.07589844 11.43492188 1.03851563 12.20578125 1 13 C0.01 13.33 -0.98 13.66 -2 14 C-0.77177662 19.8706679 -0.77177662 19.8706679 2.7578125 24.48828125 C4.87567532 25.70869103 4.87567532 25.70869103 8 27 C7.25 31.75 7.25 31.75 5 34 C5.21413291 38.20230628 5.21413291 38.20230628 7.5625 41.5 C9 43 9 43 9.25 46.125 C9 49 9 49 8 50 C7.49968794 53.41571853 7.49968794 53.41571853 8 57 C10.10960374 58.70208018 10.10960374 58.70208018 13 60 C18.64726019 63.73122549 21.08193247 67.55136009 23.2734375 73.92578125 C23.8189084 75.96343803 23.8189084 75.96343803 25 77 C26.51165654 77.39148761 28.03469632 77.73972457 29.5625 78.0625 C30.38878906 78.23910156 31.21507812 78.41570312 32.06640625 78.59765625 C32.70449219 78.73042969 33.34257812 78.86320312 34 79 C33.505 80.98 33.505 80.98 33 83 C33 82.34 33 81.68 33 81 C32.38511719 80.96261719 31.77023438 80.92523438 31.13671875 80.88671875 C30.32847656 80.82097656 29.52023438 80.75523437 28.6875 80.6875 C27.88699219 80.62949219 27.08648437 80.57148438 26.26171875 80.51171875 C23.54466441 79.89697934 22.66789251 79.20721105 21 77 C20.4344973 75.57947886 19.91647867 74.13948245 19.4375 72.6875 C17.3103773 67.57742009 14.14850204 65.76208676 9.33984375 63.2890625 C5.64742918 61.25484412 3.4863605 58.97343896 2 55 C2.0234375 52.640625 2.0234375 52.640625 2.375 50.25 C2.48585937 49.45078125 2.59671875 48.6515625 2.7109375 47.828125 C2.80632812 47.22484375 2.90171875 46.6215625 3 46 C2.01 45.34 1.02 44.68 0 44 C-0.35423924 40.67387994 -0.43639539 37.45623957 -0.43945312 34.1171875 C-0.57855182 28.9561463 -1.75623629 26.19270414 -5 22 C-6.90545235 18.1890953 -7.19750769 15.24641524 -7 11 C-6.34 11 -5.68 11 -5 11 C-4.67 9.02 -4.34 7.04 -4 5 C-3.01 5 -2.02 5 -1 5 C-0.67 3.35 -0.34 1.7 0 0 Z " fill="#423C3E" transform="translate(201,103)"/>
<path d="M0 0 C1.32 0 2.64 0 4 0 C6.18331238 9.51128073 6.0986641 18.52995948 5.74609375 28.23632812 C5.58995946 36.3782721 6.16458063 41.83548437 11.77832031 47.9309082 C13.86060328 49.96045279 16.00488629 51.89147739 18.1875 53.8125 C24.07675632 59.15808465 29.3963974 64.44073007 34.23828125 70.765625 C35.98149679 73.07661367 35.98149679 73.07661367 38.23046875 75.171875 C40 77 40 77 40 79 C45.94 79 51.88 79 58 79 C58 79.33 58 79.66 58 80 C54.60616308 80.28509844 51.21060061 80.52181945 47.8125 80.75 C46.85279297 80.83121094 45.89308594 80.91242188 44.90429688 80.99609375 C37.81285893 81.43777501 37.81285893 81.43777501 34.01171875 79.390625 C31.7817647 76.74066018 30.50087236 74.11509186 29 71 C27.39960784 69.00740647 25.72963917 67.06899737 24 65.1875 C23.13375 64.23230469 22.2675 63.27710938 21.375 62.29296875 C19.14280674 59.80791946 19.14280674 59.80791946 16 59 C15.608125 58.319375 15.21625 57.63875 14.8125 56.9375 C12.64639542 53.42691672 9.9819425 51.01395552 6.9375 48.2578125 C1.03428756 41.37866575 1.50266862 33.93146619 1.375 25.25 C1.32324775 22.81764411 1.26859796 20.385348 1.2109375 17.953125 C1.18354492 16.78716797 1.15615234 15.62121094 1.12792969 14.41992188 C0.94733825 9.59220255 0.51810745 4.80203148 0 0 Z " fill="#393535" transform="translate(14,67)"/>
<path d="M0 0 C2.76276177 0.52268466 5.3260876 1.10869587 8 2 C8.99 3.485 8.99 3.485 10 5 C12.96143676 6.58000853 15.99386503 7.92844546 19.0546875 9.3046875 C24.31473629 12.33235484 26.52234328 16.70446276 29.0625 22.0625 C31.0674061 26.28342073 31.0674061 26.28342073 33.65625 30.1484375 C35.79530312 33.09585372 35.44701261 35.48775808 35 39 C32.00133718 42.21285302 28.70946517 42.93524753 24.421875 43.09765625 C23.54015625 43.08605469 22.6584375 43.07445312 21.75 43.0625 C20.85796875 43.05347656 19.9659375 43.04445313 19.046875 43.03515625 C18.37140625 43.02355469 17.6959375 43.01195312 17 43 C16.505 40.525 16.505 40.525 16 38 C20.95 37.67 25.9 37.34 31 37 C29.29958862 32.22650759 29.29958862 32.22650759 27.125 29.25 C25.3303408 26.50522711 24.52508569 24.63813065 23.5 21.625 C21.18456091 16.1612959 17.0517914 14.00028174 12.12890625 10.9921875 C7.66296058 8.14870149 3.71864721 4.76559983 0 1 C0 0.67 0 0.34 0 0 Z " fill="#373233" transform="translate(161,256)"/>
<path d="M0 0 C0.99 0 1.98 0 3 0 C2.45276317 3.37462715 1.9451 5.08235 0 8 C-0.45772063 10.73872955 -0.45772063 10.73872955 -0.625 13.6875 C-0.69976562 14.68136719 -0.77453125 15.67523438 -0.8515625 16.69921875 C-0.90054688 17.45847656 -0.94953125 18.21773437 -1 19 C-1.99 19.33 -2.98 19.66 -4 20 C-3.34 22.97 -2.68 25.94 -2 29 C-1.34 29 -0.68 29 0 29 C0 27.02 0 25.04 0 23 C0.33 23 0.66 23 1 23 C0.979375 23.7425 0.95875 24.485 0.9375 25.25 C1.72134074 28.12394327 1.72134074 28.12394327 4.0703125 29.22265625 C6.3588977 30.22346389 8.65126015 31.15065771 11 32 C11 34.97 11 37.94 11 41 C7.62902617 42.49821059 5.79557881 43 2 43 C-0.16587559 44.14104173 -0.16587559 44.14104173 -2.1875 45.75 C-2.88230469 46.26046875 -3.57710938 46.7709375 -4.29296875 47.296875 C-6.24017244 49.23962285 -6.87074771 50.25338891 -7 53 C-5.9636167 54.71760457 -5.9636167 54.71760457 -4.3125 56.125 C-3.755625 56.64191406 -3.19875 57.15882813 -2.625 57.69140625 C-0.99710705 59.10228868 -0.99710705 59.10228868 1.1875 60.0625 C3.80704179 61.41743541 4.65651276 63.44737424 6 66 C9.69900008 65.11223998 13.34550461 64.05418136 17 63 C14.94704566 66.07943151 14.34265205 66.79293121 11 68 C8.0625 68.5 8.0625 68.5 5 68 C2.625 65.4375 2.625 65.4375 1.4296875 63.796875 C-1.26236489 60.41342117 -4.71381674 57.78711337 -8 55 C-9 54 -9 54 -9.4375 51.25 C-9 48 -9 48 -6.4375 45.5 C-5.29462263 44.6626173 -4.14852072 43.8296256 -3 43 C-1.69904995 41.90678649 -0.40723746 40.80260264 0.875 39.6875 C1.47054687 39.17574219 2.06609375 38.66398437 2.6796875 38.13671875 C3.11539063 37.76160156 3.55109375 37.38648438 4 37 C2.31397493 34.42659331 1.05007057 33.02980391 -1.625 31.4375 C-4 30 -4 30 -5 27 C-5.06802967 25.27204648 -5.08495645 23.54164635 -5.0625 21.8125 C-5.05347656 20.91144531 -5.04445313 20.01039063 -5.03515625 19.08203125 C-5.02355469 18.39496094 -5.01195313 17.70789063 -5 17 C-4.34 16.67 -3.68 16.34 -3 16 C-2.60637942 13.81106927 -2.60637942 13.81106927 -2.5 11.25 C-2.20185655 7.46086784 -1.67354503 4.45865973 0 1 C0 0.67 0 0.34 0 0 Z " fill="#2F2C2D" transform="translate(76,217)"/>
<path d="M0 0 C2.475 0.495 2.475 0.495 5 1 C4.67 5.29 4.34 9.58 4 14 C1.6178125 14.99 1.6178125 14.99 -0.8125 16 C-1.70582031 16.37125 -2.59914063 16.7425 -3.51953125 17.125 C-6 18 -6 18 -9 18 C-9 19.65 -9 21.3 -9 23 C-8.01 23 -7.02 23 -6 23 C-6.40885256 25.86196789 -6.81619775 27.73961348 -8.5 30.125 C-10.46991922 33.90067851 -10.50101807 37.26494521 -10.69140625 41.4765625 C-11 44 -11 44 -13 47 C-13.39013716 48.9896995 -13.73202649 50.99019869 -14 53 C-14.66 53 -15.32 53 -16 53 C-17.49821059 49.62902617 -18 47.79557881 -18 44 C-17.01 43.505 -17.01 43.505 -16 43 C-15.64127907 40.25283336 -15.55594291 37.5290723 -15.44140625 34.76171875 C-14.94612134 31.6629008 -13.9949095 30.36184882 -12 28 C-11.29485154 25.85266073 -11.29485154 25.85266073 -11 24 C-11.99 24 -12.98 24 -14 24 C-14 22.68 -14 21.36 -14 20 C-13.34 20 -12.68 20 -12 20 C-11.855625 19.2575 -11.71125 18.515 -11.5625 17.75 C-9.1147387 13.44194011 -5.55113586 12.75543812 -1 11 C-0.67 7.37 -0.34 3.74 0 0 Z " fill="#40393B" transform="translate(90,193)"/>
<path d="M0 0 C0.99 0.33 1.98 0.66 3 1 C1.86963155 3.87730152 0.92459864 5.05884984 -1.5625 7 C-4.08066518 9.06618681 -4.6619668 9.84502343 -5 13 C-4.071875 13.598125 -3.14375 14.19625 -2.1875 14.8125 C1 17 1 17 2.625 18.6875 C4.32154637 20.30693062 5.71949044 20.6068087 8 21 C8.309375 20.1028125 8.309375 20.1028125 8.625 19.1875 C10.51103565 16.18698873 12.82708953 15.45425063 16 14 C16.66 13.34 17.32 12.68 18 12 C20.625 12.375 20.625 12.375 23 13 C23.495 14.98 23.495 14.98 24 17 C22.35 17 20.7 17 19 17 C19 17.66 19 18.32 19 19 C16.67437345 20.3488634 14.34216539 21.6804702 12 23 C10.948125 23.598125 9.89625 24.19625 8.8125 24.8125 C6 26 6 26 3.8125 26 C1.24812218 24.58517086 0.48442648 22.49383649 -1 20 C-2.66279327 18.9935725 -4.32983484 17.99414593 -6 17 C-7.80982243 15.08661825 -9.37966124 13.08329269 -11 11 C-8.66484966 6.03780553 -4.79965224 2.57400705 0 0 Z " fill="#302D2E" transform="translate(79,258)"/>
<path d="M0 0 C1.65 0 3.3 0 5 0 C4.01 0.66 3.02 1.32 2 2 C1.41651248 4.6556728 1.41651248 4.6556728 1.3125 7.625 C1.24675781 8.62789062 1.18101562 9.63078125 1.11328125 10.6640625 C1.07589844 11.43492188 1.03851563 12.20578125 1 13 C0.01 13.33 -0.98 13.66 -2 14 C-0.77177662 19.8706679 -0.77177662 19.8706679 2.7578125 24.48828125 C4.87567532 25.70869103 4.87567532 25.70869103 8 27 C7.67 28.65 7.34 30.3 7 32 C5.35 32 3.7 32 2 32 C1.67 35.96 1.34 39.92 1 44 C0.67 44 0.34 44 0 44 C-0.02578125 42.91460937 -0.0515625 41.82921875 -0.078125 40.7109375 C-0.13443738 39.26558651 -0.191784 37.82027556 -0.25 36.375 C-0.26417969 35.66214844 -0.27835938 34.94929688 -0.29296875 34.21484375 C-0.52951885 29.05805167 -1.77166122 26.18442372 -5 22 C-6.90545235 18.1890953 -7.19750769 15.24641524 -7 11 C-6.34 11 -5.68 11 -5 11 C-4.67 9.02 -4.34 7.04 -4 5 C-3.01 5 -2.02 5 -1 5 C-0.67 3.35 -0.34 1.7 0 0 Z " fill="#4C4446" transform="translate(201,103)"/>
<path d="M0 0 C0.33 0.99 0.66 1.98 1 3 C1.78375 3.0825 2.5675 3.165 3.375 3.25 C6 4 6 4 7.3125 6.0625 C7.539375 6.701875 7.76625 7.34125 8 8 C10.6905528 6.77992056 10.6905528 6.77992056 13 5 C15.67058851 4.85884839 18.32432238 4.95752893 21 5 C21.061875 5.70125 21.12375 6.4025 21.1875 7.125 C21.99378423 9.97800572 22.67501404 11.01742433 24.5625 13.1875 C27 16 27 16 27 18 C24.1875 17.8125 24.1875 17.8125 21 17 C19.125 14.4375 19.125 14.4375 18 12 C17.484375 12.33 16.96875 12.66 16.4375 13 C13.0487905 14.39023979 10.6451172 14.37068988 7 14 C4.46590696 12.86606731 2.33797689 11.52684205 0 10 C0 9.34 0 8.68 0 8 C0.66 8 1.32 8 2 8 C2 7.01 2 6.02 2 5 C1.34 5 0.68 5 0 5 C0 3.35 0 1.7 0 0 Z " fill="#464041" transform="translate(144,37)"/>
<path d="M0 0 C0 0.66 0 1.32 0 2 C-2.64738916 3.4606285 -3.89448334 4 -7 4 C-6.87625 5.8253125 -6.87625 5.8253125 -6.75 7.6875 C-6.74403812 11.04403596 -6.99038311 11.98408238 -8.8125 15 C-11 17 -11 17 -14 17 C-14 18.98 -14 20.96 -14 23 C-14.66 23 -15.32 23 -16 23 C-16.33 22.01 -16.66 21.02 -17 20 C-17.33 23.63 -17.66 27.26 -18 31 C-18.33 31 -18.66 31 -19 31 C-19.0814222 28.77144426 -19.13938079 26.54202345 -19.1875 24.3125 C-19.22230469 23.07113281 -19.25710937 21.82976562 -19.29296875 20.55078125 C-18.98245941 16.78740803 -18.38339252 14.90562771 -16 12 C-15.01 12 -14.02 12 -13 12 C-13.12375 10.7625 -13.2475 9.525 -13.375 8.25 C-13.37109375 6.046875 -13.37109375 6.046875 -13 4 C-8.89785368 -0.00209397 -5.59705939 -0.44776475 0 0 Z " fill="#534A4D" transform="translate(195,197)"/>
<path d="M0 0 C3 1 3 1 3.9921875 2.8125 C4.58000247 4.26903268 5.1633524 5.72737541 5.7421875 7.1875 C6.87701898 9.27377074 6.87701898 9.27377074 9.4609375 9.47265625 C12 10 12 10 13.546875 11.99609375 C13.94390625 12.80175781 14.3409375 13.60742188 14.75 14.4375 C15.15734375 15.24058594 15.5646875 16.04367188 15.984375 16.87109375 C16.48710938 17.92490234 16.48710938 17.92490234 17 19 C17.33 19.66 17.66 20.32 18 21 C18.01953125 23.49609375 18.01953125 23.49609375 17.8125 26.4375 C17.75707031 27.40558594 17.70164062 28.37367188 17.64453125 29.37109375 C17 32 17 32 15.14453125 33.7890625 C13 35 13 35 9.875 35.9375 C6.88182911 36.71734447 6.88182911 36.71734447 5.625 39.125 C5.315625 40.053125 5.315625 40.053125 5 41 C4.34 41 3.68 41 3 41 C4.07401108 38.08482708 4.77810176 36.22189824 7 34 C8.9453125 33.1484375 8.9453125 33.1484375 11.125 32.375 C12.21167969 31.98441406 12.21167969 31.98441406 13.3203125 31.5859375 C14.15175781 31.29589844 14.15175781 31.29589844 15 31 C15.41870553 28.66928121 15.41870553 28.66928121 15 26 C14.25492188 25.46890625 13.50984375 24.9378125 12.7421875 24.390625 C9.00151729 21.12952789 7.66772714 17.52776682 5.8125 13 C5.13204277 11.39560744 4.45107052 9.7914332 3.76953125 8.1875 C3.47667236 7.47980469 3.18381348 6.77210938 2.88208008 6.04296875 C1.9942121 3.98659476 1.02006061 1.99364029 0 0 Z " fill="#3B3537" transform="translate(73,172)"/>
<path d="M0 0 C3.46941546 0.45822468 6.67395049 0.89131683 10 2 C11.45891822 1.99453589 12.91797964 1.94959149 14.375 1.875 C18.47017457 1.82190211 20.65336717 2.5139299 24 5 C27.86580143 7.68277304 31.78718921 7.01924124 36.25 6.625 C37.36761719 6.53992187 37.36761719 6.53992187 38.5078125 6.453125 C40.33935108 6.31223742 42.16981352 6.15748116 44 6 C43.67 6.66 43.34 7.32 43 8 C40.25048307 8.22212255 37.50134388 8.42815588 34.75 8.625 C33.97269531 8.68945312 33.19539063 8.75390625 32.39453125 8.8203125 C25.27568856 9.30707097 25.27568856 9.30707097 22 7 C22 6.34 22 5.68 22 5 C20.41870971 4.77668801 18.83478911 4.57195356 17.25 4.375 C16.36828125 4.25898437 15.4865625 4.14296875 14.578125 4.0234375 C11.63901487 3.80105428 11.63901487 3.80105428 8 6 C10.97 6.33 13.94 6.66 17 7 C17 7.33 17 7.66 17 8 C15.20841511 8.02696365 13.41671527 8.04637917 11.625 8.0625 C10.62726563 8.07410156 9.62953125 8.08570313 8.6015625 8.09765625 C6 8 6 8 4 7 C4 8.65 4 10.3 4 12 C3.34 11.67 2.68 11.34 2 11 C2.33 9.35 2.66 7.7 3 6 C2.34 6 1.68 6 1 6 C1 6.66 1 7.32 1 8 C0.01 8.495 0.01 8.495 -1 9 C-1.73075648 11.3140622 -2.40138258 13.64828869 -3 16 C-3.99 15.67 -4.98 15.34 -6 15 C-4.375 8.25 -4.375 8.25 -1 6 C-0.26656572 2.93443402 -0.26656572 2.93443402 0 0 Z " fill="#716B6D" transform="translate(100,29)"/>
<path d="M0 0 C2.75 0.8125 2.75 0.8125 6 3 C6.97265625 5.578125 6.97265625 5.578125 7.8125 8.5625 C8.63814274 11.51687319 8.63814274 11.51687319 10 14 C12.35727812 15.14583835 14.17538095 15.42026851 16.78125 15.55859375 C19.9578617 16.19056051 21.08502071 17.42379468 23 20 C23.4609375 22.91015625 23.4609375 22.91015625 23.375 26.0625 C23.35566406 27.62677734 23.35566406 27.62677734 23.3359375 29.22265625 C23 32 23 32 21 35 C20.01 35 19.02 35 18 35 C17.63355422 33.44033408 17.28239138 31.87707349 16.9375 30.3125 C16.64166016 29.00732422 16.64166016 29.00732422 16.33984375 27.67578125 C15.97368231 24.792786 16.17202092 22.7772784 17 20 C17.66 19.34 18.32 18.68 19 18 C18.38511719 17.96261719 17.77023438 17.92523438 17.13671875 17.88671875 C16.32847656 17.82097656 15.52023438 17.75523437 14.6875 17.6875 C13.88699219 17.62949219 13.08648437 17.57148438 12.26171875 17.51171875 C9.52138305 16.89171188 8.67790239 16.23392283 7 14 C5.88182325 11.46354759 4.98361671 8.8910124 4.0625 6.27734375 C3.09441987 3.68775536 3.09441987 3.68775536 0 2 C0 1.34 0 0.68 0 0 Z " fill="#615F5F" transform="translate(216,164)"/>
<path d="M0 0 C0 0.66 0 1.32 0 2 C3.84841348 3.18031238 7.758279 3.33235351 11.75 3.5625 C12.44738281 3.60568359 13.14476562 3.64886719 13.86328125 3.69335938 C15.57531922 3.79889596 17.28763561 3.8998991 19 4 C19 4.66 19 5.32 19 6 C16.73000175 6.50377768 14.45896997 7.00290019 12.1875 7.5 C10.92292969 7.7784375 9.65835938 8.056875 8.35546875 8.34375 C5 9 5 9 2 9 C1.773125 8.38125 1.54625 7.7625 1.3125 7.125 C-0.47621004 4.22899327 -1.72178232 3.90674106 -5 3 C-7.99302637 2.5630985 -10.98593834 2.24953016 -14 2 C-14 1.01 -14 0.02 -14 -1 C-9.60952754 -2.64642717 -4.14808213 -2.07404106 0 0 Z " fill="#4D3D42" transform="translate(122,34)"/>
<path d="M0 0 C3.71611193 -0.56304726 5.65674674 0.20762402 8.625 2.3125 C10.37998872 3.63469739 11.95248879 4.95085912 13.48046875 6.53125 C15.10997169 8.10629654 16.70363948 9.10199141 18.6875 10.1875 C19.780625 10.785625 20.87375 11.38375 22 12 C22.268125 11.360625 22.53625 10.72125 22.8125 10.0625 C24 8 24 8 27 7 C26.34 9.64 25.68 12.28 25 15 C22.875 15.75 22.875 15.75 20 16 C17.76703078 14.75946155 15.98897555 13.56043749 14 12 C12.66762851 10.99871882 11.33424769 9.9987797 10 9 C9.3296875 8.48953125 8.659375 7.9790625 7.96875 7.453125 C6.1854865 6.1369067 4.37258257 4.93361351 2.5 3.75 C1.675 3.1725 0.85 2.595 0 2 C0 1.34 0 0.68 0 0 Z " fill="#2A2627" transform="translate(206,193)"/>
<path d="M0 0 C1.98 0 3.96 0 6 0 C6 0.66 6 1.32 6 2 C4.68 2.33 3.36 2.66 2 3 C1.04979584 5.239835 1.04979584 5.239835 1 8 C4.01353793 11.88843604 7.74612851 14.18208185 11.8828125 16.6953125 C21.16740666 22.41681517 25.17842452 28.35684903 30 38 C30.66 38.66 31.32 39.32 32 40 C31.625 42.125 31.625 42.125 31 44 C27.74245442 39.78435278 25.44966762 35.8268037 23.3125 30.9375 C20.18398787 24.45353703 16.3281521 22.03871646 10 19 C7.19140625 17.47265625 7.19140625 17.47265625 5 16 C5 15.34 5 14.68 5 14 C4.071875 13.8453125 4.071875 13.8453125 3.125 13.6875 C1 13 1 13 -1 10 C-1.19850603 6.29455413 -1.17664871 3.52994613 0 0 Z " fill="#A4A3A3" transform="translate(164,244)"/>
<path d="M0 0 C2.4375 0.75 2.4375 0.75 5 2 C5.66015625 4.078125 5.66015625 4.078125 6 6 C4.77206376 7.0847278 3.5425838 8.16770815 2.3125 9.25 C1.58546875 9.89066406 0.8584375 10.53132813 0.109375 11.19140625 C-1.51961687 12.58811595 -3.21648433 13.90589259 -4.9375 15.1875 C-7.24047077 17.2113228 -7.70747347 18.00160302 -8 21 C-6.9636167 22.71760457 -6.9636167 22.71760457 -5.3125 24.125 C-4.755625 24.64191406 -4.19875 25.15882813 -3.625 25.69140625 C-1.99710705 27.10228868 -1.99710705 27.10228868 0.1875 28.0625 C2.80704179 29.41743541 3.65651276 31.44737424 5 34 C8.69900008 33.11223998 12.34550461 32.05418136 16 31 C13.94704566 34.07943151 13.34265205 34.79293121 10 36 C7.0625 36.5 7.0625 36.5 4 36 C1.625 33.4375 1.625 33.4375 0.4296875 31.796875 C-2.26236489 28.41342117 -5.71381674 25.78711337 -9 23 C-10 22 -10 22 -10.4375 19.25 C-10 16 -10 16 -7.4375 13.5 C-6.29462263 12.6626173 -5.14852072 11.8296256 -4 11 C-2.69904995 9.90678649 -1.40723746 8.80260264 -0.125 7.6875 C0.76832031 6.91986328 0.76832031 6.91986328 1.6796875 6.13671875 C2.11539063 5.76160156 2.55109375 5.38648438 3 5 C2.01 3.35 1.02 1.7 0 0 Z " fill="#858383" transform="translate(77,249)"/>
<path d="M0 0 C0.66 0 1.32 0 2 0 C2.94166826 1.4461334 3.8808597 2.89396753 4.8046875 4.3515625 C7.47374109 8.03241419 11.43091171 10.56132777 15 13.3125 C18.66403485 16.33678273 21.29183575 20.12982201 24 24 C19.75074742 23.21007484 17.91089135 21.15346563 15 18 C14.34 18.66 13.68 19.32 13 20 C10.36 17.69 7.72 15.38 5 13 C5.66 12.67 6.32 12.34 7 12 C6.57847656 11.46890625 6.15695313 10.9378125 5.72265625 10.390625 C5.17480469 9.68421875 4.62695312 8.9778125 4.0625 8.25 C3.51722656 7.55390625 2.97195312 6.8578125 2.41015625 6.140625 C1.02574346 4.03907872 0.43713013 2.45678201 0 0 Z " fill="#5F5B5C" transform="translate(164,43)"/>
<path d="M0 0 C3.94745049 1.57531667 6.23727309 4.13074496 9.0625 7.25 C9.91972656 8.18328125 10.77695312 9.1165625 11.66015625 10.078125 C14 13 14 13 15.43359375 16.171875 C17.48499614 19.87565387 19.00724172 20.64605429 23 22 C26.8706033 22.43273826 30.74067201 22.38887845 34.63085938 22.3515625 C36.84880227 22.39581074 38.84222051 22.48209845 41 23 C43.55109802 25.90332063 44.40738006 28.81130485 45.125 32.5625 C45.27195313 33.30628906 45.41890625 34.05007812 45.5703125 34.81640625 C45.71210937 35.53699219 45.85390625 36.25757813 46 37 C46.32524328 38.33532981 46.65602801 39.66937152 47 41 C42.6505807 38.10038713 42.12766831 34.63319056 40.9375 29.75 C40.39837692 26.22687834 40.39837692 26.22687834 39 25 C35.47739748 24.76188416 31.96170798 24.60438872 28.43359375 24.48242188 C23.1078622 24.23867078 19.04762279 23.69660174 14.8125 20.1875 C13 18 13 18 12.1875 15.6875 C10.67163343 12.2568546 8.44438724 10.34254296 5.75390625 7.78125 C3.39934431 5.38997997 1.74317826 2.85881235 0 0 Z " fill="#7B7A7A" transform="translate(31,126)"/>
<path d="M0 0 C8.17367067 -0.4485551 13.97563746 -0.40744316 21 4 C20.01 4.495 20.01 4.495 19 5 C19.33 6.65 19.66 8.3 20 10 C15.26315789 8.15789474 15.26315789 8.15789474 13.125 6.875 C7.46572031 4.54470836 1.61357764 6.42425891 -4 8 C-4 7.34 -4 6.68 -4 6 C-1.5132579 4.5653411 0.3116189 3.9511186 3.1875 3.5 C4.5796875 3.2525 4.5796875 3.2525 6 3 C6.33 2.34 6.66 1.68 7 1 C4.69 1 2.38 1 0 1 C0 0.67 0 0.34 0 0 Z " fill="#766E70" transform="translate(158,289)"/>
<path d="M0 0 C1.98350166 1.91510505 3.79569225 3.6886739 5.3125 6 C7.39249832 8.4651832 9.17585162 9.15485513 12.1875 10.25 C13.08855469 10.58515625 13.98960938 10.9203125 14.91796875 11.265625 C15.60503906 11.50796875 16.29210937 11.7503125 17 12 C17 12.66 17 13.32 17 14 C17.99 14.33 18.98 14.66 20 15 C19.67 16.32 19.34 17.64 19 19 C18.34 18.175 17.68 17.35 17 16.5 C13.44436194 13.53696828 12.43366348 14.06269334 8.0546875 14.41796875 C4.97616034 13.79172843 4.06902404 12.04901998 2.25 9.5625 C1.71890625 8.73878906 1.1878125 7.91507812 0.640625 7.06640625 C-1.19560406 4.75363202 -2.12301747 4.34398704 -5 4 C-5 3.34 -5 2.68 -5 2 C-3.35 2 -1.7 2 0 2 C0 1.34 0 0.68 0 0 Z " fill="#424141" transform="translate(103,273)"/>
<path d="M0 0 C1.32 0 2.64 0 4 0 C6.14982548 9.0599788 6.20871753 17.75845174 6 27 C5.34 27 4.68 27 4 27 C4 25.02 4 23.04 4 21 C3.34 21 2.68 21 2 21 C1.66280953 18.43795456 1.33012847 15.87545682 1 13.3125 C0.90460937 12.59126953 0.80921875 11.87003906 0.7109375 11.12695312 C0.23316265 7.39007129 -0.11919794 3.77708469 0 0 Z " fill="#0F0F0F" transform="translate(14,67)"/>
<path d="M0 0 C1.66611905 -0.042721 3.33382885 -0.04063832 5 0 C5.33 0.33 5.66 0.66 6 1 C8.33297433 1.04092937 10.66705225 1.04241723 13 1 C13.1953125 3.05078125 13.390625 5.1015625 13.5859375 7.15234375 C13.72257812 7.76207031 13.85921875 8.37179688 14 9 C14.66 9.33 15.32 9.66 16 10 C16.33 7.69 16.66 5.38 17 3 C17.99 2.67 18.98 2.34 20 2 C20 1.34 20 0.68 20 0 C20.66 0 21.32 0 22 0 C22.1875 2.375 22.1875 2.375 22 5 C21.01 5.66 20.02 6.32 19 7 C18.27034634 9.56282742 18.27034634 9.56282742 18 12 C15.125 12.125 15.125 12.125 12 12 C10 10 10 10 9.875 6.875 C9.91625 5.92625 9.9575 4.9775 10 4 C9.0925 4.0825 8.185 4.165 7.25 4.25 C4 4 4 4 1.625 2 C0.820625 1.01 0.820625 1.01 0 0 Z " fill="#272425" transform="translate(81,35)"/>
<path d="M0 0 C0.99 0 1.98 0 3 0 C3.05402274 2.10388569 3.09280256 4.20816714 3.125 6.3125 C3.14820312 7.48425781 3.17140625 8.65601563 3.1953125 9.86328125 C3 13 3 13 1 16 C0.60986284 17.9896995 0.26797351 19.99019869 0 22 C-0.66 22 -1.32 22 -2 22 C-3.49821059 18.62902617 -4 16.79557881 -4 13 C-3.34 12.67 -2.68 12.34 -2 12 C-1.56947737 9.44648887 -1.56947737 9.44648887 -1.4375 6.5 C-1.09628611 1.09628611 -1.09628611 1.09628611 0 0 Z " fill="#171616" transform="translate(76,224)"/>
<path d="M0 0 C2.625 0.375 2.625 0.375 5 1 C5.33 2.32 5.66 3.64 6 5 C4.35 5 2.7 5 1 5 C1 5.66 1 6.32 1 7 C-5.15384615 11.06153846 -5.15384615 11.06153846 -9.4375 10.75 C-10.283125 10.5025 -11.12875 10.255 -12 10 C-11.34 9.67 -10.68 9.34 -10 9 C-9.7525 8.38125 -9.505 7.7625 -9.25 7.125 C-7.4797928 4.11564776 -5.1164794 3.42838639 -2 2 C-1.34 1.34 -0.68 0.68 0 0 Z " fill="#5F595A" transform="translate(97,270)"/>
<path d="M0 0 C1.65 0 3.3 0 5 0 C4.01 0.66 3.02 1.32 2 2 C1.41651248 4.6556728 1.41651248 4.6556728 1.3125 7.625 C1.24675781 8.62789062 1.18101562 9.63078125 1.11328125 10.6640625 C1.07589844 11.43492188 1.03851563 12.20578125 1 13 C0.01 13.33 -0.98 13.66 -2 14 C-1.57405412 15.44096586 -1.13373367 16.87768712 -0.6875 18.3125 C-0.44386719 19.11300781 -0.20023438 19.91351563 0.05078125 20.73828125 C1.04182023 23.09964573 2.08074943 24.33879993 4 26 C1.11192917 25.70123405 0.17944953 25.2193272 -1.6875 22.9375 C-3.35435091 19.20692892 -3.65550627 16.06502604 -4 12 C-4.66 12 -5.32 12 -6 12 C-6 13.65 -6 15.3 -6 17 C-6.33 17 -6.66 17 -7 17 C-7 15.02 -7 13.04 -7 11 C-6.34 11 -5.68 11 -5 11 C-4.67 9.02 -4.34 7.04 -4 5 C-3.01 5 -2.02 5 -1 5 C-0.67 3.35 -0.34 1.7 0 0 Z " fill="#575253" transform="translate(201,103)"/>
<path d="M0 0 C0.99 0 1.98 0 3 0 C3.391875 0.495 3.78375 0.99 4.1875 1.5 C6.70226137 3.58118182 8.74955783 3.04214317 11.8828125 2.91015625 C15.2557527 3.0532884 17.97018453 4.59730765 21 6 C22.98821313 6.39764263 24.98732362 6.75455166 27 7 C27 7.66 27 8.32 27 9 C18.95121951 8.19512195 18.95121951 8.19512195 15 6 C14.01 6 13.02 6 12 6 C12.66 6.66 13.32 7.32 14 8 C12.741875 8.020625 11.48375 8.04125 10.1875 8.0625 C9.47980469 8.07410156 8.77210937 8.08570313 8.04296875 8.09765625 C6 8 6 8 3 7 C0.67734388 4.41927097 0 3.54823932 0 0 Z " fill="#686566" transform="translate(30,17)"/>
<path d="M0 0 C0.33 0 0.66 0 1 0 C1 1.98 1 3.96 1 6 C1.66 6 2.32 6 3 6 C2.54917531 7.46067199 2.08906463 8.91848032 1.625 10.375 C1.24214844 11.59316406 1.24214844 11.59316406 0.8515625 12.8359375 C0 15 0 15 -2 17 C-7.03156909 17.47467633 -9.97419904 17.07232178 -14 14 C-14.78375 13.195625 -15.5675 12.39125 -16.375 11.5625 C-20.50197771 7.53378366 -23.99231164 5.12747228 -29.9375 4.75 C-30.948125 4.8325 -31.95875 4.915 -33 5 C-33 4.34 -33 3.68 -33 3 C-25.4335123 2.15927914 -21.08673832 4.62740215 -15 9 C-13.92415389 9.92215381 -12.85945783 10.85767446 -11.8125 11.8125 C-8.65761245 14.6395541 -8.65761245 14.6395541 -2 15 C-1.34 10.05 -0.68 5.1 0 0 Z " fill="#979596" transform="translate(233,193)"/>
<path d="M0 0 C1.98 0.495 1.98 0.495 4 1 C3.7525 1.721875 3.505 2.44375 3.25 3.1875 C2.9058519 7.0591661 4.62314523 8.04693801 7 11 C7.25 14.3125 7.25 14.3125 7 17 C6.01 17.33 5.02 17.66 4 18 C-0.78923767 14.40807175 -0.78923767 14.40807175 -1.3671875 10.546875 C-1.37830659 6.74414563 -1.20818742 3.62456226 0 0 Z " fill="#2E2A2B" transform="translate(203,135)"/>
<path d="M0 0 C5.90940678 2.32155266 8.50714361 7.44772894 11 13 C13 18.47368421 13 18.47368421 13 21 C11.68 20.67 10.36 20.34 9 20 C8.67 21.65 8.34 23.3 8 25 C7.67 25 7.34 25 7 25 C6.67 22.03 6.34 19.06 6 16 C6.66 16 7.32 16 8 16 C6.38133683 9.95962281 4.78474218 6.26747276 0 2 C0 1.34 0 0.68 0 0 Z " fill="#5A5154" transform="translate(195,75)"/>
<path d="M0 0 C2.97952067 0.33858189 5.5531418 0.80676402 8.3125 2 C12.12728252 3.41945396 15.96313714 3.66579349 20 4 C19.67 4.99 19.34 5.98 19 7 C14.87576968 8.37474344 11.0783697 8.92416827 6.98828125 7.10546875 C5.28960602 6.13036715 3.63992219 5.07096959 2 4 C2 3.34 2 2.68 2 2 C1.01 1.67 0.02 1.34 -1 1 C-0.67 0.67 -0.34 0.34 0 0 Z " fill="#413C3D" transform="translate(42,22)"/>
<path d="M0 0 C0.99 0.33 1.98 0.66 3 1 C1.49433536 4.8326009 -0.80257213 6.50444654 -4 9 C-5.76323505 11.12603185 -5.76323505 11.12603185 -7 13 C-8.32 12.67 -9.64 12.34 -11 12 C-9.63740073 7.54058421 -7.75981629 5.68558306 -4 3 C-3.29875 2.401875 -2.5975 1.80375 -1.875 1.1875 C-1.25625 0.795625 -0.6375 0.40375 0 0 Z " fill="#3C3839" transform="translate(79,258)"/>
<path d="M0 0 C0.66 0 1.32 0 2 0 C2 1.98 2 3.96 2 6 C2.66 6.33 3.32 6.66 4 7 C4 12.28 4 17.56 4 23 C3.34 23 2.68 23 2 23 C-0.45153075 18.26101734 -0.23154206 13.87937667 -0.125 8.6875 C-0.11597656 7.85154297 -0.10695313 7.01558594 -0.09765625 6.15429688 C-0.07420989 4.10274031 -0.03834266 2.05133223 0 0 Z " fill="#2F2C2D" transform="translate(16,88)"/>
<path d="M0 0 C-0.33 0.99 -0.66 1.98 -1 3 C-4.3 3.66 -7.6 4.32 -11 5 C-11 5.66 -11 6.32 -11 7 C-13.64 7.33 -16.28 7.66 -19 8 C-17.82421252 4.47263757 -17.12452867 3.89116209 -14 2 C-9.1938849 0.27705308 -5.09089557 -0.20779166 0 0 Z " fill="#282425" transform="translate(165,290)"/>
<path d="M0 0 C9.81052505 -0.61852697 9.81052505 -0.61852697 14.125 1.625 C16.35252176 4.44652756 16.75784048 6.44832707 17 10 C11.18618619 6.16816817 11.18618619 6.16816817 9.0625 4.25 C6.05638263 2.42811068 3.43443431 2.80185956 0 3 C0 2.01 0 1.02 0 0 Z " fill="#3E3A3B" transform="translate(12,6)"/>
<path d="M0 0 C4.62 0 9.24 0 14 0 C14 0.66 14 1.32 14 2 C13.34 2 12.68 2 12 2 C11.67 2.99 11.34 3.98 11 5 C7.7 5 4.4 5 1 5 C0.67 3.35 0.34 1.7 0 0 Z " fill="#2E2B2C" transform="translate(177,294)"/>
<path d="M0 0 C0.99 0 1.98 0 3 0 C2.45276317 3.37462715 1.9451 5.08235 0 8 C-0.45772063 10.73872955 -0.45772063 10.73872955 -0.625 13.6875 C-0.69976562 14.68136719 -0.77453125 15.67523438 -0.8515625 16.69921875 C-0.90054688 17.45847656 -0.94953125 18.21773437 -1 19 C-1.99 19.33 -2.98 19.66 -4 20 C-3.54965877 21.62723299 -3.08944646 23.25173664 -2.625 24.875 C-2.36976562 25.77992188 -2.11453125 26.68484375 -1.8515625 27.6171875 C-1.1395685 30.14569726 -1.1395685 30.14569726 1 32 C-0.875 31.75 -0.875 31.75 -3 31 C-5.03648687 27.88870062 -5.2214727 25.41596268 -5.125 21.75 C-5.09792969 20.41195312 -5.09792969 20.41195312 -5.0703125 19.046875 C-5.04710938 18.37140625 -5.02390625 17.6959375 -5 17 C-4.34 16.67 -3.68 16.34 -3 16 C-2.60637942 13.81106927 -2.60637942 13.81106927 -2.5 11.25 C-2.20185655 7.46086784 -1.67354503 4.45865973 0 1 C0 0.67 0 0.34 0 0 Z " fill="#656464" transform="translate(76,217)"/>
<path d="M0 0 C0 0.66 0 1.32 0 2 C-2.64738916 3.4606285 -3.89448334 4 -7 4 C-7 6.64 -7 9.28 -7 12 C-8.32 12 -9.64 12 -11 12 C-11.48192771 4.77108434 -11.48192771 4.77108434 -9.4375 1.5 C-6.17971981 -0.50478781 -3.75217167 -0.28862859 0 0 Z " fill="#141112" transform="translate(195,197)"/>
<path d="M0 0 C1.65 0.33 3.3 0.66 5 1 C4.67 5.29 4.34 9.58 4 14 C2.35 14 0.7 14 -1 14 C-0.67 9.38 -0.34 4.76 0 0 Z " fill="#302C2D" transform="translate(90,193)"/>
<path d="M0 0 C0.33 0.99 0.66 1.98 1 3 C2.65 3.33 4.3 3.66 6 4 C6.33 6.31 6.66 8.62 7 11 C8.65 11 10.3 11 12 11 C12.33 11.66 12.66 12.32 13 13 C4.2404908 13.44539877 4.2404908 13.44539877 0 10 C0 9.34 0 8.68 0 8 C0.66 8 1.32 8 2 8 C2 7.01 2 6.02 2 5 C1.34 5 0.68 5 0 5 C0 3.35 0 1.7 0 0 Z " fill="#383435" transform="translate(144,37)"/>
<path d="M0 0 C0.33 0 0.66 0 1 0 C1 1.65 1 3.3 1 5 C1.66 5.33 2.32 5.66 3 6 C2.01 6 1.02 6 0 6 C0.144375 6.6084375 0.28875 7.216875 0.4375 7.84375 C2.22443106 16.28203556 2.19362962 24.42651083 2 33 C1.67 33 1.34 33 1 33 C0.87882813 31.78183594 0.75765625 30.56367187 0.6328125 29.30859375 C0.46386928 27.68486171 0.29458004 26.06116565 0.125 24.4375 C0.04636719 23.63763672 -0.03226563 22.83777344 -0.11328125 22.01367188 C-0.63228502 17.12305943 -1.53066929 12.69237871 -3 8 C-3.35371498 6.33753959 -3.69595322 4.67225729 -4 3 C-3.01 3 -2.02 3 -1 3 C-0.67 2.01 -0.34 1.02 0 0 Z " fill="#4A4849" transform="translate(14,61)"/>
<path d="M0 0 C2 2 2 2 3.125 4.1875 C5.78790959 8.18186438 9.31604336 10.96357968 13 14 C12.01 14.495 12.01 14.495 11 15 C11.33 16.32 11.66 17.64 12 19 C11.34 19 10.68 19 10 19 C9.62875 18.34 9.2575 17.68 8.875 17 C7.04715403 14.07544645 5.28182427 12.36054956 2.75 10.0625 C0.609375 8.00390625 0.609375 8.00390625 -1 6 C-1 2.5 -1 2.5 0 0 Z " fill="#3D393A" transform="translate(20,107)"/>
<path d="M0 0 C2 1.5 2 1.5 3 3 C3 3.33 3 3.66 3 4 C-1.95 3.67 -6.9 3.34 -12 3 C-12 2.01 -12 1.02 -12 0 C-8.0330447 -1.48760824 -4.03670388 -0.9941776 0 0 Z " fill="#242122" transform="translate(120,33)"/>
<path d="M0 0 C0.33 1.32 0.66 2.64 1 4 C1.66 4 2.32 4 3 4 C3.5859375 9.859375 3.5859375 9.859375 3 12 C-0.0234375 14.265625 -0.0234375 14.265625 -3 16 C-2.69262339 13.52009745 -2.37935917 11.04119265 -2.0625 8.5625 C-1.97548828 7.85544922 -1.88847656 7.14839844 -1.79882812 6.41992188 C-1.11328125 1.11328125 -1.11328125 1.11328125 0 0 Z " fill="#383033" transform="translate(178,216)"/>
<path d="M0 0 C1.5 1.0625 1.5 1.0625 3 3 C3.4375 6.5 3.4375 6.5 3 10 C1.1875 11.9375 1.1875 11.9375 -1 13 C-1.99 13 -2.98 13 -4 13 C-4 12.34 -4 11.68 -4 11 C-3.34 11 -2.68 11 -2 11 C-2 10.34 -2 9.68 -2 9 C-3.32 8.67 -4.64 8.34 -6 8 C-4.35 7.67 -2.7 7.34 -1 7 C-0.67 4.69 -0.34 2.38 0 0 Z " fill="#494747" transform="translate(193,285)"/>
<path d="M0 0 C0 0.66 0 1.32 0 2 C-0.62648437 2.17273438 -1.25296875 2.34546875 -1.8984375 2.5234375 C-4.5858249 3.44749184 -6.69461669 4.32489579 -9 6 C-10.06033068 8.6401808 -10.41943283 10.93170997 -10.68359375 13.7578125 C-11 16 -11 16 -13 18 C-15.625 18.625 -15.625 18.625 -18 19 C-18 18.34 -18 17.68 -18 17 C-17.21625 16.67 -16.4325 16.34 -15.625 16 C-12.80107749 14.30439193 -12.80107749 14.30439193 -12.5390625 11.72265625 C-12.44367188 10.84480469 -12.34828125 9.96695313 -12.25 9.0625 C-11.57412973 4.43278863 -11.57412973 4.43278863 -8.953125 2.45703125 C-5.97105245 1.14169033 -3.28635142 0 0 0 Z " fill="#999898" transform="translate(199,197)"/>
<path d="M0 0 C2.92879371 0.62759865 5.36095629 1.58622659 8 3 C8 4.65 8 6.3 8 8 C7.01 8.33 6.02 8.66 5 9 C1.13892543 6.42595029 1.05680308 4.38979741 0 0 Z " fill="#2C2829" transform="translate(77,174)"/>
<path d="M0 0 C2.75 0.8125 2.75 0.8125 6 3 C6.97265625 5.578125 6.97265625 5.578125 7.8125 8.5625 C8.62546358 11.51361583 8.62546358 11.51361583 10 14 C12.44539625 15.20973666 14.3663657 15.53674619 17.07421875 15.75390625 C17.70972656 15.83511719 18.34523437 15.91632813 19 16 C19.33 16.66 19.66 17.32 20 18 C18.39482903 17.91266424 16.79078338 17.80447776 15.1875 17.6875 C14.29417969 17.62949219 13.40085938 17.57148438 12.48046875 17.51171875 C9.58108637 16.91357845 8.73542572 16.36601585 7 14 C5.88182325 11.46354759 4.98361671 8.8910124 4.0625 6.27734375 C3.09441987 3.68775536 3.09441987 3.68775536 0 2 C0 1.34 0 0.68 0 0 Z " fill="#9C9C9C" transform="translate(216,164)"/>
<path d="M0 0 C4.19220862 -0.41922086 7.04650264 -0.40813168 10.4375 2.125 C13 5 13 5 13.375 8.3125 C13.25125 9.199375 13.1275 10.08625 13 11 C12.01 10.67 11.02 10.34 10 10 C9.64587656 8.67203709 9.31478446 7.33783393 9 6 C6.65824304 2.79549048 3.71946046 2.0745108 0 1 C0 0.67 0 0.34 0 0 Z " fill="#272425" transform="translate(113,282)"/>
<path d="M0 0 C3 1 3 1 4.24609375 2.96875 C4.63925781 3.8040625 5.03242187 4.639375 5.4375 5.5 C5.86289063 6.3971875 6.28828125 7.294375 6.7265625 8.21875 C7.14679688 9.1365625 7.56703125 10.054375 8 11 C8.39960937 11.8559375 8.79921875 12.711875 9.2109375 13.59375 C12 19.68617021 12 19.68617021 12 22 C11.34 22 10.68 22 10 22 C9.76812988 21.47567383 9.53625977 20.95134766 9.29736328 20.41113281 C8.24089463 18.02365093 7.18296187 15.63682055 6.125 13.25 C5.76019531 12.425 5.39539063 11.6 5.01953125 10.75 C4.66503906 9.95078125 4.31054688 9.1515625 3.9453125 8.328125 C3.62062988 7.5949707 3.29594727 6.86181641 2.96142578 6.10644531 C2.0206529 4.04524967 1.02594567 2.01995528 0 0 Z " fill="#A4A3A3" transform="translate(73,172)"/>
<path d="M0 0 C3.27235512 3.15115678 6.2025724 6.42550918 9 10 C9 10.66 9 11.32 9 12 C6.125 11.6875 6.125 11.6875 3 11 C0.43383368 7.15075052 0.44902324 4.5650696 0 0 Z " fill="#2A2627" transform="translate(162,43)"/>
<path d="M0 0 C1.65 0.33 3.3 0.66 5 1 C5.62316911 9.25699068 5.62316911 9.25699068 3.375 11.9375 C1 13 1 13 -2.125 13.9375 C-5.11817089 14.71734447 -5.11817089 14.71734447 -6.375 17.125 C-6.684375 18.053125 -6.684375 18.053125 -7 19 C-7.66 19 -8.32 19 -9 19 C-7.92598892 16.08482708 -7.22189824 14.22189824 -5 12 C-3.0546875 11.1484375 -3.0546875 11.1484375 -0.875 10.375 C-0.15054688 10.11460937 0.57390625 9.85421875 1.3203125 9.5859375 C2.15175781 9.29589844 2.15175781 9.29589844 3 9 C3.26218749 5.85375007 3.24754367 4.38162983 1.5 1.6875 C1.005 1.130625 0.51 0.57375 0 0 Z " fill="#8F8C8D" transform="translate(85,194)"/>
<path d="M0 0 C5.875 3.75 5.875 3.75 7 6 C7.99 6.33 8.98 6.66 10 7 C10 9.31 10 11.62 10 14 C6.40547017 10.50817102 3.03814649 6.99299253 0 3 C0 2.01 0 1.02 0 0 Z " fill="#342F30" transform="translate(178,60)"/>
<path d="M0 0 C1.33333333 0.66666667 2.66666667 1.33333333 4 2 C4.680625 2.268125 5.36125 2.53625 6.0625 2.8125 C8.64688835 4.39647996 9.60781819 6.35485455 11 9 C14.69900008 8.11223998 18.34550461 7.05418136 22 6 C19.94704566 9.07943151 19.34265205 9.79293121 16 11 C13.0625 11.5 13.0625 11.5 10 11 C7.4375 8.3125 7.4375 8.3125 6.234375 6.66796875 C4.39675654 4.18485773 2.21274496 2.14952367 0 0 Z " fill="#A3A2A2" transform="translate(71,274)"/>
<path d="M0 0 C2.44576827 3.66865241 2.23607254 5.67200343 2 10 C1.67 10.66 1.34 11.32 1 12 C0.34 12 -0.32 12 -1 12 C-2.93607846 9.1528258 -2.98954766 7.84582804 -2.75 4.3125 C-2.5025 3.219375 -2.255 2.12625 -2 1 C-1.34 0.67 -0.68 0.34 0 0 Z " fill="#2E2C2C" transform="translate(206,150)"/>
<path d="M0 0 C0.66 0 1.32 0 2 0 C2.19335938 0.75925781 2.38671875 1.51851563 2.5859375 2.30078125 C2.84632813 3.29464844 3.10671875 4.28851563 3.375 5.3125 C3.63023437 6.29863281 3.88546875 7.28476563 4.1484375 8.30078125 C4.91913174 11.1805816 4.91913174 11.1805816 7 14 C6.34 14.66 5.68 15.32 5 16 C1.05084735 10.26735905 -0.13152404 6.97077402 0 0 Z " fill="#3D3639" transform="translate(195,115)"/>
<path d="M0 0 C1.3609623 2.7219246 0.70366248 4.1831957 0.0625 7.125 C-0.13214844 8.03507812 -0.32679687 8.94515625 -0.52734375 9.8828125 C-0.68332031 10.58148438 -0.83929688 11.28015625 -1 12 C-1.99 12 -2.98 12 -4 12 C-4 8.7 -4 5.4 -4 2 C-2.68 1.34 -1.36 0.68 0 0 Z " fill="#332D2F" transform="translate(10,11)"/>
<path d="M0 0 C2 1 2 1 3 2 C4.32 1.34 5.64 0.68 7 0 C5.32598022 3.95677402 2.86850715 6.84464213 0 10 C-0.66 10 -1.32 10 -2 10 C-1.979375 9.05125 -1.95875 8.1025 -1.9375 7.125 C-1.77448174 4.09333717 -1.77448174 4.09333717 -3 2 C-2.01 1.34 -1.02 0.68 0 0 Z " fill="#484244" transform="translate(174,228)"/>
<path d="M0 0 C0.474375 0.61875 0.94875 1.2375 1.4375 1.875 C4.97804547 4.8110621 8.53827956 5.27544711 13 6 C12.67 7.32 12.34 8.64 12 10 C12 9.34 12 8.68 12 8 C11.38511719 7.96261719 10.77023438 7.92523438 10.13671875 7.88671875 C9.32847656 7.82097656 8.52023438 7.75523437 7.6875 7.6875 C6.88699219 7.62949219 6.08648437 7.57148438 5.26171875 7.51171875 C2.5643908 6.90144248 1.59071353 6.24964988 0 4 C0 2.68 0 1.36 0 0 Z " fill="#363233" transform="translate(222,176)"/>
<path d="M0 0 C1.485 0.99 1.485 0.99 3 2 C3.29296875 5.2578125 3.29296875 5.2578125 3.1875 9.125 C3.16042969 10.40632812 3.13335937 11.68765625 3.10546875 13.0078125 C3.07066406 13.99523437 3.03585938 14.98265625 3 16 C1 15 1 15 0.37890625 13.296875 C-0.06955765 10.57835155 -0.09529082 8.00442923 -0.0625 5.25 C-0.05347656 4.26515625 -0.04445312 3.2803125 -0.03515625 2.265625 C-0.02355469 1.51796875 -0.01195312 0.7703125 0 0 Z " fill="#C59FAA" transform="translate(198,129)"/>
<path d="M0 0 C-1.6056008 1.6056008 -3.36611035 1.16536184 -5.5859375 1.2109375 C-6.51664063 1.23929688 -7.44734375 1.26765625 -8.40625 1.296875 C-10.37741878 1.34874786 -12.34880112 1.39308119 -14.3203125 1.4296875 C-15.25359375 1.460625 -16.186875 1.4915625 -17.1484375 1.5234375 C-18.43500244 1.5531665 -18.43500244 1.5531665 -19.74755859 1.58349609 C-22.4408806 2.0815242 -23.20823454 3.0070167 -25 5 C-25.66 5 -26.32 5 -27 5 C-25.125 1.125 -25.125 1.125 -24 0 C-20.74404906 -0.38186298 -17.4612489 -0.47029887 -14.1875 -0.625 C-12.81368164 -0.70234375 -12.81368164 -0.70234375 -11.41210938 -0.78125 C-10.52716797 -0.82507812 -9.64222656 -0.86890625 -8.73046875 -0.9140625 C-7.91989014 -0.9548291 -7.10931152 -0.9955957 -6.27416992 -1.03759766 C-4.01903073 -1.00031463 -2.1553747 -0.63910982 0 0 Z " fill="#262525" transform="translate(114,59)"/>
<path d="M0 0 C0.33 0 0.66 0 1 0 C1.103125 1.216875 1.20625 2.43375 1.3125 3.6875 C1.76219312 7.41069448 2.78382778 9.91662995 5 13 C4.01 14.485 4.01 14.485 3 16 C0.67786509 13.7504318 -0.86681887 12.00318255 -1.30078125 8.734375 C-1.33017173 2.66034345 -1.33017173 2.66034345 0 0 Z " fill="#4B4949" transform="translate(3,30)"/>
<path d="M0 0 C2.97 0.33 5.94 0.66 9 1 C9 1.99 9 2.98 9 4 C6.64561267 5.42944945 5.51967567 6.08661261 2.75 5.625 C2.1725 5.41875 1.595 5.2125 1 5 C0.67 3.35 0.34 1.7 0 0 Z " fill="#221F20" transform="translate(80,278)"/>
<path d="M0 0 C1.89453125 0.6328125 1.89453125 0.6328125 4 2 C5.01171875 4.6796875 5.01171875 4.6796875 5.6875 7.875 C6.03361328 9.44894531 6.03361328 9.44894531 6.38671875 11.0546875 C6.69029297 12.51261719 6.69029297 12.51261719 7 14 C7.32611857 15.33511631 7.6560895 16.66935562 8 18 C2.80605472 14.53736981 2.40029803 8.78789853 1 3 C0.67 2.01 0.34 1.02 0 0 Z " fill="#8A8A8A" transform="translate(70,149)"/>
<path d="M0 0 C5.92732215 2.32859084 8.4662552 7.44989234 11 13 C11.33 13.99 11.66 14.98 12 16 C11.34 16 10.68 16 10 16 C10 15.34 10 14.68 10 14 C9.01 13.67 8.02 13.34 7 13 C6.24990701 11.27152485 5.50548438 9.53950201 4.828125 7.78125 C3.69625414 5.34665985 1.94606847 3.81185685 0 2 C0 1.34 0 0.68 0 0 Z " fill="#9F9E9E" transform="translate(195,75)"/>
<path d="M0 0 C4.17755832 3.17857698 6.20805505 5.00815335 8 10 C10.02040748 12.27191416 10.02040748 12.27191416 12 14 C11.67 14.66 11.34 15.32 11 16 C10.34 14.68 9.68 13.36 9 12 C8.01 12 7.02 12 6 12 C5.67 12.66 5.34 13.32 5 14 C4 11 4 11 3.625 8 C2.96223799 4.81874237 2.36324238 4.05499337 0 2 C0 1.34 0 0.68 0 0 Z " fill="#8E8C8D" transform="translate(24,5)"/>
<path d="M0 0 C1.98 0 3.96 0 6 0 C6 0.66 6 1.32 6 2 C4.68 2.33 3.36 2.66 2 3 C1.13149826 5.24875747 1.13149826 5.24875747 1 8 C2.8312811 10.81099414 2.8312811 10.81099414 5 13 C3.68 13 2.36 13 1 13 C-1.45410358 9.31884463 -1.23287843 7.34706402 -1 3 C-0.67 2.01 -0.34 1.02 0 0 Z " fill="#807F7F" transform="translate(164,244)"/>
<path d="M0 0 C1.32 0.33 2.64 0.66 4 1 C3.125 5.75 3.125 5.75 2 8 C0.35 8 -1.3 8 -3 8 C-2.01 5.36 -1.02 2.72 0 0 Z " fill="#3C3739" transform="translate(204,95)"/>
<path d="M0 0 C3.63 0 7.26 0 11 0 C10.67 0.99 10.34 1.98 10 3 C7.36 3.33 4.72 3.66 2 4 C2 3.34 2 2.68 2 2 C1.34 2 0.68 2 0 2 C0 1.34 0 0.68 0 0 Z " fill="#1E1C1C" transform="translate(51,26)"/>
<path d="M0 0 C0.721875 0.268125 1.44375 0.53625 2.1875 0.8125 C2.1875 1.8025 2.1875 2.7925 2.1875 3.8125 C0.5375 3.8125 -1.1125 3.8125 -2.8125 3.8125 C-2.8125 4.4725 -2.8125 5.1325 -2.8125 5.8125 C-4.4625 5.4825 -6.1125 5.1525 -7.8125 4.8125 C-3.50480769 -0.23365385 -3.50480769 -0.23365385 0 0 Z " fill="#372E30" transform="translate(100.8125,271.1875)"/>
<path d="M0 0 C0.66 0 1.32 0 2 0 C2.93637414 1.43800315 3.86960101 2.87822737 4.78125 4.33203125 C6.78725325 7.07742673 9.31921165 8.92848173 12 11 C10.68 11.33 9.36 11.66 8 12 C6.84545838 10.75803878 5.70167438 9.50607155 4.5625 8.25 C3.92441406 7.55390625 3.28632813 6.8578125 2.62890625 6.140625 C1.00918675 4.01207275 0.41732744 2.60976595 0 0 Z " fill="#9C9B9B" transform="translate(164,43)"/>
<path d="M0 0 C-0.33 0.99 -0.66 1.98 -1 3 C-9.42857143 4.28571429 -9.42857143 4.28571429 -14 3 C-14 2.67 -14 2.34 -14 2 C-9.126739 0.4087311 -5.19209404 -0.21192221 0 0 Z " fill="#463D40" transform="translate(165,290)"/>
<path d="M0 0 C0.33 0.99 0.66 1.98 1 3 C1.99 2.67 2.98 2.34 4 2 C4 3.98 4 5.96 4 8 C3.34 8 2.68 8 2 8 C1.67 7.01 1.34 6.02 1 5 C0.67 8.63 0.34 12.26 0 16 C-0.33 16 -0.66 16 -1 16 C-1.02692484 13.70839681 -1.04636124 11.41670454 -1.0625 9.125 C-1.07410156 7.84882813 -1.08570313 6.57265625 -1.09765625 5.2578125 C-1 2 -1 2 0 0 Z " fill="#797174" transform="translate(177,212)"/>
<path d="M0 0 C0.66 0 1.32 0 2 0 C4.04169485 2.90548882 5 4.40142046 5 8 C3.68 8 2.36 8 1 8 C-0.42944945 5.64561267 -1.08661261 4.51967567 -0.625 1.75 C-0.41875 1.1725 -0.2125 0.595 0 0 Z " fill="#3C3839" transform="translate(76,157)"/>
<path d="M0 0 C-0.33 1.32 -0.66 2.64 -1 4 C-1.66 4 -2.32 4 -3 4 C-2.57405412 5.44096586 -2.13373367 6.87768712 -1.6875 8.3125 C-1.44386719 9.11300781 -1.20023438 9.91351563 -0.94921875 10.73828125 C0.04182023 13.09964573 1.08074943 14.33879993 3 16 C1.1875 15.8125 1.1875 15.8125 -1 15 C-3.95854669 11.27442269 -4.82510412 7.72218873 -5 3 C-3.42599605 0.67647035 -2.82844233 0 0 0 Z " fill="#989696" transform="translate(202,113)"/>
<path d="M0 0 C0.99 0 1.98 0 3 0 C3.66 0.99 4.32 1.98 5 3 C8.06556598 3.73343428 8.06556598 3.73343428 11 4 C11 4.66 11 5.32 11 6 C3.5577342 6.36601307 3.5577342 6.36601307 1 4.6875 C0 3 0 3 0 0 Z " fill="#282425" transform="translate(30,17)"/>
<path d="M0 0 C0.99 0.33 1.98 0.66 3 1 C1.63016497 4.16115776 1.0109362 4.9927092 -2 7 C-2.99 7 -3.98 7 -5 7 C-4.6189482 4.23737447 -4.16402868 3.15856106 -2.125 1.1875 C-1.42375 0.795625 -0.7225 0.40375 0 0 Z " fill="#2C2829" transform="translate(79,258)"/>
<path d="M0 0 C4.64590164 1.4295082 4.64590164 1.4295082 6.125 3.8125 C6 6 6 6 3.6875 8.75 C1 11 1 11 -1 11 C0.20381448 8.50638429 1.45428722 6.31856917 3 4 C2.01 2.68 1.02 1.36 0 0 Z " fill="#A2A0A0" transform="translate(77,249)"/>
<path d="M0 0 C0.99 0 1.98 0 3 0 C2.38461538 5.53846154 2.38461538 5.53846154 0.4375 7.875 C-0.2740625 8.431875 -0.2740625 8.431875 -1 9 C-1 8.34 -1 7.68 -1 7 C-1.99 6.67 -2.98 6.34 -4 6 C-2.1875 3 -2.1875 3 0 0 Z " fill="#2E292A" transform="translate(80,217)"/>
<path d="M0 0 C0 0.66 0 1.32 0 2 C-2.64738916 3.4606285 -3.89448334 4 -7 4 C-7.33 4.66 -7.66 5.32 -8 6 C-8 5.01 -8 4.02 -8 3 C-8.66 2.67 -9.32 2.34 -10 2 C-6.3558226 -0.4294516 -4.28758728 -0.16179575 0 0 Z " fill="#2A2526" transform="translate(195,197)"/>
<path d="M0 0 C0.66 0 1.32 0 2 0 C3.43581474 1.61457079 4.80144783 3.29219075 6.125 5 C6.84945312 5.928125 7.57390625 6.85625 8.3203125 7.8125 C8.87460938 8.534375 9.42890625 9.25625 10 10 C7 10 7 10 5.17578125 8.3203125 C4.56089844 7.59585937 3.94601563 6.87140625 3.3125 6.125 C2.68988281 5.40570313 2.06726563 4.68640625 1.42578125 3.9453125 C0 2 0 2 0 0 Z " fill="#9D9B9B" transform="translate(123,292)"/>
<path d="M0 0 C3.82116982 0.32382795 5.62930359 1.08835716 8.6875 3.3125 C8.3575 4.6325 8.0275 5.9525 7.6875 7.3125 C7.0275 6.4875 6.3675 5.6625 5.6875 4.8125 C1.66383382 1.45944485 -0.21950467 1.88089023 -5.3125 2.3125 C-3.3125 0.3125 -3.3125 0.3125 0 0 Z " fill="#959494" transform="translate(114.3125,284.6875)"/>
<path d="M0 0 C2.475 0.495 2.475 0.495 5 1 C5.33 2.32 5.66 3.64 6 5 C4.35 5 2.7 5 1 5 C0.67 5.99 0.34 6.98 0 8 C0 5.36 0 2.72 0 0 Z " fill="#1C191A" transform="translate(202,130)"/>
<path d="M0 0 C3.63 0 7.26 0 11 0 C11 0.99 11 1.98 11 3 C7.37 3 3.74 3 0 3 C0 2.01 0 1.02 0 0 Z " fill="#131212" transform="translate(12,6)"/>
<path d="M0 0 C0.556875 0.28875 1.11375 0.5775 1.6875 0.875 C4.08494645 2.0413253 6.51596939 3.0339881 9 4 C8.67 4.66 8.34 5.32 8 6 C7.401875 5.835 6.80375 5.67 6.1875 5.5 C3.88655664 4.8885876 3.88655664 4.8885876 1 5 C0.34 4.01 -0.32 3.02 -1 2 C-0.67 1.34 -0.34 0.68 0 0 Z " fill="#575656" transform="translate(207,160)"/>
<path d="M0 0 C1.5 1 1.5 1 3 3 C3.27345479 5.71846235 3.13491285 8.25677199 3 11 C0.74754119 8.31158141 -0.88213958 6.35358125 -2 3 C-1.34 3 -0.68 3 0 3 C0 2.01 0 1.02 0 0 Z " fill="#403B3D" transform="translate(190,281)"/>
<path d="M0 0 C2.29296875 -0.28125 2.29296875 -0.28125 5 0 C6.80078125 1.96875 6.80078125 1.96875 8.3125 4.5 C8.82425781 5.3353125 9.33601563 6.170625 9.86328125 7.03125 C10.23839844 7.6809375 10.61351563 8.330625 11 9 C10.67 9.66 10.34 10.32 10 11 C9.61328125 10.43410156 9.2265625 9.86820312 8.828125 9.28515625 C8.30734375 8.55167969 7.7865625 7.81820313 7.25 7.0625 C6.48429687 5.96615234 6.48429687 5.96615234 5.703125 4.84765625 C3.80822085 2.79194601 2.72574271 2.37330824 0 2 C0 1.34 0 0.68 0 0 Z " fill="#A0A0A0" transform="translate(98,275)"/>
<path d="M0 0 C0.33 1.32 0.66 2.64 1 4 C-1.64 4 -4.28 4 -7 4 C-7 3.01 -7 2.02 -7 1 C-3.535 0.505 -3.535 0.505 0 0 Z " fill="#BF97A3" transform="translate(123,148)"/>
<path d="M0 0 C2.4375 2.0625 2.4375 2.0625 4 4 C3.67 4.66 3.34 5.32 3 6 C2.236875 5.34 1.47375 4.68 0.6875 4 C-1.84277939 1.70149462 -1.84277939 1.70149462 -5 2 C-5.33 2.66 -5.66 3.32 -6 4 C-6.99 2.68 -7.98 1.36 -9 0 C-5.81452856 -1.59273572 -3.39809153 -0.76164121 0 0 Z " fill="#6C696A" transform="translate(178,55)"/>
<path d="M0 0 C0.928125 0.0825 1.85625 0.165 2.8125 0.25 C2.8125 0.58 2.8125 0.91 2.8125 1.25 C1.1625 1.25 -0.4875 1.25 -2.1875 1.25 C-2.1875 1.91 -2.1875 2.57 -2.1875 3.25 C-0.8675 3.58 0.4525 3.91 1.8125 4.25 C0.4925 4.25 -0.8275 4.25 -2.1875 4.25 C-2.5175 5.24 -2.8475 6.23 -3.1875 7.25 C-3.1875 6.59 -3.1875 5.93 -3.1875 5.25 C-4.1775 4.92 -5.1675 4.59 -6.1875 4.25 C-4.36434338 1.00883268 -3.82500054 0.30000004 0 0 Z " fill="#585153" transform="translate(166.1875,239.75)"/>
<path d="M0 0 C0.33 0 0.66 0 1 0 C1 1.98 1 3.96 1 6 C1.66 6 2.32 6 3 6 C1.375 11.75 1.375 11.75 -2 14 C-1.34 9.38 -0.68 4.76 0 0 Z " fill="#6F6D6E" transform="translate(233,193)"/>
<path d="M0 0 C2.76276177 0.52268466 5.3260876 1.10869587 8 2 C8.6875 4.0625 8.6875 4.0625 9 6 C4.75177626 5.52797514 2.80010291 3.03344482 0 0 Z " fill="#3A3738" transform="translate(161,256)"/>
<path d="M0 0 C0.33 0 0.66 0 1 0 C1 2.97 1 5.94 1 9 C-0.65 9.66 -2.3 10.32 -4 11 C-3.42655063 8.13275314 -3.1385485 7.1385485 -1 5 C-0.35232207 2.42938689 -0.35232207 2.42938689 0 0 Z " fill="#736569" transform="translate(86,249)"/>
<path d="M0 0 C0.66 0 1.32 0 2 0 C2.3125 2.6875 2.3125 2.6875 2 6 C-0.5 8.875 -0.5 8.875 -3 11 C-3 8.04725901 -2.56108169 6.50941597 -1.5 3.8125 C-1.2215625 3.09707031 -0.943125 2.38164062 -0.65625 1.64453125 C-0.33140625 0.83048828 -0.33140625 0.83048828 0 0 Z " fill="#514146" transform="translate(84,248)"/>
<path d="M0 0 C0.66 0.33 1.32 0.66 2 1 C1.375 2.9375 1.375 2.9375 0 5 C-3.125 5.75 -3.125 5.75 -6 6 C-6.33 4.68 -6.66 3.36 -7 2 C-6.401875 2.226875 -5.80375 2.45375 -5.1875 2.6875 C-4.465625 2.790625 -3.74375 2.89375 -3 3 C-1.22809091 1.64555699 -1.22809091 1.64555699 0 0 Z " fill="#939092" transform="translate(157,42)"/>
<path d="M0 0 C-1.33333333 2.66666667 -2.66666667 5.33333333 -4 8 C-4.99 8 -5.98 8 -7 8 C-4.18918919 0 -4.18918919 0 0 0 Z " fill="#D4D2D2" transform="translate(80,263)"/>
<path d="M0 0 C2.40921705 2.40921705 3.53812156 4.94334509 5 8 C4.01 8.33 3.02 8.66 2 9 C0.4375 7.875 0.4375 7.875 -1 6 C-0.6875 2.8125 -0.6875 2.8125 0 0 Z " fill="#4F4C4D" transform="translate(20,107)"/>
<path d="M0 0 C2.0625 0.4375 2.0625 0.4375 4 1 C3.01 1.495 3.01 1.495 2 2 C1.26924352 4.3140622 0.59861742 6.64828869 0 9 C-0.99 8.67 -1.98 8.34 -3 8 C-1.125 1.125 -1.125 1.125 0 0 Z " fill="#7E7E7E" transform="translate(97,36)"/>
<path d="M0 0 C2.86724686 0.57344937 3.8614515 0.8614515 6 3 C5.34 3 4.68 3 4 3 C3.67 3.99 3.34 4.98 3 6 C1.68 4.68 0.36 3.36 -1 2 C-0.67 1.34 -0.34 0.68 0 0 Z " fill="#5B5154" transform="translate(173,291)"/>
<path d="M0 0 C1.32 0.99 2.64 1.98 4 3 C4.25 6.1875 4.25 6.1875 4 9 C3.01 9.495 3.01 9.495 2 10 C1.34 6.7 0.68 3.4 0 0 Z " fill="#9C9A9A" transform="translate(206,143)"/>
<path d="M0 0 C1.32 0.33 2.64 0.66 4 1 C3.835 1.721875 3.67 2.44375 3.5 3.1875 C3.02412881 5.86427545 2.922557 8.28949487 3 11 C0.60236815 8.60236815 0.65719414 7.66726502 0.375 4.375 C0.30023438 3.55773437 0.22546875 2.74046875 0.1484375 1.8984375 C0.09945312 1.27195313 0.05046875 0.64546875 0 0 Z " fill="#626060" transform="translate(203,135)"/>
<path d="M0 0 C0.33 0 0.66 0 1 0 C1 1.65 1 3.3 1 5 C0.34 5 -0.32 5 -1 5 C-1.33 6.32 -1.66 7.64 -2 9 C-4 6 -4 6 -4 3 C-3.01 3 -2.02 3 -1 3 C-0.67 2.01 -0.34 1.02 0 0 Z " fill="#6D686A" transform="translate(14,61)"/>
<path d="M0 0 C2.04296875 0.4609375 2.04296875 0.4609375 4.1875 1.375 C4.90292969 1.67148437 5.61835937 1.96796875 6.35546875 2.2734375 C7.16951172 2.63308594 7.16951172 2.63308594 8 3 C5.59454362 4.20272819 4.05003047 4.10071472 1.375 4.0625 C0.14910156 4.04896484 0.14910156 4.04896484 -1.1015625 4.03515625 C-2.04128906 4.01775391 -2.04128906 4.01775391 -3 4 C-3 3.34 -3 2.68 -3 2 C-2.01 1.34 -1.02 0.68 0 0 Z " fill="#393637" transform="translate(112,282)"/>
<path d="M0 0 C0.99 0 1.98 0 3 0 C2.45276317 3.37462715 1.9451 5.08235 0 8 C-0.66 8 -1.32 8 -2 8 C-1.505 6.2984375 -1.505 6.2984375 -1 4.5625 C0.04504273 1.45623361 0.04504273 1.45623361 0 0 Z " fill="#969696" transform="translate(76,217)"/>
<path d="M0 0 C2.05078125 0.03255208 4.1015625 0.06510417 6.15234375 0.09765625 C6.15234375 0.42765625 6.15234375 0.75765625 6.15234375 1.09765625 C5.07984375 1.38640625 4.00734375 1.67515625 2.90234375 1.97265625 C0.05834011 2.82585734 -2.28274608 3.66130655 -4.84765625 5.09765625 C-2.44354091 0.12915121 -2.44354091 0.12915121 0 0 Z " fill="#2F2E2E" transform="translate(91.84765625,58.90234375)"/>
<path d="M0 0 C0 3 0 3 -1.3125 4.38671875 C-2.875 5.59114583 -4.4375 6.79557292 -6 8 C-5.65120368 4.74456771 -4.97866739 3.98126893 -2.4375 1.75 C-1.633125 1.1725 -0.82875 0.595 0 0 Z " fill="#A6A5A6" transform="translate(180,228)"/>
<path d="M0 0 C0.99 0 1.98 0 3 0 C3 1.98 3 3.96 3 6 C2.01 6 1.02 6 0 6 C0 4.02 0 2.04 0 0 Z " fill="#1F191C" transform="translate(178,222)"/>
<path d="M0 0 C0.66 0 1.32 0 2 0 C1.375 2.375 1.375 2.375 0 5 C-3.125 6.3125 -3.125 6.3125 -6 7 C-6 6.34 -6 5.68 -6 5 C-4.34467377 3.98133771 -2.67739862 2.98189187 -1 2 C-0.67 1.34 -0.34 0.68 0 0 Z " fill="#ABA9AB" transform="translate(187,209)"/>
<path d="M0 0 C0.99 0.33 1.98 0.66 3 1 C3 2.32 3 3.64 3 5 C1.35 5 -0.3 5 -2 5 C-1.34 3.35 -0.68 1.7 0 0 Z " fill="#191315" transform="translate(91,202)"/>
<path d="M0 0 C0 0.33 0 0.66 0 1 C-1.27875 1.12375 -2.5575 1.2475 -3.875 1.375 C-7.34790936 1.69042399 -7.34790936 1.69042399 -10 4 C-10.99 3.67 -11.98 3.34 -13 3 C-9.21656826 -0.94792877 -5.07874402 -0.29300446 0 0 Z " fill="#7C6F73" transform="translate(208,191)"/>
<path d="M0 0 C-0.99 0.33 -1.98 0.66 -3 1 C-3.33 1.66 -3.66 2.32 -4 3 C-4.66 2.34 -5.32 1.68 -6 1 C-7.31747324 0.30251417 -8.64914193 -0.36959957 -10 -1 C-5.94568308 -2.15837626 -3.78187881 -1.83691257 0 0 Z " fill="#65575B" transform="translate(128,38)"/>
<path d="M0 0 C2.31 0 4.62 0 7 0 C7.33 0.66 7.66 1.32 8 2 C5.36 2.33 2.72 2.66 0 3 C0 2.01 0 1.02 0 0 Z " fill="#151213" transform="translate(108,33)"/>
<path d="M0 0 C-1 3 -1 3 -4 5 C-4.99 5 -5.98 5 -7 5 C-7 4.34 -7 3.68 -7 3 C-2.61538462 0 -2.61538462 0 0 0 Z " fill="#979696" transform="translate(196,293)"/>
<path d="M0 0 C0.66 0 1.32 0 2 0 C0.55746343 3.36591866 -1.33264727 5.51047079 -4 8 C-2.25 2.25 -2.25 2.25 0 0 Z " fill="#D0CFCF" transform="translate(165,111)"/>
<path d="M0 0 C1.98 0.495 1.98 0.495 4 1 C3.67 2.32 3.34 3.64 3 5 C1.68 5 0.36 5 -1 5 C-0.67 3.35 -0.34 1.7 0 0 Z " fill="#292224" transform="translate(204,95)"/>
</svg>
