<?xml version="1.0" encoding="UTF-8"?>
<svg version="1.1" xmlns="http://www.w3.org/2000/svg" width="243" height="304">
<path d="M0 0 C0.71671875 -0.020625 1.4334375 -0.04125 2.171875 -0.0625 C6.7663659 -0.09628302 9.62652845 0.39611533 13.25 3.25 C15.12890625 5.22265625 15.12890625 5.22265625 16.8125 7.3125 C19.09368618 10.14159232 20.88366507 11.8283312 24.25 13.25 C24.25 13.91 24.25 14.57 24.25 15.25 C25.28406982 15.28440186 26.31813965 15.31880371 27.38354492 15.35424805 C31.23319633 15.48866234 35.08096522 15.65456401 38.92895508 15.82983398 C40.59202148 15.90121231 42.2554738 15.96413545 43.91918945 16.01831055 C46.31614194 16.09785067 48.71004354 16.20809449 51.10546875 16.32421875 C52.21513252 16.35113045 52.21513252 16.35113045 53.34721375 16.37858582 C57.31716289 16.60342163 59.05773272 17.08294648 62.09838867 19.72485352 C62.80842041 20.55815186 63.51845215 21.3914502 64.25 22.25 C66.76888776 23.62224638 66.76888776 23.62224638 69.375 24.5 C70.22320312 24.81453125 71.07140625 25.1290625 71.9453125 25.453125 C73.7097379 26.06319751 75.4788854 26.65962847 77.25 27.25 C77.58 25.93 77.91 24.61 78.25 23.25 C81.62483413 23.16232445 84.99937215 23.10938372 88.375 23.0625 C89.32632813 23.03736328 90.27765625 23.01222656 91.2578125 22.98632812 C96.91502961 22.92739878 100.20204993 23.55594578 105.25 26.25 C108.31605427 26.79712276 111.39489758 26.97916555 114.5 27.1875 C120.88108784 27.72659295 126.21569596 28.56068649 132.06640625 31.30859375 C134.45921909 32.3402 136.6896728 32.84304093 139.25 33.3125 C140.075 33.46976563 140.9 33.62703125 141.75 33.7890625 C143.41307386 34.09569174 145.07997168 34.38227674 146.75 34.6484375 C153.92625858 36.19581826 157.05229708 39.94849965 161.671875 45.46875 C164.96359657 49.01981933 168.56858898 51.18793414 172.703125 53.640625 C178.95824554 57.59324718 182.92661558 62.698185 186.25 69.25 C189.65790785 75.7439107 189.65790785 75.7439107 194 81.625 C197.5500263 85.76669735 197.58489434 89.37707996 197.5390625 94.6171875 C196.99007496 99.61742532 194.49193094 103.4681157 191.66308594 107.52685547 C190.01507883 110.70271436 190.03420049 112.19603355 190.47265625 115.70703125 C190.59962891 116.73763672 190.72660156 117.76824219 190.85742188 118.83007812 C191.08268555 120.43012695 191.08268555 120.43012695 191.3125 122.0625 C191.4971582 123.64514648 191.4971582 123.64514648 191.68554688 125.25976562 C192.43820784 130.98498293 193.56215547 135.51467073 196.39135742 140.54907227 C197.59562692 142.93466952 197.72522235 145.1677421 197.875 147.8125 C198.40516959 151.25386868 198.75247581 152.78168651 201.3125 155.19140625 C203.0426565 156.32814017 204.7993499 157.42533549 206.578125 158.484375 C210.25876805 160.9166128 212.73047095 164.00208055 215.4609375 167.4296875 C217.31900363 169.63693034 217.31900363 169.63693034 221.25 170.25 C221.25 183.45 221.25 196.65 221.25 210.25 C201.85597826 208.75815217 201.85597826 208.75815217 194.8125 204.0625 C189.89456659 201.56039353 185.66811606 201.5706387 180.25 202.25 C176.47693677 203.66489871 175.57477839 204.6629006 173.625 208.1875 C173.17125 209.198125 172.7175 210.20875 172.25 211.25 C171.7446875 211.81976563 171.239375 212.38953125 170.71875 212.9765625 C168.09549541 217.03702571 168.4361677 221.89780933 168.0703125 226.62109375 C167.09006838 230.95750704 165.52516958 232.35331689 162.25 235.25 C160.18231874 239.46194332 158.66697014 243.78109419 157.25 248.25 C158.8278125 248.9925 158.8278125 248.9925 160.4375 249.75 C167.97951163 254.16594645 170.08699985 261.962246 172.37548828 269.9699707 C173.30151442 273.06165159 173.97059435 274.99464575 176.3828125 277.19921875 C179.17049495 280.26100387 178.72112303 283.3962736 178.5625 287.3125 C178.54799805 288.39241211 178.54799805 288.39241211 178.53320312 289.49414062 C178.46583218 292.64885846 178.25287573 295.24137281 177.25 298.25 C176.11457764 298.3001123 174.97915527 298.35022461 173.80932617 298.40185547 C169.59890185 298.59012705 165.38912803 298.79053678 161.17944336 298.99462891 C159.35700695 299.08128023 157.53441065 299.16463402 155.71166992 299.24462891 C153.09244591 299.36015145 150.47402494 299.48750171 147.85546875 299.6171875 C146.63188911 299.66732498 146.63188911 299.66732498 145.3835907 299.71847534 C141.55615333 299.91921923 139.50265223 300.08156518 136.25 302.25 C127.8969045 303.50349773 115.02486694 305.17852803 107.29443359 301.25830078 C104.98730128 299.20244823 103.61150435 296.76935702 102.1015625 294.09765625 C98.87641546 289.13746175 93.59080117 287.3917426 88.25 285.25 C88.25 284.59 88.25 283.93 88.25 283.25 C87.59 283.25 86.93 283.25 86.25 283.25 C86.25 282.59 86.25 281.93 86.25 281.25 C85.5293335 281.26047363 84.80866699 281.27094727 84.06616211 281.28173828 C80.77331079 281.32353715 77.4805155 281.34940188 74.1875 281.375 C73.05376953 281.39175781 71.92003906 281.40851563 70.75195312 281.42578125 C64.87602595 281.46004322 59.75015417 281.42252265 54.25 279.25 C49.76359717 274.76359717 50.01946416 269.28256206 49.9375 263.25 C49.89399414 262.18265625 49.89399414 262.18265625 49.84960938 261.09375 C49.80537128 257.44580849 49.9417099 255.63163572 52.26953125 252.75 C53.24986328 252.0075 53.24986328 252.0075 54.25 251.25 C53.445625 250.46625 52.64125 249.6825 51.8125 248.875 C48.21515619 245.1899161 48.07408209 243.42492892 48 238.375 C47.97421875 237.32570312 47.9484375 236.27640625 47.921875 235.1953125 C48.30167778 231.78613038 49.16078819 230.89309587 51.25 228.25 C52.45825991 225.60060744 53.4170627 222.87332843 54.375 220.125 C54.77900024 218.98865112 54.77900024 218.98865112 55.19116211 217.8293457 C56.88638746 212.86971263 57.68782579 208.3798113 57.91015625 203.1328125 C58.25 201.25 58.25 201.25 60.75 198.8125 C61.9875 198.0390625 61.9875 198.0390625 63.25 197.25 C63.58 196.26 63.91 195.27 64.25 194.25 C63.59 193.59 62.93 192.93 62.25 192.25 C61.99481747 190.67353906 61.79343205 189.08807363 61.625 187.5 C61.03884934 183.56601798 61.03884934 183.56601798 58.34375 180.890625 C57.6115625 180.51421875 56.879375 180.1378125 56.125 179.75 C53.94921875 178.40625 53.94921875 178.40625 52.25 176.25 C51.61269793 172.46680471 51.83519771 168.68518031 52.10693359 164.87304688 C52.44094986 159.88703743 52.49738457 156.368787 49.25 152.25 C46.41940189 151.2561187 44.10093589 150.66259191 41.1875 150.1875 C28.16464868 147.54107936 19.84873217 142.38616371 11.25 132.25 C9.58305646 129.73130679 8.09923599 127.18045506 6.64453125 124.53515625 C3.8538122 119.96212923 -0.21642137 116.5117831 -4.32324219 113.1328125 C-7.33067417 109.56020115 -7.45106233 106.92283116 -7.38671875 102.45703125 C-7.39709671 101.71096115 -7.40747467 100.96489105 -7.41816711 100.19621277 C-7.44775812 97.81783782 -7.44449921 95.44102469 -7.4375 93.0625 C-6.88011684 75.69582418 -6.88011684 75.69582418 -12.8125 59.8125 C-15.4980177 55.7218459 -16.87563158 52.78927504 -16.8828125 47.85546875 C-16.88498779 46.98897705 -16.88716309 46.12248535 -16.8894043 45.22973633 C-16.88465088 44.30829834 -16.87989746 43.38686035 -16.875 42.4375 C-16.87089111 41.49350342 -16.86678223 40.54950684 -16.86254883 39.5769043 C-16.54993165 0.11654881 -16.54993165 0.11654881 0 0 Z " fill="#0D0D0D" transform="translate(19.75,-0.25)"/>
<path d="M0 0 C3.77505019 0.58341685 5.67840099 2.24818221 8.5 4.75 C16.40570615 11.2736716 25.66073046 15.03675859 35.94140625 15.17578125 C37.31135742 15.21155273 37.31135742 15.21155273 38.70898438 15.24804688 C40.61500436 15.29109866 42.5213279 15.32230397 44.42773438 15.34179688 C51.3820252 15.55312868 51.3820252 15.55312868 54.65234375 17.91796875 C56 20 56 20 56 22 C56.825 21.896875 57.65 21.79375 58.5 21.6875 C63.23852561 22.11058264 66.25752935 24.16721305 70 27 C70.43570313 27.5465625 70.87140625 28.093125 71.3203125 28.65625 C73.96123111 30.76898489 76.38458379 30.28560642 79.6875 30.1875 C80.86699219 30.16042969 82.04648438 30.13335937 83.26171875 30.10546875 C84.61716797 30.05326172 84.61716797 30.05326172 86 30 C87.32 27.69 88.64 25.38 90 23 C95.20186922 23.5381244 98.90358688 24.30119563 104 26 C103.01 31.28 102.02 36.56 101 42 C96.96423344 43.00894164 93.36293071 43.11303696 89.25 43.0625 C88.20392578 43.05573242 88.20392578 43.05573242 87.13671875 43.04882812 C85.42444197 43.0371002 83.71220967 43.01916653 82 43 C82 42.34 82 41.68 82 41 C78.62653665 40.86043273 78.62653665 40.86043273 75 42 C70.87765045 46.57342732 70.30000799 53.00218109 69.58984375 58.875 C69.09646681 61.48891755 68.47683053 63.34312905 67.453125 65.75 C65.58481251 70.51003181 65.66111136 74.94594837 65.8125 80 C65.82603516 80.87011719 65.83957031 81.74023438 65.85351562 82.63671875 C65.88848322 84.75808627 65.9422747 86.87912974 66 89 C65.34 89 64.68 89 64 89 C64.27617533 90.94074861 64.27617533 90.94074861 65 93 C66.485 93.99 66.485 93.99 68 95 C68.28875 95.928125 68.5775 96.85625 68.875 97.8125 C70.22376028 101.63398747 72.01807333 103.30206634 75 106 C75.556875 106.680625 76.11375 107.36125 76.6875 108.0625 C79.72850338 110.6103677 82.95528104 111.7220722 86.66015625 113.0703125 C89 114 89 114 92 116 C93.94603274 116.59070014 93.94603274 116.59070014 96 117 C99.02555412 117.64178421 100.30491252 118.20327502 103 120 C104.9896995 120.39013716 106.99019869 120.73202649 109 121 C109 120.34 109 119.68 109 119 C111.31 119 113.62 119 116 119 C121.25241649 131.63022942 121.15176715 143.56017601 121 157 C120.01 157 119.02 157 118 157 C117.9071875 158.3303125 117.9071875 158.3303125 117.8125 159.6875 C116.80841878 163.78106188 115.04774567 165.17526011 112 168 C109.34132715 171.67150061 109.35920536 175.65316625 110 180 C111.21873628 184.36234358 112.69865317 188.61276141 114.23828125 192.86914062 C115.03853757 195.10780639 115.80334486 197.35645938 116.5625 199.609375 C117.08288514 201.13556956 117.60370924 202.66161453 118.125 204.1875 C118.36621582 204.90607178 118.60743164 205.62464355 118.85595703 206.36499023 C120.14820679 210.07877294 121.58172408 212.92406263 124 216 C124.4818386 217.99159955 124.9624779 219.98357328 125.421875 221.98046875 C127.07224159 227.74560068 130.6722625 230.8016345 135.609375 233.7265625 C136.06828125 234.14679688 136.5271875 234.56703125 137 235 C137 236.32 137 237.64 137 239 C137.99 239.33 138.98 239.66 140 240 C140.44730469 240.80695313 140.89460937 241.61390625 141.35546875 242.4453125 C143.40594719 245.6306163 144.71615221 245.91000488 148.3125 246.875 C153.91484398 248.73258037 157.03620945 250.8688116 160 256 C162.5303857 261.45674779 163.1317064 265.9707735 163 272 C162.36497559 272.01981934 161.72995117 272.03963867 161.07568359 272.06005859 C158.17506674 272.15581122 155.27512095 272.26528546 152.375 272.375 C150.87646484 272.42140625 150.87646484 272.42140625 149.34765625 272.46875 C144.16633099 272.67463047 139.89236773 273.14842698 135 275 C133.68 275 132.36 275 131 275 C131 275.66 131 276.32 131 277 C126.7657888 278.0585528 122.27940684 279.17556828 118 278 C116.16955479 276.20080629 114.88103687 274.2894043 113.46875 272.1484375 C111.12461991 268.7195238 108.29403977 266.48122476 105 264 C104.21238281 263.29101562 103.42476563 262.58203125 102.61328125 261.8515625 C91.54728375 253.24635299 78.3290564 255.25527997 65 256 C64.505 252.535 64.505 252.535 64 249 C64.86625 248.54173828 64.86625 248.54173828 65.75 248.07421875 C69.22703795 245.93125265 71.56611295 244.34964866 72.84765625 240.36328125 C73.08399452 237.2135367 73.00123999 235.00371996 72 232 C69.31533213 229.3050263 66.42826969 227.61210301 63 226 C63.32388351 221.46563079 63.75955874 218.10259499 66 214.125 C67.7500524 210.94479725 68.31045611 208.43227923 68.5625 204.8125 C68.85626921 200.71848227 69.29700349 198.24359581 72 195 C73.20541605 194.07950047 74.41403474 193.16318692 75.625 192.25 C78.50184899 189.87903759 79.57134591 188.26820752 80.125 184.5625 C80.29641279 180.09086194 78.91464268 177.04202344 77 173 C76.67560163 171.29757881 76.38567016 169.58833689 76.125 167.875 C75.28372135 163.16954313 73.68675078 161.13373816 70 158 C68.00325957 154.87087993 67.86577636 152.71980741 68.125 149.0625 C68.23850697 144.18170022 67.11838533 142.76040583 64 139 C63.0588204 135.36973583 62.49448057 131.7151106 62 128 C61.28457031 127.90203125 60.56914063 127.8040625 59.83203125 127.703125 C44.003431 125.32781112 31.73806075 121.63483008 21.8359375 108.58203125 C19.64137734 105.4956392 17.56388055 102.34631887 15.51171875 99.1640625 C13.42716411 96.17997136 11.01799107 93.5595041 8.515625 90.921875 C4.96846163 86.42392557 4.70846189 81.86680667 4.69140625 76.3203125 C4.66624487 74.81900656 4.64084687 73.31770456 4.61523438 71.81640625 C4.58654663 69.47087647 4.56250333 67.12541521 4.54370117 64.77978516 C4.52190754 62.50127259 4.48246301 60.22354793 4.44140625 57.9453125 C4.44129044 57.25341827 4.44117462 56.56152405 4.4410553 55.84866333 C4.31328075 49.48771937 2.15927292 45.2756098 -0.6875 39.6875 C-2 37 -2 37 -2 35 C-2.66 35 -3.32 35 -4 35 C-4.12078098 28.03496374 -4.00167313 21.08298843 -3.6875 14.125 C-3.66502197 13.412229 -3.64254395 12.69945801 -3.61938477 11.96508789 C-3.37864068 7.30906445 -2.34784233 4.01588044 0 0 Z " fill="#FAF9F9" transform="translate(19,13)"/>
<path d="M0 0 C1.60488281 0.00483398 1.60488281 0.00483398 3.2421875 0.00976562 C4.35335937 0.01814453 5.46453125 0.02652344 6.609375 0.03515625 C8.29933594 0.04192383 8.29933594 0.04192383 10.0234375 0.04882812 C12.80213717 0.06060228 15.58072909 0.07704785 18.359375 0.09765625 C18.41544922 1.82048828 18.41544922 1.82048828 18.47265625 3.578125 C18.84970541 13.08962674 19.8541605 21.87272577 22.359375 31.09765625 C22.67278983 32.53495707 22.98541415 33.97243074 23.296875 35.41015625 C24.13897138 38.33272605 24.92533759 40.26003894 26.359375 42.84765625 C28.26798117 46.32282447 28.61039438 49.1621233 28.921875 53.09765625 C29.45492516 56.86674544 29.82322011 58.57473975 32.57421875 61.2578125 C34.46823581 62.55148193 36.39062999 63.80435228 38.3359375 65.01953125 C42.63529218 67.97464325 45.72397572 71.71220794 49.0703125 75.6796875 C51.22436664 78.21967491 51.22436664 78.21967491 54.12890625 79.53515625 C54.86496094 80.05078125 55.60101563 80.56640625 56.359375 81.09765625 C56.84765625 84.015625 56.84765625 84.015625 56.671875 87.28515625 C56.60419922 88.91517578 56.60419922 88.91517578 56.53515625 90.578125 C56.47714844 91.40957031 56.41914063 92.24101562 56.359375 93.09765625 C51.5126117 92.75950997 47.87551049 91.49608531 43.421875 89.53515625 C32.93751118 85.37277936 22.15713969 85.9149347 11.49609375 89.44140625 C9.359375 90.09765625 9.359375 90.09765625 6.359375 90.09765625 C6.029375 92.73765625 5.699375 95.37765625 5.359375 98.09765625 C2.884375 98.59265625 2.884375 98.59265625 0.359375 99.09765625 C0.31973633 99.65227539 0.28009766 100.20689453 0.23925781 100.77832031 C0.04811809 103.30326548 -0.17094872 105.82504032 -0.390625 108.34765625 C-0.4834375 109.65669922 -0.4834375 109.65669922 -0.578125 110.9921875 C-1.16943652 117.44733827 -1.16943652 117.44733827 -3.53125 120.70703125 C-5.640625 122.09765625 -5.640625 122.09765625 -8.640625 122.09765625 C-8.82625 123.42796875 -8.82625 123.42796875 -9.015625 124.78515625 C-9.59323962 127.84651372 -10.25073037 130.31786699 -11.640625 133.09765625 C-14.640625 135.09765625 -14.640625 135.09765625 -17.640625 135.09765625 C-18.300625 136.74765625 -18.960625 138.39765625 -19.640625 140.09765625 C-23.59481749 139.19897614 -25.2984344 138.53761559 -27.828125 135.28515625 C-28.42625 134.23328125 -29.024375 133.18140625 -29.640625 132.09765625 C-30.1975 131.29328125 -30.754375 130.48890625 -31.328125 129.66015625 C-32.640625 127.09765625 -32.640625 127.09765625 -33.015625 124.03515625 C-33.92285596 118.31960121 -36.35119775 113.38312411 -38.640625 108.09765625 C-39.69623928 105.44936077 -40.6739055 102.77934707 -41.640625 100.09765625 C-41.92035156 99.39253906 -42.20007813 98.68742187 -42.48828125 97.9609375 C-44.5820147 92.3808944 -45.81135935 87.03562085 -44.640625 81.09765625 C-43.40160016 78.6837632 -42.01451361 76.63095836 -40.34375 74.49609375 C-34.83470085 66.73793738 -34.01187007 60.53619698 -34.140625 51.03515625 C-34.12515625 49.88982422 -34.1096875 48.74449219 -34.09375 47.56445312 C-34.1253963 40.72489742 -34.85041146 36.76041576 -38.640625 31.09765625 C-38.640625 29.77765625 -38.640625 28.45765625 -38.640625 27.09765625 C-38.04894531 26.8553125 -37.45726562 26.61296875 -36.84765625 26.36328125 C-28.80034087 22.95006429 -24.54646677 19.40800426 -19.97265625 11.92578125 C-19.53308594 11.3225 -19.09351563 10.71921875 -18.640625 10.09765625 C-17.980625 10.09765625 -17.320625 10.09765625 -16.640625 10.09765625 C-16.41375 9.35515625 -16.186875 8.61265625 -15.953125 7.84765625 C-14.36453987 4.51919217 -12.69063634 3.13099714 -9.640625 1.09765625 C-6.40429913 0.01989867 -3.39531536 -0.01806019 0 0 Z " fill="#F9F8F8" transform="translate(177.640625,102.90234375)"/>
<path d="M0 0 C2.75314544 0.87728717 5.49067483 1.39249238 8.33618164 1.87695312 C19.28061975 3.75792465 19.28061975 3.75792465 23.66015625 8.84765625 C24.21703125 9.79640625 24.77390625 10.74515625 25.34765625 11.72265625 C27.72970715 14.94164395 29.46649121 16.12676116 32.84765625 18.16015625 C40.55219738 22.83644191 47.10888036 28.40601261 50.7578125 36.796875 C52.144305 39.94799431 53.90228645 42.88110381 55.609375 45.8671875 C56.66015625 47.84765625 56.66015625 47.84765625 57.66015625 50.84765625 C56.47395724 54.10970354 55.65946819 54.84811496 52.66015625 56.84765625 C49.6640625 57.078125 49.6640625 57.078125 46.22265625 57.03515625 C45.08957031 57.02871094 43.95648438 57.02226563 42.7890625 57.015625 C40.17478538 56.87528303 38.16404278 56.48087852 35.66015625 55.84765625 C26.60543298 54.89389547 26.60543298 54.89389547 18.47265625 58.03515625 C17.34812527 59.78011811 16.25744458 61.54802437 15.22265625 63.34765625 C13.54651838 66.02947684 11.60739252 67.53741934 9.12890625 69.45703125 C7.48682604 71.01176677 6.70936405 72.44820405 5.72265625 74.47265625 C3.14835893 78.68514277 1.22781506 79.17284802 -3.33984375 80.84765625 C-4.49198046 81.73536814 -5.63744051 82.63178922 -6.77734375 83.53515625 C-12.71199769 87.41370962 -20.54351248 86.52800553 -27.33984375 85.84765625 C-30.44248999 84.84652422 -32.49659127 83.74202205 -35.21484375 81.91015625 C-38.25184582 79.74154551 -38.25184582 79.74154551 -41.671875 78.5859375 C-45.773503 76.8673813 -48.26741725 74.28482856 -51.15234375 70.97265625 C-51.62865234 70.45574219 -52.10496094 69.93882813 -52.59570312 69.40625 C-58.24789099 63.09424274 -58.68216982 58.12113771 -58.65234375 49.97265625 C-58.66845703 49.09996094 -58.68457031 48.22726563 -58.70117188 47.328125 C-58.7054454 41.64434232 -57.81383265 37.94260369 -55.33984375 32.84765625 C-54.77068732 30.81892978 -54.24662886 28.7767842 -53.77734375 26.72265625 C-52.90524974 22.92880094 -51.86889577 19.43075669 -50.33984375 15.84765625 C-47.52734375 15.66015625 -47.52734375 15.66015625 -44.33984375 15.84765625 C-42.77734375 17.28515625 -42.77734375 17.28515625 -41.33984375 18.84765625 C-38.73373298 19.56962787 -38.73373298 19.56962787 -36.33984375 19.84765625 C-36.33984375 19.18765625 -36.33984375 18.52765625 -36.33984375 17.84765625 C-35.07527344 17.79158203 -35.07527344 17.79158203 -33.78515625 17.734375 C-32.14160156 17.63576172 -32.14160156 17.63576172 -30.46484375 17.53515625 C-29.37429687 17.47714844 -28.28375 17.41914062 -27.16015625 17.359375 C-26.22945312 17.19050781 -25.29875 17.02164063 -24.33984375 16.84765625 C-21.52303717 12.62244639 -21.90584324 8.7651949 -21.68359375 3.78125 C-21.33984375 0.84765625 -21.33984375 0.84765625 -19.33984375 -1.15234375 C-12.67954246 -3.33055549 -6.40837178 -2.42998224 0 0 Z " fill="#F9F7F8" transform="translate(146.33984375,43.15234375)"/>
<path d="M0 0 C0.94875 0.165 1.8975 0.33 2.875 0.5 C7.5763877 1.18541792 12.26003286 1.08583441 17 1 C17 1.33 17 1.66 17 2 C15.60974609 2.19916016 15.60974609 2.19916016 14.19140625 2.40234375 C12.99386719 2.57894531 11.79632813 2.75554688 10.5625 2.9375 C9.36753906 3.11152344 8.17257813 3.28554688 6.94140625 3.46484375 C4.12044324 3.68985213 4.12044324 3.68985213 3 5 C2.75408786 8.26516681 2.61576894 11.52943002 2.4765625 14.80078125 C1.9656618 18.23051629 1.62070388 19.73389453 -1 22 C-3.91796875 22.390625 -3.91796875 22.390625 -7.1875 22.25 C-8.27417969 22.21390625 -9.36085938 22.1778125 -10.48046875 22.140625 C-11.31191406 22.09421875 -12.14335938 22.0478125 -13 22 C-13 22.66 -13 23.32 -13 24 C-15.3125 24.1875 -15.3125 24.1875 -18 24 C-19 23 -20 22 -21 21 C-22.99087085 20.61588494 -24.99161869 20.27841625 -27 20 C-27.25394531 21.14597656 -27.50789063 22.29195312 -27.76953125 23.47265625 C-28.11683806 25.00268353 -28.46451401 26.53262705 -28.8125 28.0625 C-28.97814453 28.81466797 -29.14378906 29.56683594 -29.31445312 30.34179688 C-30.14523539 33.96275352 -31.02119512 37.04505887 -32.61328125 40.4296875 C-34.422154 45.08689791 -34.44110617 49.11555497 -34.375 54.0625 C-34.38660156 54.93455078 -34.39820312 55.80660156 -34.41015625 56.70507812 C-34.36651243 66.31399144 -30.16588948 71.5904671 -23.7734375 78.5078125 C-20.42970892 81.51245875 -17.40346815 82.95627907 -13.12890625 84.21875 C-10.73946543 85.09560902 -9.77183655 86.22343855 -8 88 C-1.84766411 90.39884656 8.63721668 90.29300707 14.72265625 87.953125 C16.62721618 86.74275047 18.30075399 85.47955457 20 84 C23 82 23 82 27 82 C27.20625 81.319375 27.4125 80.63875 27.625 79.9375 C29.42895027 76.08360625 31.9010345 72.92212236 35 70 C35.66 70 36.32 70 37 70 C37.37125 68.9171875 37.37125 68.9171875 37.75 67.8125 C39.38398823 64.13602647 41.32203419 60.83898291 45 59 C47.28919778 58.87664724 49.58251218 58.82441522 51.875 58.8125 C53.10992187 58.79832031 54.34484375 58.78414062 55.6171875 58.76953125 C58.74086712 58.98234545 60.40061596 59.34762774 63 61 C60.36 61 57.72 61 55 61 C55 61.66 55 62.32 55 63 C58.96 63 62.92 63 67 63 C67 63.33 67 63.66 67 64 C65.75863281 64.04898438 64.51726562 64.09796875 63.23828125 64.1484375 C61.59633306 64.22349799 59.95440703 64.29904439 58.3125 64.375 C57.49587891 64.4059375 56.67925781 64.436875 55.83789062 64.46875 C49.85612719 64.75936199 45.82204326 65.34359704 41.25 69.5 C39.00138505 71.77562241 39.00138505 71.77562241 38 74 C37.34 74 36.68 74 36 74 C35.72671875 74.5775 35.4534375 75.155 35.171875 75.75 C32.03452847 81.77370533 28.09780924 86.82405769 22 90 C18.625 90.75 18.625 90.75 16 91 C16.45341868 92.27259511 16.91295227 93.54301243 17.375 94.8125 C17.63023437 95.52019531 17.88546875 96.22789062 18.1484375 96.95703125 C19.0265769 99.24773359 19.0265769 99.24773359 21 102 C21.47076453 106.21354033 21.3703669 110.45052782 21.375 114.6875 C21.39949219 115.84701172 21.42398438 117.00652344 21.44921875 118.20117188 C21.48122056 127.58303689 19.46705265 133.06987717 13.75 140.375 C10.43012493 145.26656276 10.07144395 149.22838689 11 155 C11.7737519 158.10532428 12.82091463 161.02783549 14 164 C14.22816406 164.63292969 14.45632812 165.26585937 14.69140625 165.91796875 C15.79068357 168.96453733 16.97795979 171.94911705 18.265625 174.921875 C20.63099765 180.38670146 22.27234347 185.05747171 23 191 C24.31865712 193.64225405 24.31865712 193.64225405 26 196 C26.433125 196.86625 26.86625 197.7325 27.3125 198.625 C29.44175839 201.62173403 31.65600174 202.58808962 35 204 C35.66 202.35 36.32 200.7 37 199 C37.66 199.33 38.32 199.66 39 200 C38.525625 200.66 38.05125 201.32 37.5625 202 C35.58682146 205.7933028 35.35972537 208.75524068 35 213 C34.34 213 33.68 213 33 213 C32.835 212.29875 32.67 211.5975 32.5 210.875 C30.90556451 207.81899865 29.82610369 206.9843455 27.0625 205.0625 C22.25691666 201.65601054 20.66066971 198.33436629 19.0625 192.6875 C18.24697641 189.85715342 17.38823122 187.54377531 16.16015625 184.90625 C13.93388485 179.96877181 12.12743182 174.9340983 10.375 169.8125 C10.0759375 168.94947266 9.776875 168.08644531 9.46875 167.19726562 C8.89420881 165.53592639 8.32290935 163.87346135 7.75537109 162.2097168 C7.11861778 160.34699726 6.46722154 158.48929265 5.8125 156.6328125 C4.19149043 151.38011804 4.19887006 146.95607677 6.75 142.125 C9 139 9 139 11.1875 137.9375 C11.785625 137.628125 12.38375 137.31875 13 137 C13.81584568 133.94091587 13.81584568 133.94091587 14 131 C14.99 131 15.98 131 17 131 C16.74884181 126.68612141 16.47050308 122.37439726 16.1875 118.0625 C16.11724609 116.85013672 16.04699219 115.63777344 15.97460938 114.38867188 C15.55036114 108.12676791 14.90699596 102.5371654 12.61450195 96.66967773 C12 95 12 95 12 93 C9.69 93 7.38 93 5 93 C5 93.66 5 94.32 5 95 C0.17288077 95.33677576 -1.95737945 94.50257462 -6 92 C-7.32290515 91.62742671 -8.65800537 91.29654563 -10 91 C-13.4923685 90.21013722 -15.96800077 88.94358925 -19 87 C-20.134375 86.5875 -21.26875 86.175 -22.4375 85.75 C-26.32547872 83.84011572 -28.03611283 81.971559 -30.6484375 78.6328125 C-32.01132476 76.84023934 -32.01132476 76.84023934 -34.3125 75.375 C-36.60783446 73.50472747 -36.49004875 71.84115698 -37 69 C-37.99 68.34 -38.98 67.68 -40 67 C-40 65.68 -40 64.36 -40 63 C-39.34 63 -38.68 63 -38 63 C-38.2475 61.081875 -38.2475 61.081875 -38.5 59.125 C-39.4368957 50.16156504 -39.14778423 43.50961159 -36.0078125 34.95703125 C-35.06272975 32.18405589 -34.48136314 29.57130283 -34 26.6875 C-33.18320117 22.09115024 -31.54234113 18.89825639 -29 15 C-26.69 15 -24.38 15 -22 15 C-22 15.66 -22 16.32 -22 17 C-15.73 16.67 -9.46 16.34 -3 16 C-2.814375 13.4321875 -2.814375 13.4321875 -2.625 10.8125 C-2.33580973 6.81203466 -1.64800856 3.66447432 0 0 Z " fill="#272324" transform="translate(123,39)"/>
<path d="M0 0 C0.33 0 0.66 0 1 0 C1.11703447 4.16642697 1.18753101 8.3324259 1.25 12.5 C1.30027344 14.25957031 1.30027344 14.25957031 1.3515625 16.0546875 C1.45829856 25.5541964 -0.46237769 30.97970482 -6.25 38.375 C-9.56987507 43.26656276 -9.92855605 47.22838689 -9 53 C-8.2262481 56.10532428 -7.17908537 59.02783549 -6 62 C-5.77183594 62.63292969 -5.54367188 63.26585937 -5.30859375 63.91796875 C-4.20931643 66.96453733 -3.02204021 69.94911705 -1.734375 72.921875 C0.63099765 78.38670146 2.27234347 83.05747171 3 89 C4.31865712 91.64225405 4.31865712 91.64225405 6 94 C6.433125 94.86625 6.86625 95.7325 7.3125 96.625 C9.44175839 99.62173403 11.65600174 100.58808962 15 102 C15.66 100.35 16.32 98.7 17 97 C17.99 97.495 17.99 97.495 19 98 C18.525625 98.66 18.05125 99.32 17.5625 100 C15.58682146 103.7933028 15.35972537 106.75524068 15 111 C14.34 111 13.68 111 13 111 C12.7525 109.948125 12.7525 109.948125 12.5 108.875 C10.90556451 105.81899865 9.82610369 104.9843455 7.0625 103.0625 C2.25691666 99.65601054 0.66066971 96.33436629 -0.9375 90.6875 C-1.75302359 87.85715342 -2.61176878 85.54377531 -3.83984375 82.90625 C-6.06611515 77.96877181 -7.87256818 72.9340983 -9.625 67.8125 C-9.9240625 66.94947266 -10.223125 66.08644531 -10.53125 65.19726562 C-11.10579119 63.53592639 -11.67709065 61.87346135 -12.24462891 60.2097168 C-12.88138222 58.34699726 -13.53277846 56.48929265 -14.1875 54.6328125 C-15.80850957 49.38011804 -15.80112994 44.95607677 -13.25 40.125 C-11 37 -11 37 -8.8125 35.9375 C-8.214375 35.628125 -7.61625 35.31875 -7 35 C-6.18415432 31.94091587 -6.18415432 31.94091587 -6 29 C-5.01 29 -4.02 29 -3 29 C-3 24.05 -3 19.1 -3 14 C-2.34 14.66 -1.68 15.32 -1 16 C-0.67 10.72 -0.34 5.44 0 0 Z " fill="#403739" transform="translate(143,141)"/>
<path d="M0 0 C1.23492187 -0.01417969 2.46984375 -0.02835937 3.7421875 -0.04296875 C6.86586712 0.16984545 8.52561596 0.53512774 11.125 2.1875 C8.485 2.1875 5.845 2.1875 3.125 2.1875 C3.125 2.8475 3.125 3.5075 3.125 4.1875 C7.085 4.1875 11.045 4.1875 15.125 4.1875 C15.125 4.5175 15.125 4.8475 15.125 5.1875 C13.88363281 5.23648438 12.64226562 5.28546875 11.36328125 5.3359375 C9.72133306 5.41099799 8.07940703 5.48654439 6.4375 5.5625 C5.62087891 5.5934375 4.80425781 5.624375 3.96289062 5.65625 C-2.01887281 5.94686199 -6.05295674 6.53109704 -10.625 10.6875 C-12.87361495 12.96312241 -12.87361495 12.96312241 -13.875 15.1875 C-14.535 15.1875 -15.195 15.1875 -15.875 15.1875 C-16.14828125 15.765 -16.4215625 16.3425 -16.703125 16.9375 C-19.84047153 22.96120533 -23.77719076 28.01155769 -29.875 31.1875 C-33.25 31.9375 -33.25 31.9375 -35.875 32.1875 C-36.205 33.1775 -36.535 34.1675 -36.875 35.1875 C-36.875 33.8675 -36.875 32.5475 -36.875 31.1875 C-37.865 30.8575 -38.855 30.5275 -39.875 30.1875 C-39.33230469 29.84976563 -38.78960937 29.51203125 -38.23046875 29.1640625 C-37.51503906 28.71804687 -36.79960937 28.27203125 -36.0625 27.8125 C-35.35480469 27.37164062 -34.64710938 26.93078125 -33.91796875 26.4765625 C-32.22067961 25.40561524 -30.54485642 24.30073761 -28.875 23.1875 C-27.555 23.1875 -26.235 23.1875 -24.875 23.1875 C-24.66875 22.506875 -24.4625 21.82625 -24.25 21.125 C-22.44604973 17.27110625 -19.9739655 14.10962236 -16.875 11.1875 C-16.215 11.1875 -15.555 11.1875 -14.875 11.1875 C-14.6275 10.465625 -14.38 9.74375 -14.125 9 C-10.83335586 1.59380068 -7.78957048 0.04048633 0 0 Z " fill="#4F4649" transform="translate(174.875,97.8125)"/>
<path d="M0 0 C0.33 0 0.66 0 1 0 C1.11703447 4.16642697 1.18753101 8.3324259 1.25 12.5 C1.30027344 14.25957031 1.30027344 14.25957031 1.3515625 16.0546875 C1.45829856 25.5541964 -0.46237769 30.97970482 -6.25 38.375 C-9.61532986 43.30855663 -9.64174737 47.19715756 -9 53 C-8.91878906 53.86882812 -8.83757812 54.73765625 -8.75390625 55.6328125 C-8.53728555 57.75902798 -8.27350313 59.88035077 -8 62 C-9.485 62.495 -9.485 62.495 -11 63 C-16.85336049 48.78469596 -16.85336049 48.78469596 -14.234375 42.0234375 C-12.80094267 39.25896087 -11.65792392 37.31956305 -8.8125 35.9375 C-8.214375 35.628125 -7.61625 35.31875 -7 35 C-6.18415432 31.94091587 -6.18415432 31.94091587 -6 29 C-5.01 29 -4.02 29 -3 29 C-3 24.05 -3 19.1 -3 14 C-2.34 14.66 -1.68 15.32 -1 16 C-0.67 10.72 -0.34 5.44 0 0 Z " fill="#393033" transform="translate(143,141)"/>
<path d="M0 0 C3.51358617 2.34239078 4.13284843 3.96435172 5.875 7.75 C8.15781306 12.50348853 10.50057726 16.10064324 14 20 C15.93333459 25.80000378 15.93872198 31.78905435 13.1875 37.3125 C12.01587947 39.38191405 10.77400308 41.32425343 9.41308594 43.27685547 C7.76507883 46.45271436 7.78420049 47.94603355 8.22265625 51.45703125 C8.34962891 52.48763672 8.47660156 53.51824219 8.60742188 54.58007812 C8.75759766 55.64677734 8.90777344 56.71347656 9.0625 57.8125 C9.18560547 58.86759766 9.30871094 59.92269531 9.43554688 61.00976562 C10.18820784 66.73498293 11.31215547 71.26467073 14.14135742 76.29907227 C15.34562692 78.68466952 15.47522235 80.9177421 15.625 83.5625 C16.15516959 87.00386868 16.50247581 88.53168651 19.0625 90.94140625 C20.78838943 92.07533665 22.5396786 93.17141411 24.3125 94.23046875 C28.65391653 97.08898864 31.74643873 100.99212145 35 105 C33.02 105.495 33.02 105.495 31 106 C30.505 104.948125 30.01 103.89625 29.5 102.8125 C26.68625675 97.84825299 22.11079804 95.1165543 16.8125 93.21484375 C15 92 15 92 14.3125 89.4609375 C14.209375 88.44257813 14.10625 87.42421875 14 86.375 C13.60132529 82.49788842 12.89804995 79.61292905 11.046875 76.22265625 C8.62372955 71.63489262 7.91095699 67.16742078 7.25 62.0625 C7.12496094 61.22009766 6.99992188 60.37769531 6.87109375 59.50976562 C4.87131946 45.23665134 4.87131946 45.23665134 7.27734375 40.46875 C8.09912109 39.49421875 8.09912109 39.49421875 8.9375 38.5 C12.17460606 34.10459296 13.43869329 30.48366609 13 25 C11.34049545 20.3143401 8.27562709 16.41292546 5.49609375 12.31640625 C0 3.80678851 0 3.80678851 0 0 Z " fill="#6E6E6E" transform="translate(202,64)"/>
<path d="M0 0 C0.94875 0.165 1.8975 0.33 2.875 0.5 C7.5763877 1.18541792 12.26003286 1.08583441 17 1 C17 1.33 17 1.66 17 2 C15.60974609 2.19916016 15.60974609 2.19916016 14.19140625 2.40234375 C12.99386719 2.57894531 11.79632813 2.75554688 10.5625 2.9375 C9.36753906 3.11152344 8.17257813 3.28554688 6.94140625 3.46484375 C4.12044324 3.68985213 4.12044324 3.68985213 3 5 C2.75408786 8.26516681 2.61576894 11.52943002 2.4765625 14.80078125 C1.9656618 18.23051629 1.62070388 19.73389453 -1 22 C-3.91796875 22.390625 -3.91796875 22.390625 -7.1875 22.25 C-8.27417969 22.21390625 -9.36085938 22.1778125 -10.48046875 22.140625 C-11.31191406 22.09421875 -12.14335938 22.0478125 -13 22 C-13.33 22.66 -13.66 23.32 -14 24 C-14 23.01 -14 22.02 -14 21 C-13.01 21 -12.02 21 -11 21 C-11 20.01 -11 19.02 -11 18 C-14.63 18 -18.26 18 -22 18 C-22 17.67 -22 17.34 -22 17 C-15.73 16.67 -9.46 16.34 -3 16 C-2.87625 14.288125 -2.7525 12.57625 -2.625 10.8125 C-2.33580973 6.81203466 -1.64800856 3.66447432 0 0 Z " fill="#5B4C50" transform="translate(123,39)"/>
<path d="M0 0 C1.32 0 2.64 0 4 0 C5.46923828 2.16333008 5.46923828 2.16333008 6.9453125 4.95703125 C9.0882087 8.199978 10.11457067 9.7422111 13.88964844 10.84130859 C17.2655281 11.01955095 20.50308772 10.92422672 23.875 10.6875 C25.02742188 10.65076172 26.17984375 10.61402344 27.3671875 10.57617188 C32.54960865 10.82193559 32.54960865 10.82193559 37 9 C45.18042822 7.37822414 53.64263164 7.62361996 61.94921875 7.39453125 C63.16480469 7.35714844 64.38039063 7.31976563 65.6328125 7.28125 C67.28627686 7.23581055 67.28627686 7.23581055 68.97314453 7.18945312 C71.74293426 7.01608993 74.29918177 6.61983935 77 6 C77.33 4.68 77.66 3.36 78 2 C78.66 2 79.32 2 80 2 C79.67 4.31 79.34 6.62 79 9 C77.86457764 9.0501123 76.72915527 9.10022461 75.55932617 9.15185547 C71.34890185 9.34012705 67.13912803 9.54053678 62.92944336 9.74462891 C61.10700695 9.83128023 59.28441065 9.91463402 57.46166992 9.99462891 C54.84244591 10.11015145 52.22402494 10.23750171 49.60546875 10.3671875 C48.38188911 10.41732498 48.38188911 10.41732498 47.1335907 10.46847534 C43.30615333 10.66921923 41.25265223 10.83156518 38 13 C29.5001943 14.27551363 16.76612441 15.87707661 8.88330078 11.94384766 C5.61243671 9.22062597 3.77470371 5.80049091 2 2 C1.34 1.34 0.68 0.68 0 0 Z " fill="#5F5F5F" transform="translate(118,289)"/>
<path d="M0 0 C0.19335938 0.54269531 0.38671875 1.08539063 0.5859375 1.64453125 C0.84632813 2.35996094 1.10671875 3.07539063 1.375 3.8125 C1.63023437 4.52019531 1.88546875 5.22789062 2.1484375 5.95703125 C3.0265769 8.24773359 3.0265769 8.24773359 5 11 C5.22705078 13.63549805 5.22705078 13.63549805 5.1953125 16.76171875 C5.18886719 17.87998047 5.18242187 18.99824219 5.17578125 20.15039062 C5.15902344 21.31763672 5.14226562 22.48488281 5.125 23.6875 C5.11597656 24.86634766 5.10695312 26.04519531 5.09765625 27.25976562 C5.07406423 30.17338026 5.0411454 33.08658892 5 36 C4.67 36 4.34 36 4 36 C3.80083984 34.93458984 3.80083984 34.93458984 3.59765625 33.84765625 C3.33275391 32.46900391 3.33275391 32.46900391 3.0625 31.0625 C2.88847656 30.14597656 2.71445313 29.22945312 2.53515625 28.28515625 C2.22285012 26.04710156 2.22285012 26.04710156 1 25 C0.83957845 23.33636912 0.72232982 21.66851122 0.625 20 C0.24786199 15.25795328 -0.70134436 11.21606014 -2.37890625 6.77734375 C-3 5 -3 5 -3 3 C-6.3 3.33 -9.6 3.66 -13 4 C-13 3.34 -13 2.68 -13 2 C-11.58461283 1.66127487 -10.16762037 1.32925376 -8.75 1 C-7.56664062 0.7215625 -7.56664062 0.7215625 -6.359375 0.4375 C-4 0 -4 0 0 0 Z " fill="#1A1A1A" transform="translate(138,129)"/>
<path d="M0 0 C3.25 0.1875 3.25 0.1875 7 1 C7.8353125 2.1446875 7.8353125 2.1446875 8.6875 3.3125 C12.40404328 7.63172598 17.63653659 8.49047178 23 10 C23.33 8.68 23.66 7.36 24 6 C27.37483413 5.91232445 30.74937215 5.85938372 34.125 5.8125 C35.55199219 5.77479492 35.55199219 5.77479492 37.0078125 5.73632812 C42.66707918 5.67737743 45.94959718 6.30871152 51 9 C54.12749111 9.56912563 57.26838084 9.78195271 60.4375 10 C73.93291139 10.93291139 73.93291139 10.93291139 79 16 C76.30533864 15.52447153 73.86763502 14.95019552 71.30078125 13.984375 C67.53433286 12.86112649 64.23748618 12.72495068 60.3125 12.625 C55.26355634 12.42764528 51.14140387 11.95043184 46.4375 9.9375 C39.74547431 7.10310991 33.14948768 7.65265647 26 8 C25.34 9.32 24.68 10.64 24 12 C18.38582857 11.40903459 12.96177418 9.69011853 8 7 C6.9642897 5.69421213 5.95963103 4.36267607 5 3 C2.41501488 1.73152315 2.41501488 1.73152315 0 1 C0 0.67 0 0.34 0 0 Z " fill="#747474" transform="translate(74,17)"/>
<path d="M0 0 C0.33 0 0.66 0 1 0 C1.103125 1.051875 1.20625 2.10375 1.3125 3.1875 C1.99430888 6.96844018 2.86541896 8.88022772 5 12 C5.433125 12.86625 5.86625 13.7325 6.3125 14.625 C8.44175839 17.62173403 10.65600174 18.58808962 14 20 C14.66 18.35 15.32 16.7 16 15 C16.66 15.33 17.32 15.66 18 16 C17.525625 16.66 17.05125 17.32 16.5625 18 C14.58682146 21.7933028 14.35972537 24.75524068 14 29 C13.34 29 12.68 29 12 29 C11.835 28.29875 11.67 27.5975 11.5 26.875 C9.90556451 23.81899865 8.82610369 22.9843455 6.0625 21.0625 C2.33918538 18.37494381 0.2713044 16.57669583 -1 12 C-0.9274802 7.95961114 -0.53763918 4.00314474 0 0 Z " fill="#544C4E" transform="translate(144,223)"/>
<path d="M0 0 C0.66 0 1.32 0 2 0 C2.25007812 0.5878125 2.50015625 1.175625 2.7578125 1.78125 C4.16426885 4.29341102 5.66640992 5.66645352 7.875 7.5 C8.93847656 8.40685547 8.93847656 8.40685547 10.0234375 9.33203125 C10.67570312 9.88246094 11.32796875 10.43289062 12 11 C14.5 13.1875 14.5 13.1875 16 15 C16 16.32 16 17.64 16 19 C16.66 19 17.32 19 18 19 C18.66 20.65 19.32 22.3 20 24 C20.66 24 21.32 24 22 24 C22.40863281 24.72574219 22.81726563 25.45148438 23.23828125 26.19921875 C25.35686134 29.56733832 27.99508524 31.55261629 31.1875 33.8125 C31.74630859 34.21919922 32.30511719 34.62589844 32.88085938 35.04492188 C34.24799305 36.03813864 35.6231981 37.02022934 37 38 C36.01 38.33 35.02 38.66 34 39 C25.07888842 34.27240428 18.35384649 25.99037476 13.5 17.390625 C11.18588351 13.70250185 8.20336278 10.91282523 5 8 C3.24259641 6.3794796 1.6193309 4.7665428 0 3 C0 2.01 0 1.02 0 0 Z " fill="#848484" transform="translate(13,107)"/>
<path d="M0 0 C0.33 0 0.66 0 1 0 C1 1.65 1 3.3 1 5 C1.66 5 2.32 5 3 5 C3.06058594 6.15757813 3.12117188 7.31515625 3.18359375 8.5078125 C3.26805502 10.04688457 3.35270018 11.58594655 3.4375 13.125 C3.47681641 13.88554688 3.51613281 14.64609375 3.55664062 15.4296875 C3.79509002 19.68509203 4.20230237 23.80370826 5 28 C4.34 28 3.68 28 3 28 C3.33 29.65 3.66 31.3 4 33 C3.34 32.67 2.68 32.34 2 32 C1.855625 31.195625 1.71125 30.39125 1.5625 29.5625 C1.23497283 26.65559342 1.23497283 26.65559342 -2 25 C-2 23.68 -2 22.36 -2 21 C-1.34 21 -0.68 21 0 21 C-0.165 19.72125 -0.33 18.4425 -0.5 17.125 C-1.96400778 3.92801556 -1.96400778 3.92801556 0 0 Z " fill="#4A4547" transform="translate(85,81)"/>
<path d="M0 0 C0.66 0.33 1.32 0.66 2 1 C1.54625 2.03125 1.0925 3.0625 0.625 4.125 C-0.76707361 7.36437508 -1.93380878 10.63739693 -3 14 C-1.948125 14.495 -0.89625 14.99 0.1875 15.5 C8.27661982 20.23628545 10.18734661 29.0291084 12.69140625 37.51171875 C14.00454463 41.01211448 15.50845943 43.24508305 18 46 C14.43501033 44.40190118 11.75052979 42.82536549 10.21972656 39.10229492 C10.02862305 38.40209229 9.83751953 37.70188965 9.640625 36.98046875 C9.41117188 36.20509766 9.18171875 35.42972656 8.9453125 34.63085938 C8.48601498 33.01686726 8.03786377 31.3996567 7.6015625 29.77929688 C5.34236513 22.27553419 1.3331828 18.81809971 -5.4375 15.125 C-6.283125 14.75375 -7.12875 14.3825 -8 14 C-8 13.34 -8 12.68 -8 12 C-6.35 11.67 -4.7 11.34 -3 11 C-2.95101562 10.37351563 -2.90203125 9.74703125 -2.8515625 9.1015625 C-2.77679688 8.28429687 -2.70203125 7.46703125 -2.625 6.625 C-2.55539063 5.81289062 -2.48578125 5.00078125 -2.4140625 4.1640625 C-2 2 -2 2 0 0 Z " fill="#888888" transform="translate(180,234)"/>
<path d="M0 0 C3.90634379 1.12849932 6.21399474 2.08735814 9 5 C12.78325938 6.31029959 16.78608449 6.33395667 20.75 6.5625 C21.44738281 6.60568359 22.14476562 6.64886719 22.86328125 6.69335938 C24.57531922 6.79889596 26.28763561 6.8998991 28 7 C28 7.33 28 7.66 28 8 C23.545 8.495 23.545 8.495 19 9 C19 9.66 19 10.32 19 11 C19.99 11.33 20.98 11.66 22 12 C17.17288077 12.33677576 15.04262055 11.50257462 11 9 C9.67709485 8.62742671 8.34199463 8.29654563 7 8 C3.53121484 7.21609375 0.95896908 6.02900737 -2 4 C-2.99 3.34 -3.98 2.68 -5 2 C-3.35 2 -1.7 2 0 2 C0 1.34 0 0.68 0 0 Z " fill="#3D3437" transform="translate(106,122)"/>
<path d="M0 0 C1.216875 0.01289062 2.43375 0.02578125 3.6875 0.0390625 C6.71415724 0.34601123 8.45621139 0.78513212 11 2.375 C8.36 2.375 5.72 2.375 3 2.375 C3 3.035 3 3.695 3 4.375 C6.96 4.375 10.92 4.375 15 4.375 C15 4.705 15 5.035 15 5.375 C4.605 5.87 4.605 5.87 -6 6.375 C-6 5.055 -6 3.735 -6 2.375 C-7.65 3.035 -9.3 3.695 -11 4.375 C-7.64884716 0.13579165 -5.29365792 -0.12336915 0 0 Z " fill="#72696B" transform="translate(175,97.625)"/>
<path d="M0 0 C0.94875 0.165 1.8975 0.33 2.875 0.5 C7.5763877 1.18541792 12.26003286 1.08583441 17 1 C17 1.33 17 1.66 17 2 C15.60974609 2.19916016 15.60974609 2.19916016 14.19140625 2.40234375 C12.39509766 2.66724609 12.39509766 2.66724609 10.5625 2.9375 C9.36753906 3.11152344 8.17257813 3.28554688 6.94140625 3.46484375 C4.12044324 3.68985213 4.12044324 3.68985213 3 5 C2.76518307 7.18292774 2.58636677 9.37203174 2.4375 11.5625 C2.31181641 13.35880859 2.31181641 13.35880859 2.18359375 15.19140625 C2.12300781 16.11824219 2.06242187 17.04507813 2 18 C1.67 17.01 1.34 16.02 1 15 C0.01 15 -0.98 15 -2 15 C-2.3690205 4.44191344 -2.3690205 4.44191344 0 0 Z " fill="#564D50" transform="translate(123,39)"/>
<path d="M0 0 C3.51358617 2.34239078 4.13284843 3.96435172 5.875 7.75 C8.15781306 12.50348853 10.50057726 16.10064324 14 20 C15.95855737 25.87567211 15.88044771 31.87770077 13.1875 37.5 C11.64889649 40.3767759 10.86152858 41.09231428 8 43 C8.46482249 40.48995858 9.0400625 38.94157553 10.5 36.8125 C12.56842735 32.93419872 13.11713991 29.3810325 13 25 C11.34049545 20.3143401 8.27562709 16.41292546 5.49609375 12.31640625 C0 3.80678851 0 3.80678851 0 0 Z " fill="#919191" transform="translate(202,64)"/>
<path d="M0 0 C2.05078125 0.03255208 4.1015625 0.06510417 6.15234375 0.09765625 C4.77321972 3.49901914 3.52622516 4.7937119 0.21484375 6.34765625 C-0.81962891 6.85039062 -0.81962891 6.85039062 -1.875 7.36328125 C-3.84765625 8.09765625 -3.84765625 8.09765625 -6.84765625 8.09765625 C-7.17765625 9.08765625 -7.50765625 10.07765625 -7.84765625 11.09765625 C-7.84765625 9.77765625 -7.84765625 8.45765625 -7.84765625 7.09765625 C-8.83765625 6.76765625 -9.82765625 6.43765625 -10.84765625 6.09765625 C-10.28175781 5.74832031 -9.71585938 5.39898437 -9.1328125 5.0390625 C-8.39933594 4.58402344 -7.66585937 4.12898438 -6.91015625 3.66015625 C-6.17925781 3.20769531 -5.44835937 2.75523438 -4.6953125 2.2890625 C-1.24765625 0.06594378 -1.24765625 0.06594378 0 0 Z " fill="#3D3538" transform="translate(145.84765625,121.90234375)"/>
<path d="M0 0 C0 0.66 0 1.32 0 2 C-0.763125 2.4125 -1.52625 2.825 -2.3125 3.25 C-5.63668114 5.41458307 -6.39498297 7.42518934 -8 11 C-8.50273437 11.56847656 -9.00546875 12.13695312 -9.5234375 12.72265625 C-11.58934622 15.90896521 -11.64495154 18.74240381 -12 22.5 C-12.76056338 30.54929577 -12.76056338 30.54929577 -16 34 C-16.66 33.67 -17.32 33.34 -18 33 C-17.525625 32.071875 -17.05125 31.14375 -16.5625 30.1875 C-15.11544276 26.88282509 -14.72843229 23.96673317 -14.5 20.375 C-14.18717375 16.03084681 -13.69322544 13.52905402 -11 10 C-9.97657383 8.41834137 -8.95597722 6.83484992 -7.9375 5.25 C-4.52152318 0 -4.52152318 0 0 0 Z " fill="#6E6E6E" transform="translate(200,200)"/>
<path d="M0 0 C0.66 0 1.32 0 2 0 C1.67 2.31 1.34 4.62 1 7 C-25.9576474 8.19388403 -25.9576474 8.19388403 -38 8 C-34.52783954 5.88625823 -31.68733087 5.71116576 -27.66015625 5.62109375 C-25.8184082 5.56985352 -25.8184082 5.56985352 -23.93945312 5.51757812 C-22.02036133 5.47793945 -22.02036133 5.47793945 -20.0625 5.4375 C-17.53246112 5.37741317 -15.00250401 5.31375093 -12.47265625 5.24609375 C-11.35125244 5.22216553 -10.22984863 5.1982373 -9.07446289 5.17358398 C-6.28064504 5.0158452 -3.7216195 4.62943198 -1 4 C-0.67 2.68 -0.34 1.36 0 0 Z " fill="#5A5A5A" transform="translate(196,291)"/>
<path d="M0 0 C0 3 0 3 -2.4375 5.5 C-3.283125 6.325 -4.12875 7.15 -5 8 C-5.33 8.99 -5.66 9.98 -6 11 C1.92 11 9.84 11 18 11 C18 11.33 18 11.66 18 12 C9.64380043 12.75475351 1.39004715 13.13605482 -7 13 C-7.33 10.69 -7.66 8.38 -8 6 C-5.36 4.02 -2.72 2.04 0 0 Z " fill="#B7B6B6" transform="translate(91,256)"/>
<path d="M0 0 C1.32 0 2.64 0 4 0 C4 0.66 4 1.32 4 2 C7.63 2 11.26 2 15 2 C15 2.99 15 3.98 15 5 C14.01 5 13.02 5 12 5 C12 5.99 12 6.98 12 8 C8.02712922 7.43244703 5.3546267 6.17597408 2 4 C1.34 3.67 0.68 3.34 0 3 C0 2.01 0 1.02 0 0 Z " fill="#1C1517" transform="translate(97,55)"/>
<path d="M0 0 C1.98 0 3.96 0 6 0 C9.47159188 5.48529741 9.36163875 10.11493536 9.1875 16.375 C9.17396484 17.30183594 9.16042969 18.22867188 9.14648438 19.18359375 C9.11133881 21.45633998 9.06214132 23.72785847 9 26 C10.32 26.33 11.64 26.66 13 27 C13 27.66 13 28.32 13 29 C8.125 27.125 8.125 27.125 7 26 C7.00758379 22.28773277 7.0780045 18.58648658 7.21484375 14.87695312 C7.30603976 9.80728414 6.85373237 6.38667254 4 2 C1.94906855 0.59533047 1.94906855 0.59533047 0 0 Z " fill="#808080" transform="translate(65,150)"/>
<path d="M0 0 C0.33 0 0.66 0 1 0 C1.05783842 4.29161047 1.0935412 8.58312145 1.125 12.875 C1.14175781 14.09832031 1.15851563 15.32164062 1.17578125 16.58203125 C1.18222656 17.74863281 1.18867188 18.91523438 1.1953125 20.1171875 C1.20578613 21.19597168 1.21625977 22.27475586 1.22705078 23.38623047 C1 26 1 26 -1 28 C-1.66 27.67 -2.32 27.34 -3 27 C-3 22.71 -3 18.42 -3 14 C-2.34 14.66 -1.68 15.32 -1 16 C-0.67 10.72 -0.34 5.44 0 0 Z " fill="#676767" transform="translate(143,141)"/>
<path d="M0 0 C0.45890625 0.40992188 0.9178125 0.81984375 1.390625 1.2421875 C2.00421875 1.78101563 2.6178125 2.31984375 3.25 2.875 C3.85328125 3.40867187 4.4565625 3.94234375 5.078125 4.4921875 C6.97418746 5.9797487 8.81290005 7.00322436 11 8 C11 8.66 11 9.32 11 10 C16.28 10.33 21.56 10.66 27 11 C27 11.66 27 12.32 27 13 C19.11431935 13.44449557 11.99918267 13.26477517 5.66015625 8.08984375 C3.63789189 6.13155261 1.73038469 4.22073893 0 2 C0 1.34 0 0.68 0 0 Z " fill="#4E4E4E" transform="translate(33,5)"/>
<path d="M0 0 C2.31 0 4.62 0 7 0 C5.68 0.33 4.36 0.66 3 1 C3 1.99 3 2.98 3 4 C3.66 4.33 4.32 4.66 5 5 C4.01 5 3.02 5 2 5 C1.67 6.65 1.34 8.3 1 10 C0.34 9.34 -0.32 8.68 -1 8 C-2.32 9.65 -3.64 11.3 -5 13 C-4.48474397 7.71862571 -2.74522883 4.42778844 0 0 Z " fill="#594D51" transform="translate(94,54)"/>
<path d="M0 0 C6.20684924 -0.56425902 9.46369228 0.45375162 14.74609375 3.6875 C18.02773431 5.59847267 21.41676679 6.7621558 25 8 C25 8.33 25 8.66 25 9 C20.35631651 8.69715108 17.17821536 7.70734657 13.0625 5.5 C8.57251641 3.1140516 5.05588174 2.28088232 0 2 C0 1.34 0 0.68 0 0 Z " fill="#585858" transform="translate(203,199)"/>
<path d="M0 0 C5.28 0 10.56 0 16 0 C16 0.33 16 0.66 16 1 C11.545 1.495 11.545 1.495 7 2 C7 2.66 7 3.32 7 4 C7.99 4.33 8.98 4.66 10 5 C4.60158311 5.49076517 4.60158311 5.49076517 1.625 3.0625 C0 1 0 1 0 0 Z " fill="#584D51" transform="translate(118,129)"/>
<path d="M0 0 C0.66 0 1.32 0 2 0 C2.24621094 0.5878125 2.49242187 1.175625 2.74609375 1.78125 C4.59290122 5.04912117 7.31736171 6.90712324 10.22265625 9.21875 C12.1634435 11.16380272 12.61784865 12.31906128 13 15 C12.55269531 14.61328125 12.10539062 14.2265625 11.64453125 13.828125 C11.03996094 13.30734375 10.43539063 12.7865625 9.8125 12.25 C9.17699219 11.69957031 8.54148437 11.14914063 7.88671875 10.58203125 C6.35510911 9.2977623 4.74909605 8.10261238 3.125 6.9375 C0.63290301 4.66529392 0.27558364 3.30700371 0 0 Z " fill="#A3A3A3" transform="translate(13,107)"/>
<path d="M0 0 C3.875 0.875 3.875 0.875 5 2 C5.28289181 4.25415378 5.4477119 6.50840656 5.62109375 8.7734375 C5.89200825 11.27920078 5.89200825 11.27920078 8 14 C7.65358161 17.46418389 6.96713413 19.04929881 5 22 C4.01 21.67 3.02 21.34 2 21 C3.32 19.35 4.64 17.7 6 16 C5.34 15.01 4.68 14.02 4 13 C3.40099106 10.47085114 2.98970449 7.93822692 2.5625 5.375 C2.08715001 2.75371613 2.08715001 2.75371613 0 0 Z " fill="#8E8E8E" transform="translate(78,179)"/>
<path d="M0 0 C1.44010481 0.25662245 2.8770687 0.53090821 4.3125 0.8125 C5.11300781 0.96332031 5.91351563 1.11414063 6.73828125 1.26953125 C9.23445587 2.07572236 10.32422106 3.02052002 12 5 C10.20841511 5.02696365 8.41671527 5.04637917 6.625 5.0625 C5.62726563 5.07410156 4.62953125 5.08570313 3.6015625 5.09765625 C1 5 1 5 -1 4 C-0.67 2.68 -0.34 1.36 0 0 Z " fill="#E2B7C3" transform="translate(110,129)"/>
<path d="M0 0 C0.66 0 1.32 0 2 0 C1.62671065 5.35048061 0.0042343 7.50912907 -4 11 C-4.99 10.34 -5.98 9.68 -7 9 C-6.01 8.67 -5.02 8.34 -4 8 C-3.67 6.02 -3.34 4.04 -3 2 C-2.01 2 -1.02 2 0 2 C0 1.34 0 0.68 0 0 Z " fill="#484647" transform="translate(140,168)"/>
<path d="M0 0 C1.32 0.33 2.64 0.66 4 1 C2.88745117 2.48168945 2.88745117 2.48168945 1 4 C-1.8190918 4.34057617 -1.8190918 4.34057617 -5.19921875 4.29296875 C-6.40771484 4.28330078 -7.61621094 4.27363281 -8.86132812 4.26367188 C-10.12396484 4.23853516 -11.38660156 4.21339844 -12.6875 4.1875 C-14.59885742 4.16719727 -14.59885742 4.16719727 -16.54882812 4.14648438 C-19.69964057 4.11108199 -22.84961045 4.0616979 -26 4 C-26 3.67 -26 3.34 -26 3 C-17.75 3 -9.5 3 -1 3 C-0.67 2.01 -0.34 1.02 0 0 Z " fill="#818181" transform="translate(155,298)"/>
<path d="M0 0 C5.94 0 11.88 0 18 0 C18 0.99 18 1.98 18 3 C12.06 2.67 6.12 2.34 0 2 C0 1.34 0 0.68 0 0 Z " fill="#3B3839" transform="translate(178,100)"/>
<path d="M0 0 C0.72509766 -0.01224609 1.45019531 -0.02449219 2.19726562 -0.03710938 C6.01743278 -0.04759474 8.95185611 0.03889658 12.1875 2.1875 C10.1875 3.1875 10.1875 3.1875 8.1875 2.75 C5.43272157 2.23347905 2.92087673 2.01573514 0.125 1.9375 C-0.71160156 1.91171875 -1.54820313 1.8859375 -2.41015625 1.859375 C-5.30678293 2.25501181 -6.58102805 3.36393152 -8.8125 5.1875 C-9.4725 5.1875 -10.1325 5.1875 -10.8125 5.1875 C-8.07191491 -0.47637585 -6.08384544 0.0053227 0 0 Z " fill="#7B7B7B" transform="translate(19.8125,-0.1875)"/>
<path d="M0 0 C-0.125 2.25 -0.125 2.25 -1 5 C-4.0625 7.3125 -4.0625 7.3125 -7 9 C-6.75 5.625 -6.75 5.625 -6 2 C-3.83076342 0.3905664 -2.68076871 0 0 0 Z " fill="#3E3336" transform="translate(169,100)"/>
<path d="M0 0 C1.5 1.3125 1.5 1.3125 3 3 C3 3.99 3 4.98 3 6 C2.34 6 1.68 6 1 6 C1 7.98 1 9.96 1 12 C-0.99097846 9.01353231 -1.94124926 6.40312738 -3 3 C-2.01 2.01 -1.02 1.02 0 0 Z " fill="#5F5154" transform="translate(135,201)"/>
<path d="M0 0 C2 1 2 1 3.375 4.4375 C4.63566608 8.03852123 4.63566608 8.03852123 7.1875 9.4375 C7.785625 9.623125 8.38375 9.80875 9 10 C9 10.66 9 11.32 9 12 C6.08264362 11.68461012 4.42948813 11.39881041 2.25 9.375 C0.62780937 6.29283781 0.3310304 3.44271613 0 0 Z " fill="#989898" transform="translate(70,268)"/>
<path d="M0 0 C0.99 0 1.98 0 3 0 C3.33 1.98 3.66 3.96 4 6 C3.34 6 2.68 6 2 6 C2.33 7.65 2.66 9.3 3 11 C2.34 10.67 1.68 10.34 1 10 C0.33203125 7.96875 0.33203125 7.96875 -0.1875 5.5 C-0.36667969 4.6853125 -0.54585938 3.870625 -0.73046875 3.03125 C-0.81941406 2.3609375 -0.90835938 1.690625 -1 1 C-0.67 0.67 -0.34 0.34 0 0 Z " fill="#423D3E" transform="translate(86,103)"/>
<path d="M0 0 C1.32229189 2.64458379 1.09677194 4.67761301 1.0625 7.625 C1.05347656 8.62789062 1.04445313 9.63078125 1.03515625 10.6640625 C1.02355469 11.43492187 1.01195313 12.20578125 1 13 C2.32 13.33 3.64 13.66 5 14 C5 14.66 5 15.32 5 16 C0.125 14.125 0.125 14.125 -1 13 C-1.09873816 11.00200428 -1.12971799 9.00042842 -1.125 7 C-1.12757812 5.906875 -1.13015625 4.81375 -1.1328125 3.6875 C-1 1 -1 1 0 0 Z " fill="#5D5D5D" transform="translate(73,163)"/>
<path d="M0 0 C0 3 0 3 -2.375 5.5 C-3.24125 6.325 -4.1075 7.15 -5 8 C-5.66 8.99 -6.32 9.98 -7 11 C-7.33 9.35 -7.66 7.7 -8 6 C-5.36 4.02 -2.72 2.04 0 0 Z " fill="#CCCBCB" transform="translate(91,256)"/>
<path d="M0 0 C3.44428265 1.44781793 5.36130962 3.27694609 7.75 6.125 C8.36359375 6.84945312 8.9771875 7.57390625 9.609375 8.3203125 C10.29773438 9.15175781 10.29773438 9.15175781 11 10 C9.68 10.33 8.36 10.66 7 11 C6.401875 9.9275 5.80375 8.855 5.1875 7.75 C3.62598931 5.01041007 1.97394497 2.46743122 0 0 Z " fill="#9D9D9D" transform="translate(226,159)"/>
<path d="M0 0 C0.33 0 0.66 0 1 0 C1.22786458 2.01822917 1.45572917 4.03645833 1.68359375 6.0546875 C1.91292961 8.07404316 1.91292961 8.07404316 3 10 C2.01 10.495 2.01 10.495 1 11 C1 11.99 1 12.98 1 14 C0.01 13.67 -0.98 13.34 -2 13 C-2 11.68 -2 10.36 -2 9 C-1.34 9 -0.68 9 0 9 C0 6.03 0 3.06 0 0 Z " fill="#595456" transform="translate(85,93)"/>
<path d="M0 0 C0.99 0 1.98 0 3 0 C3 2.64 3 5.28 3 8 C2.01 8 1.02 8 0 8 C0 5.36 0 2.72 0 0 Z " fill="#181113" transform="translate(121,46)"/>
<path d="M0 0 C3.25 0.125 3.25 0.125 7 1 C9.4375 4.0625 9.4375 4.0625 11 7 C9.125 6.6875 9.125 6.6875 7 6 C6.34 5.01 5.68 4.02 5 3 C2.44816596 1.79549696 2.44816596 1.79549696 0 1 C0 0.67 0 0.34 0 0 Z " fill="#8D8D8D" transform="translate(74,17)"/>
<path d="M0 0 C5.52628901 1.19194469 8.17819158 2.5991297 12 7 C8.98782888 6.35550393 6.48344164 5.34977818 3.75 3.9375 C3.04359375 3.57527344 2.3371875 3.21304688 1.609375 2.83984375 C1.07828125 2.56269531 0.5471875 2.28554687 0 2 C0 1.34 0 0.68 0 0 Z " fill="#A6A6A6" transform="translate(173,247)"/>
<path d="M0 0 C1.485 0.99 1.485 0.99 3 2 C3 3.32 3 4.64 3 6 C3.66 6 4.32 6 5 6 C5.66 7.65 6.32 9.3 7 11 C3.8255824 9.90537324 3.01085843 9.01822665 1.25 6.0625 C0 3 0 3 0 0 Z " fill="#6F6F6F" transform="translate(26,120)"/>
<path d="M0 0 C0.45890625 0.40992188 0.9178125 0.81984375 1.390625 1.2421875 C2.00421875 1.78101563 2.6178125 2.31984375 3.25 2.875 C3.85328125 3.40867187 4.4565625 3.94234375 5.078125 4.4921875 C6.97418746 5.9797487 8.81290005 7.00322436 11 8 C11 8.66 11 9.32 11 10 C7.43235179 9.42380903 5.74840503 8.13030516 3.25 5.5625 C2.63640625 4.94503906 2.0228125 4.32757812 1.390625 3.69140625 C0 2 0 2 0 0 Z " fill="#A4A4A4" transform="translate(33,5)"/>
<path d="M0 0 C0 0.66 0 1.32 0 2 C-1.66279327 3.0064275 -3.32983484 4.00585407 -5 5 C-5.99 6.485 -5.99 6.485 -7 8 C-7.66 7.67 -8.32 7.34 -9 7 C-4.53191489 0 -4.53191489 0 0 0 Z " fill="#636363" transform="translate(200,200)"/>
<path d="M0 0 C9.59453303 1.74259681 9.59453303 1.74259681 13 5 C8.02693484 4.50269348 4.36200187 3.44697666 0 1 C0 0.67 0 0.34 0 0 Z " fill="#808080" transform="translate(215,203)"/>
<path d="M0 0 C1.75 0.125 1.75 0.125 4 1 C6.25 4.0625 6.25 4.0625 8 7 C7.67 7.66 7.34 8.32 7 9 C5.82737096 7.88121617 4.66204862 6.75476949 3.5 5.625 C2.8503125 4.99851563 2.200625 4.37203125 1.53125 3.7265625 C0 2 0 2 0 0 Z " fill="#A0A0A0" transform="translate(31,130)"/>
<path d="M0 0 C2.64 0 5.28 0 8 0 C7.67 0.99 7.34 1.98 7 3 C4.625 3.1875 4.625 3.1875 2 3 C1.34 2.01 0.68 1.02 0 0 Z " fill="#F7D4DE" transform="translate(190,163)"/>
<path d="M0 0 C1.32 0 2.64 0 4 0 C4 0.66 4 1.32 4 2 C4.99 2 5.98 2 7 2 C7 2.66 7 3.32 7 4 C4.69 3.67 2.38 3.34 0 3 C0 2.01 0 1.02 0 0 Z " fill="#140F10" transform="translate(97,55)"/>
<path d="M0 0 C1.32 0.33 2.64 0.66 4 1 C2.87994369 4.36016893 1.62788203 5.69064913 -1 8 C-1.66 8 -2.32 8 -3 8 C-1.84826645 5.53199953 -0.95216435 3.95216435 1 2 C0.67 1.34 0.34 0.68 0 0 Z " fill="#A4A4A4" transform="translate(73,249)"/>
<path d="M0 0 C0.66 0 1.32 0 2 0 C1.67 1.98 1.34 3.96 1 6 C0.01 6.33 -0.98 6.66 -2 7 C-1.125 2.25 -1.125 2.25 0 0 Z " fill="#151515" transform="translate(140,168)"/>
<path d="M0 0 C0.33 0 0.66 0 1 0 C0.67 2.97 0.34 5.94 0 9 C-0.33 7.68 -0.66 6.36 -1 5 C-1.66 4.67 -2.32 4.34 -3 4 C-2.02727325 2.64664105 -1.0260734 1.31337396 0 0 Z " fill="#2A2426" transform="translate(93,61)"/>
<path d="M0 0 C0.66 0 1.32 0 2 0 C1.690625 0.495 1.38125 0.99 1.0625 1.5 C-0.41644382 4.97986781 -0.62402851 8.24028509 -1 12 C-1.33 12 -1.66 12 -2 12 C-2.05395478 10.37536158 -2.09277195 8.75021459 -2.125 7.125 C-2.14820312 6.22007813 -2.17140625 5.31515625 -2.1953125 4.3828125 C-2 2 -2 2 0 0 Z " fill="#D3CFD0" transform="translate(127,42)"/>
<path d="M0 0 C-1.29299694 2.88437779 -2.65941363 4.87219421 -5 7 C-5 3 -5 3 -3.625 1.25 C-2 0 -2 0 0 0 Z " fill="#A9A9A9" transform="translate(193,208)"/>
</svg>
